<?xml version="1.0" encoding="UTF-8" standalone="no"?>
<!-- Created with Inkscape (http://www.inkscape.org/) -->

<svg
   width="128"
   height="128"
   viewBox="0 0 128 127.99999"
   id="svg4173"
   version="1.1"
   inkscape:version="1.2.2 (b0a8486541, 2022-12-01)"
   sodipodi:docname="ob-cc.svg"
   xml:space="preserve"
   xmlns:inkscape="http://www.inkscape.org/namespaces/inkscape"
   xmlns:sodipodi="http://sodipodi.sourceforge.net/DTD/sodipodi-0.dtd"
   xmlns:xlink="http://www.w3.org/1999/xlink"
   xmlns="http://www.w3.org/2000/svg"
   xmlns:svg="http://www.w3.org/2000/svg"
   xmlns:rdf="http://www.w3.org/1999/02/22-rdf-syntax-ns#"
   xmlns:cc="http://creativecommons.org/ns#"
   xmlns:dc="http://purl.org/dc/elements/1.1/"><defs
     id="defs4175"><filter
       id="preference-system-a"
       width="1.1220339"
       height="1.1389831"
       x="-0.061016949"
       y="-0.061016949"
       filterUnits="objectBoundingBox"><feOffset
         dy="2"
         in="SourceAlpha"
         result="shadowOffsetOuter1"
         id="feOffset904" /><feGaussianBlur
         in="shadowOffsetOuter1"
         result="shadowBlurOuter1"
         stdDeviation="3"
         id="feGaussianBlur906" /><feComposite
         in="shadowBlurOuter1"
         in2="SourceAlpha"
         operator="out"
         result="shadowBlurOuter1"
         id="feComposite908" /><feColorMatrix
         in="shadowBlurOuter1"
         result="shadowMatrixOuter1"
         values="0 0 0 0 0   0 0 0 0 0   0 0 0 0 0  0 0 0 0.2 0"
         id="feColorMatrix910" /><feMerge
         id="feMerge916"><feMergeNode
           in="shadowMatrixOuter1"
           id="feMergeNode912" /><feMergeNode
           in="SourceGraphic"
           id="feMergeNode914" /></feMerge></filter><linearGradient
       id="preference-system-b"
       x1="62.189539"
       x2="56.57392"
       y1="121.90462"
       y2="0"
       gradientUnits="userSpaceOnUse"><stop
         offset="0.01926"
         stop-color="#410DD9"
         id="stop919"
         style="stop-color:#b098f9;stop-opacity:1;" /><stop
         offset="100%"
         stop-color="#2F54F8"
         id="stop921" /></linearGradient><circle
       id="preference-system-c"
       cx="59"
       cy="59"
       r="37.545" /><filter
       id="preference-system-d"
       width="1.0000943"
       height="1.0400464"
       x="-4.7146639e-05"
       y="-4.7146639e-05"
       filterUnits="objectBoundingBox"><feGaussianBlur
         in="SourceAlpha"
         result="shadowBlurInner1"
         stdDeviation="0.0014751004"
         id="feGaussianBlur925" /><feOffset
         dy="3"
         in="shadowBlurInner1"
         result="shadowOffsetInner1"
         id="feOffset927" /><feComposite
         in="shadowOffsetInner1"
         in2="SourceAlpha"
         k2="-1"
         k3="1"
         operator="arithmetic"
         result="shadowInnerInner1"
         id="feComposite929" /><feColorMatrix
         in="shadowInnerInner1"
         values="0 0 0 0 0   0 0 0 0 0   0 0 0 0 0  0 0 0 0.5 0"
         id="feColorMatrix931" /></filter><path
       id="preference-system-f"
       d="M57.4918968,21.4544805 C59.4842545,21.6923539 61.4207106,22.1122538 63.2841612,22.6970763 L62.8942462,27.0661129 C64.394629,27.6218655 65.832551,28.3088297 67.1944517,29.113279 L70.4488119,25.9613186 C72.1177959,26.9858474 73.6861691,28.1583401 75.1356669,29.460532 L72.7620869,33.4779475 C73.9064244,34.6455759 74.9471343,35.9174236 75.8690921,37.2781806 L80.5385207,35.7392244 C81.5816392,37.3242711 82.4884412,39.0069996 83.2422448,40.7707279 L79.0379176,43.5774153 C79.5949893,45.1696577 80.0100958,46.8298606 80.2678352,48.5424332 L85.5540397,49.2652459 C85.7283214,50.6214572 85.8181818,52.0040956 85.8181818,53.4077221 C85.8181818,53.875287 85.8082106,54.3405231 85.7884691,54.8032292 L80.4309358,55.5349935 C80.2466102,57.330728 79.8901328,59.0746843 79.3785007,60.7496572 L84.0745205,63.8839858 C83.4856497,65.5952629 82.7565288,67.2412787 81.9008883,68.808303 L76.5431141,67.0435548 C75.5825367,68.6103018 74.4694632,70.0712248 73.2248846,71.4050757 L76.1679045,76.3859663 C74.9138619,77.6157807 73.5595795,78.7437502 72.1184459,79.7564865 L67.994902,75.7618077 C66.432337,76.7600527 64.7613346,77.6001832 63.0038234,78.2600016 L63.5205656,84.0431649 C61.8839346,84.5708067 60.1900488,84.9709411 58.4506125,85.2318635 L56.441807,79.8076737 C55.5196714,79.9042572 54.5837281,79.9537568 53.6363636,79.9537568 C52.6889991,79.9537568 51.7530559,79.9042572 50.8309203,79.8076737 L48.8231164,85.2320137 C47.0831168,84.9710629 45.388694,84.5708105 43.7515635,84.042972 L44.2689039,78.2600016 C42.5113927,77.6001832 40.8403903,76.7600527 39.2778252,75.7618077 L35.1545832,79.7566986 C33.7133368,78.7439077 32.358953,77.6158665 31.1048227,76.3859663 L34.0478427,71.4050757 C32.803264,70.0712248 31.6901906,68.6103018 30.7296132,67.0435548 L25.371839,68.808303 C24.5163649,67.2415836 23.7873613,65.5959033 23.1985505,63.8849846 L27.8942266,60.7496572 C27.3825945,59.0746843 27.0261171,57.330728 26.8417915,55.5349935 L21.4842581,54.8032292 C21.4645167,54.3405231 21.4545455,53.875287 21.4545455,53.4077221 C21.4545455,52.0040956 21.5444058,50.6214572 21.7186876,49.2652459 L27.0048921,48.5424332 C27.2626314,46.8298606 27.6777379,45.1696577 28.2348097,43.5774153 L24.0304825,40.7707279 C24.7842861,39.0069996 25.6910881,37.3242711 26.7342066,35.7392244 L31.4036351,37.2781806 C32.325593,35.9174236 33.3663029,34.6455759 34.5106404,33.4779475 L32.1365567,29.4609845 C33.5861948,28.1586117 35.1547381,26.985966 36.8239153,25.9613186 L40.0782755,29.113279 C41.4401763,28.3088297 42.8780983,27.6218655 44.378481,27.0661129 L43.9875678,22.6973896 C45.8513251,22.1124038 47.788117,21.6923964 49.7808304,21.4544805 L51.2840168,25.5157432 C52.0592069,25.4478664 52.8437883,25.4132208 53.6363636,25.4132208 C54.428939,25.4132208 55.2135204,25.4478664 55.9887105,25.5157432 Z M53.6363636,31.2030504 C41.7873454,31.2030504 32.1818182,40.8085776 32.1818182,52.6575958 C32.1818182,64.5066141 41.7873454,74.1121413 53.6363636,74.1121413 C65.4853819,74.1121413 75.0909091,64.5066141 75.0909091,52.6575958 C75.0909091,40.8085776 65.4853819,31.2030504 53.6363636,31.2030504 Z" /><filter
       id="preference-system-e"
       width="1.1118644"
       height="1.1599309"
       x="-0.055932203"
       y="-0.056446209"
       filterUnits="objectBoundingBox"><feOffset
         dy="3"
         in="SourceAlpha"
         result="shadowOffsetOuter1"
         id="feOffset935" /><feGaussianBlur
         in="shadowOffsetOuter1"
         result="shadowBlurOuter1"
         stdDeviation="1.5"
         id="feGaussianBlur937" /><feComposite
         in="shadowBlurOuter1"
         in2="SourceAlpha"
         operator="out"
         result="shadowBlurOuter1"
         id="feComposite939" /><feColorMatrix
         in="shadowBlurOuter1"
         values="0 0 0 0 0   0 0 0 0 0   0 0 0 0 0  0 0 0 0.2 0"
         id="feColorMatrix941" /></filter><radialGradient
       id="preference-system-g"
       cx="53.63327"
       cy="53.633792"
       r="54.054831"
       fx="53.63327"
       fy="53.633792"
       gradientTransform="matrix(0.86604783,0.50001293,-0.49998709,0.86600301,34.001885,-19.631948)"
       gradientUnits="userSpaceOnUse"><stop
         offset="0%"
         stop-color="#E2E5ED"
         id="stop944" /><stop
         offset="48.405%"
         stop-color="#9DA3B5"
         id="stop946" /><stop
         offset="100%"
         stop-color="#E7ECFF"
         id="stop948" /></radialGradient></defs><sodipodi:namedview
     id="base"
     pagecolor="#ffffff"
     bordercolor="#666666"
     borderopacity="1.0"
     inkscape:pageopacity="0.0"
     inkscape:pageshadow="2"
     inkscape:zoom="1.4142136"
     inkscape:cx="35.708892"
     inkscape:cy="83.792154"
     inkscape:document-units="px"
     inkscape:current-layer="g965"
     showgrid="false"
     fit-margin-top="0"
     fit-margin-left="0"
     fit-margin-right="0"
     fit-margin-bottom="0"
     units="px"
     inkscape:window-width="1366"
     inkscape:window-height="706"
     inkscape:window-x="0"
     inkscape:window-y="0"
     inkscape:window-maximized="1"
     inkscape:showpageshadow="2"
     inkscape:pagecheckerboard="0"
     inkscape:deskcolor="#d1d1d1" /><metadata
     id="metadata4178"><rdf:RDF><cc:Work
         rdf:about=""><dc:format>image/svg+xml</dc:format><dc:type
           rdf:resource="http://purl.org/dc/dcmitype/StillImage" /><dc:title /></cc:Work></rdf:RDF></metadata><g
     inkscape:label="Layer 1"
     inkscape:groupmode="layer"
     id="layer1"
     transform="translate(-390.28571,-642.6479)"><g
       id="g3364"><g
         id="g3356"><g
           fill="none"
           fill-rule="evenodd"
           filter="url(#preference-system-a)"
           transform="matrix(0.96696534,0,0,0.94465712,397.33486,649.46227)"
           id="g967"><ellipse
             cx="58.896473"
             cy="60.535862"
             fill="url(#preference-system-b)"
             id="circle953"
             style="mix-blend-mode:normal;fill:#0084e2;fill-opacity:1;stroke-width:1.11725"
             rx="65.152283"
             ry="66.690865" /><use
             fill="#000000"
             fill-opacity="0.5"
             xlink:href="#preference-system-c"
             id="use955"
             transform="matrix(1.104276,0,0,1.1303537,-6.2558046,-6.1550048)"
             style="mix-blend-mode:normal" /><use
             fill="#000000"
             filter="url(#preference-system-d)"
             xlink:href="#preference-system-c"
             id="use957"
             transform="matrix(1.104276,0,0,1.1303537,-6.2558046,-6.1550048)"
             style="mix-blend-mode:normal;filter:url(#preference-system-d)" /><g
             transform="matrix(1.104276,0,0,1.1303537,-0.33246822,-0.09178771)"
             id="g965"
             style="mix-blend-mode:normal"><use
               fill="#000000"
               filter="url(#preference-system-e)"
               xlink:href="#preference-system-f"
               id="use959" /><path
               fill="#585f6c"
               stroke="#ffffff"
               stroke-linejoin="square"
               stroke-opacity="0.1"
               d="m 57.823121,22.000037 -1.497937,4.047081 -0.380087,-0.03328 c -0.764552,-0.06695 -1.534591,-0.100616 -2.308733,-0.100616 -0.774143,0 -1.544182,0.03367 -2.308733,0.100616 l -0.380087,0.03328 -1.497938,-4.047081 c -1.675385,0.221153 -3.321964,0.574864 -4.927908,1.056449 l 0.388856,4.345741 -0.358401,0.132755 c -1.463776,0.542193 -2.875333,1.214778 -4.219585,2.008803 l -0.328278,0.193908 -3.247741,-3.14555 c -1.401759,0.884262 -2.732536,1.87741 -3.979791,2.969356 l 2.359555,3.99238 -0.268576,0.274042 c -1.125318,1.148222 -2.146609,2.397121 -3.050164,3.730716 l -0.211809,0.312617 -4.662126,-1.536549 c -0.869601,1.356708 -1.634736,2.778043 -2.287893,4.252254 l 4.178994,2.789776 -0.12798,0.365799 c -0.55175,1.57703 -0.95657,3.207415 -1.207435,4.87431 l -0.05572,0.370255 -5.275432,0.721339 c -0.142014,1.221377 -0.213624,2.45583 -0.213624,3.699284 0,0.319602 0.0047,0.638636 0.01418,0.957036 l 5.330309,0.728046 0.04015,0.391135 c 0.179275,1.746528 0.526037,3.459188 1.033238,5.119652 l 0.108586,0.355487 -4.682203,3.126331 c 0.506456,1.415075 1.113186,2.790467 1.814899,4.116805 l 5.335343,-1.757359 0.206835,0.337357 c 0.940561,1.534099 2.032527,2.968872 3.257542,4.281756 l 0.255155,0.273456 -2.932815,4.96362 c 1.057501,1.011929 2.183616,1.950011 3.369891,2.806878 l 4.108194,-3.980312 0.333165,0.212842 c 1.543404,0.986004 3.184078,1.808135 4.897633,2.451451 l 0.356173,0.133717 -0.515416,5.761464 c 1.375405,0.424261 2.781541,0.754523 4.21083,0.987679 l 2.000578,-5.404819 0.386199,0.04045 c 0.910299,0.09534 1.828877,0.143363 2.753359,0.143363 0.924481,0 1.843059,-0.04802 2.753358,-0.143363 l 0.386131,-0.04044 2.001573,5.404661 c 1.428777,-0.233116 2.834416,-0.56327 4.209346,-0.987356 l -0.51482,-5.76165 0.356134,-0.133703 c 1.713555,-0.643316 3.354229,-1.465447 4.897633,-2.451451 l 0.333143,-0.212829 4.108493,3.980099 c 1.186174,-0.856813 2.312195,-1.794827 3.369614,-2.806678 l -2.932815,-4.96362 0.255155,-0.273456 c 1.225015,-1.312884 2.316981,-2.747657 3.257542,-4.281756 l 0.206835,-0.337357 5.335343,1.757359 c 0.701866,-1.326626 1.308707,-2.702329 1.81523,-4.117728 l -4.682554,-3.125341 0.108607,-0.355554 c 0.5072,-1.660464 0.853962,-3.373124 1.033237,-5.119652 l 0.04015,-0.391135 5.330309,-0.728046 c 0.0094,-0.3184 0.01417,-0.637434 0.01417,-0.957036 0,-1.243454 -0.07161,-2.477907 -0.213624,-3.699284 l -5.275432,-0.721339 -0.05572,-0.370255 c -0.250865,-1.666895 -0.655685,-3.29728 -1.207434,-4.87431 l -0.127981,-0.365799 4.178994,-2.789776 c -0.653165,-1.474214 -1.4183,-2.895549 -2.287901,-4.252257 l -4.662126,1.536549 -0.211808,-0.312617 C 74.5516,36.225042 73.530308,34.976143 72.40499,33.827921 l -0.268537,-0.274002 2.359052,-3.992826 c -1.24712,-1.091786 -2.577741,-2.084798 -3.979327,-2.96895 l -3.247741,3.14555 -0.328277,-0.193908 c -1.344253,-0.794025 -2.75581,-1.46661 -4.219586,-2.008803 l -0.358314,-0.132723 0.387863,-4.346045 c -1.605658,-0.481446 -3.251932,-0.835066 -4.927002,-1.056177 z m -4.186757,8.703013 c 12.12516,0 21.954545,9.829385 21.954545,21.954546 0,12.125161 -9.829385,21.954545 -21.954545,21.954545 -12.125161,0 -21.954546,-9.829384 -21.954546,-21.954545 0,-12.125161 9.829385,-21.954546 21.954546,-21.954546 z"
               id="path961" /><path
               fill="url(#preference-system-g)"
               stroke="#ffffff"
               stroke-opacity="0.3"
               d="m 88.730092,12.605733 c -0.817031,-0.756335 -2.072483,-0.776171 -2.913,-0.04603 l -5.078221,4.411387 c -1.070658,0.930068 -2.627607,1.039255 -3.817599,0.267725 -0.674189,-0.437117 -1.232892,-0.783552 -1.674927,-1.038761 -0.442036,-0.25521 -1.021413,-0.565834 -1.73706,-0.931151 -1.263169,-0.644801 -1.947087,-2.047761 -1.676939,-3.440011 l 1.28126,-6.6035494 C 73.325673,4.1323662 72.680769,3.0550308 71.617249,2.7256287 L 68.320811,1.7046302 C 67.262092,1.3767155 66.12574,1.8946673 65.678766,2.9088816 L 62.904702,9.2034264 C 62.36014,10.439075 61.094953,11.196421 59.748621,11.092667 l -4.284917,-0.33021 C 54.10817,10.657995 52.968769,9.7038043 52.627958,8.3876609 L 50.9287,1.8254913 C 50.649053,0.74555277 49.599806,0.05050939 48.496329,0.21423635 L 45.06605,0.72319921 C 43.974332,0.88518054 43.175507,1.8369038 43.205242,2.9401734 l 0.183525,6.809312 c 0.0364,1.3505616 -0.784082,2.5768496 -2.046367,3.0584906 l -4.279891,1.633049 c -1.258111,0.480049 -2.682182,0.116136 -3.555742,-0.908649 L 29.115964,8.3814644 C 28.399029,7.5404182 27.166468,7.3682515 26.246513,7.9806618 L 23.367456,9.8972331 C 22.44273,10.512818 22.12817,11.724925 22.636852,12.712502 l 3.054723,5.930555 c 0.623162,1.209833 0.407907,2.682043 -0.53555,3.662817 l -3.433004,3.568789 c -0.91978,0.95616 -2.336315,1.241238 -3.554365,0.715316 l -6.322728,-2.72999 C 10.864237,23.43612 9.7200193,23.786166 9.1435071,24.686732 l -1.5187673,2.372456 c -0.028243,0.04412 -0.054886,0.08924 -0.079881,0.135272 l -0.6637592,1.222508 c -0.2886416,0.531619 -0.1425552,1.194574 0.3427944,1.55564 l 6.0038467,4.466423 c 1.107724,0.824067 1.55761,2.268473 1.113747,3.575807 l -1.697483,4.999706 c -0.420237,1.237753 -1.554722,2.092565 -2.8603656,2.155229 l -6.9444187,0.3333 c -1.0795357,0.05181 -1.95844794,0.886151 -2.06632576,1.961532 l -0.32358268,3.225632 c -0.11333222,1.129753 0.65875644,2.15759 1.77536404,2.36344 l 6.4123853,1.182139 c 1.3670394,0.252016 2.4122404,1.362293 2.5813344,2.742043 l 0.668302,5.453165 c 0.159084,1.29808 -0.492311,2.5613 -1.642097,3.184444 L 4.0664863,68.96379 c -0.9518745,0.515883 -1.381455,1.651766 -1.009176,2.668432 l 1.0588138,2.891538 c 0.3908554,1.067395 1.5357402,1.655864 2.6311979,1.352432 l 6.384965,-1.768583 c 1.33405,-0.369521 2.753941,0.165885 3.511869,1.324238 l 3.066206,4.68613 c 0.725858,1.109342 0.687827,2.552489 -0.09545,3.62206 l -4.128499,5.637477 c -0.650306,0.887996 -0.537379,2.121312 0.263378,2.876438 l 2.158803,2.035797 c 0.815617,0.769144 2.081393,0.794995 2.927734,0.05979 l 5.070278,-4.404484 c 1.074076,-0.933037 2.637023,-1.039631 3.827831,-0.261061 l 2.138907,1.398451 c 0.06752,0.04418 0.137441,0.08455 0.209456,0.120929 l 2.280547,1.153122 c 1.269667,0.641983 1.958826,2.048835 1.687831,3.44553 l -1.279257,6.593227 c -0.213538,1.10056 0.441737,2.18383 1.515644,2.5056 l 2.842453,0.85168 c 1.054337,0.31592 2.178883,-0.20295 2.622758,-1.21013 l 2.817949,-6.394118 c 0.534636,-1.213126 1.765423,-1.967636 3.08907,-1.893695 l 5.591411,0.312347 c 1.382127,0.07721 2.555747,1.039168 2.902758,2.379249 l 1.660845,6.413837 c 0.284948,1.10041 1.36702,1.79767 2.486838,1.60246 l 3.033555,-0.5288 c 1.066597,-0.18594 1.83551,-1.1259 1.806341,-2.20819 l -0.189325,-7.024568 c -0.03524,-1.307316 0.733048,-2.503051 1.936759,-3.014321 l 5.056732,-2.147815 c 1.279447,-0.543437 2.763574,-0.193403 3.665346,0.86448 l 4.229955,4.962218 c 0.736576,0.864086 2.012757,1.018818 2.934478,0.355789 l 2.631693,-1.893045 c 0.877372,-0.631113 1.160466,-1.809447 0.665569,-2.770259 l -3.18356,-6.18069 c -0.598553,-1.162053 -0.425506,-2.571951 0.4363,-3.554764 l 3.481131,-3.969916 c 0.910254,-1.038064 2.386089,-1.370654 3.653614,-0.82337 l 6.869961,2.966272 c 0.55537,0.239791 1.202546,0.03483 1.518622,-0.48095 l 0.726825,-1.186098 c 0.02705,-0.04485 0.05312,-0.0903 0.07681,-0.137043 l 1.295218,-2.501523 c 0.49165,-0.949561 0.2227,-2.115502 -0.63523,-2.753734 l -5.525603,-4.110648 c -1.064485,-0.791901 -1.525869,-2.161195 -1.1577,-3.435828 l 1.37416,-4.757463 c 0.377647,-1.307446 1.544991,-2.229967 2.904318,-2.295209 l 6.663375,-0.31981 c 1.10961,-0.05326 2.00205,-0.931725 2.07279,-2.040357 l 0.22027,-3.451622 c 0.0704,-1.102905 -0.69499,-2.084254 -1.78183,-2.284615 L 98.425998,51.01351 c -1.324269,-0.244132 -2.351461,-1.295459 -2.564783,-2.625038 l -0.725684,-4.523019 c -0.214029,-1.333991 0.437727,-2.657693 1.625547,-3.301451 l 5.988802,-3.245719 c 0.97032,-0.525883 1.39513,-1.693548 0.98955,-2.719994 l -1.27395,-3.22495 c -0.40995,-1.037503 -1.53649,-1.598655 -2.611572,-1.300868 l -6.532635,1.809485 C 92.011054,32.244877 90.615,31.735222 89.846766,30.613527 l -2.428429,-3.545742 c -0.763019,-1.114081 -0.739732,-2.588438 0.05809,-3.677867 l 4.064204,-5.549683 c 0.654849,-0.894197 0.535232,-2.137283 -0.27811,-2.890203 z M 44.077338,54.797947 c -10e-7,10.255353 -5.701045,19.50042 -14.614344,24.190749 l -0.322225,0.169559 -0.260273,-0.254631 C 17.431131,67.70243 14.886626,50.022103 23.008348,35.954869 c 1.244825,-2.1561 2.69606,-4.155008 4.332477,-5.977254 l 0.243656,-0.271325 0.332797,0.149105 c 9.750679,4.368719 16.160062,14.070709 16.160062,24.94255 z m 43.01062,9.219409 0.297806,0.215309 -0.116582,0.348504 -0.158483,0.473721 c -0.739281,2.159907 -1.691234,4.255297 -2.850736,6.263614 C 76.138332,85.385581 59.554556,92.022337 44.12992,87.707949 l -0.350634,-0.09808 -0.0143,-0.363813 C 43.369524,77.181508 48.525268,67.621567 57.406883,62.493763 66.822326,57.057755 78.42964,57.757488 87.087958,64.017356 Z M 56.567947,48.555342 c 2.804534,1.619199 3.765437,5.205342 2.146239,8.009877 -1.619199,2.804534 -5.205342,3.765438 -8.009876,2.146239 -2.804534,-1.619198 -3.765438,-5.205341 -2.14624,-8.009875 1.619199,-2.804534 5.205343,-3.765439 8.009877,-2.146241 z M 71.315975,23.010879 c 8.279661,4.780264 14.13072,12.560455 16.516708,21.623157 l 0.0849,0.322471 -0.265084,0.202303 C 78.957921,51.794215 67.041622,52.66475 57.406883,47.102131 47.77234,41.539625 42.567881,30.784657 43.966628,19.938101 l 0.04265,-0.330693 0.321682,-0.08774 c 9.041519,-2.466042 18.705001,-1.289263 26.98502,3.491208 z"
               id="path963"
               style="fill:url(#preference-system-g)" /></g></g></g></g></g></svg>
