<?xml version="1.0" encoding="UTF-8" standalone="no"?>
<!-- Created with Inkscape (http://www.inkscape.org/) -->

<svg
   width="128"
   height="128"
   viewBox="0 0 128 127.99999"
   id="svg4173"
   version="1.1"
   inkscape:version="1.2.2 (b0a8486541, 2022-12-01)"
   sodipodi:docname="ob-cc.svg"
   xml:space="preserve"
   xmlns:inkscape="http://www.inkscape.org/namespaces/inkscape"
   xmlns:sodipodi="http://sodipodi.sourceforge.net/DTD/sodipodi-0.dtd"
   xmlns:xlink="http://www.w3.org/1999/xlink"
   xmlns="http://www.w3.org/2000/svg"
   xmlns:svg="http://www.w3.org/2000/svg"
   xmlns:rdf="http://www.w3.org/1999/02/22-rdf-syntax-ns#"
   xmlns:cc="http://creativecommons.org/ns#"
   xmlns:dc="http://purl.org/dc/elements/1.1/"><defs
     id="defs4175"><filter
       id="preference-system-a"
       width="1.1087836"
       height="1.1210342"
       x="-0.0543918"
       y="-0.053136962"
       filterUnits="objectBoundingBox"><feOffset
         dy="2"
         in="SourceAlpha"
         result="shadowOffsetOuter1"
         id="feOffset904" /><feGaussianBlur
         in="shadowOffsetOuter1"
         result="shadowBlurOuter1"
         stdDeviation="3"
         id="feGaussianBlur906" /><feComposite
         in="shadowBlurOuter1"
         in2="SourceAlpha"
         operator="out"
         result="shadowBlurOuter1"
         id="feComposite908" /><feColorMatrix
         in="shadowBlurOuter1"
         result="shadowMatrixOuter1"
         values="0 0 0 0 0   0 0 0 0 0   0 0 0 0 0  0 0 0 0.2 0"
         id="feColorMatrix910" /><feMerge
         id="feMerge916"><feMergeNode
           in="shadowMatrixOuter1"
           id="feMergeNode912" /><feMergeNode
           in="SourceGraphic"
           id="feMergeNode914" /></feMerge></filter><linearGradient
       id="preference-system-b"
       x1="62.189539"
       x2="56.57392"
       y1="121.90462"
       y2="0"
       gradientUnits="userSpaceOnUse"><stop
         offset="0.01926"
         stop-color="#410DD9"
         id="stop919"
         style="stop-color:#b098f9;stop-opacity:1;" /><stop
         offset="100%"
         stop-color="#2F54F8"
         id="stop921" /></linearGradient><circle
       id="preference-system-c"
       cx="59"
       cy="59"
       r="37.545" /><filter
       id="preference-system-d"
       width="1.0000943"
       height="1.0400464"
       x="-4.7146639e-05"
       y="-4.7146639e-05"
       filterUnits="objectBoundingBox"><feGaussianBlur
         in="SourceAlpha"
         result="shadowBlurInner1"
         stdDeviation="0.0014751004"
         id="feGaussianBlur925" /><feOffset
         dy="3"
         in="shadowBlurInner1"
         result="shadowOffsetInner1"
         id="feOffset927" /><feComposite
         in="shadowOffsetInner1"
         in2="SourceAlpha"
         k2="-1"
         k3="1"
         operator="arithmetic"
         result="shadowInnerInner1"
         id="feComposite929" /><feColorMatrix
         in="shadowInnerInner1"
         values="0 0 0 0 0   0 0 0 0 0   0 0 0 0 0  0 0 0 0.5 0"
         id="feColorMatrix931" /></filter><path
       id="preference-system-f"
       d="M57.4918968,21.4544805 C59.4842545,21.6923539 61.4207106,22.1122538 63.2841612,22.6970763 L62.8942462,27.0661129 C64.394629,27.6218655 65.832551,28.3088297 67.1944517,29.113279 L70.4488119,25.9613186 C72.1177959,26.9858474 73.6861691,28.1583401 75.1356669,29.460532 L72.7620869,33.4779475 C73.9064244,34.6455759 74.9471343,35.9174236 75.8690921,37.2781806 L80.5385207,35.7392244 C81.5816392,37.3242711 82.4884412,39.0069996 83.2422448,40.7707279 L79.0379176,43.5774153 C79.5949893,45.1696577 80.0100958,46.8298606 80.2678352,48.5424332 L85.5540397,49.2652459 C85.7283214,50.6214572 85.8181818,52.0040956 85.8181818,53.4077221 C85.8181818,53.875287 85.8082106,54.3405231 85.7884691,54.8032292 L80.4309358,55.5349935 C80.2466102,57.330728 79.8901328,59.0746843 79.3785007,60.7496572 L84.0745205,63.8839858 C83.4856497,65.5952629 82.7565288,67.2412787 81.9008883,68.808303 L76.5431141,67.0435548 C75.5825367,68.6103018 74.4694632,70.0712248 73.2248846,71.4050757 L76.1679045,76.3859663 C74.9138619,77.6157807 73.5595795,78.7437502 72.1184459,79.7564865 L67.994902,75.7618077 C66.432337,76.7600527 64.7613346,77.6001832 63.0038234,78.2600016 L63.5205656,84.0431649 C61.8839346,84.5708067 60.1900488,84.9709411 58.4506125,85.2318635 L56.441807,79.8076737 C55.5196714,79.9042572 54.5837281,79.9537568 53.6363636,79.9537568 C52.6889991,79.9537568 51.7530559,79.9042572 50.8309203,79.8076737 L48.8231164,85.2320137 C47.0831168,84.9710629 45.388694,84.5708105 43.7515635,84.042972 L44.2689039,78.2600016 C42.5113927,77.6001832 40.8403903,76.7600527 39.2778252,75.7618077 L35.1545832,79.7566986 C33.7133368,78.7439077 32.358953,77.6158665 31.1048227,76.3859663 L34.0478427,71.4050757 C32.803264,70.0712248 31.6901906,68.6103018 30.7296132,67.0435548 L25.371839,68.808303 C24.5163649,67.2415836 23.7873613,65.5959033 23.1985505,63.8849846 L27.8942266,60.7496572 C27.3825945,59.0746843 27.0261171,57.330728 26.8417915,55.5349935 L21.4842581,54.8032292 C21.4645167,54.3405231 21.4545455,53.875287 21.4545455,53.4077221 C21.4545455,52.0040956 21.5444058,50.6214572 21.7186876,49.2652459 L27.0048921,48.5424332 C27.2626314,46.8298606 27.6777379,45.1696577 28.2348097,43.5774153 L24.0304825,40.7707279 C24.7842861,39.0069996 25.6910881,37.3242711 26.7342066,35.7392244 L31.4036351,37.2781806 C32.325593,35.9174236 33.3663029,34.6455759 34.5106404,33.4779475 L32.1365567,29.4609845 C33.5861948,28.1586117 35.1547381,26.985966 36.8239153,25.9613186 L40.0782755,29.113279 C41.4401763,28.3088297 42.8780983,27.6218655 44.378481,27.0661129 L43.9875678,22.6973896 C45.8513251,22.1124038 47.788117,21.6923964 49.7808304,21.4544805 L51.2840168,25.5157432 C52.0592069,25.4478664 52.8437883,25.4132208 53.6363636,25.4132208 C54.428939,25.4132208 55.2135204,25.4478664 55.9887105,25.5157432 Z M53.6363636,31.2030504 C41.7873454,31.2030504 32.1818182,40.8085776 32.1818182,52.6575958 C32.1818182,64.5066141 41.7873454,74.1121413 53.6363636,74.1121413 C65.4853819,74.1121413 75.0909091,64.5066141 75.0909091,52.6575958 C75.0909091,40.8085776 65.4853819,31.2030504 53.6363636,31.2030504 Z" /><filter
       id="preference-system-e"
       width="1.1118644"
       height="1.1599309"
       x="-0.055932203"
       y="-0.056446209"
       filterUnits="objectBoundingBox"><feOffset
         dy="3"
         in="SourceAlpha"
         result="shadowOffsetOuter1"
         id="feOffset935" /><feGaussianBlur
         in="shadowOffsetOuter1"
         result="shadowBlurOuter1"
         stdDeviation="1.5"
         id="feGaussianBlur937" /><feComposite
         in="shadowBlurOuter1"
         in2="SourceAlpha"
         operator="out"
         result="shadowBlurOuter1"
         id="feComposite939" /><feColorMatrix
         in="shadowBlurOuter1"
         values="0 0 0 0 0   0 0 0 0 0   0 0 0 0 0  0 0 0 0.2 0"
         id="feColorMatrix941" /></filter><radialGradient
       id="preference-system-g"
       cx="53.63327"
       cy="53.633792"
       r="54.054831"
       fx="53.63327"
       fy="53.633792"
       gradientTransform="matrix(0.75988201,0.44221259,-0.43869539,0.76589499,36.393462,-11.124539)"
       gradientUnits="userSpaceOnUse"><stop
         offset="0"
         stop-color="#E2E5ED"
         id="stop944"
         style="stop-color:#bbd6ff;stop-opacity:1;" /><stop
         offset="0.48405001"
         stop-color="#9DA3B5"
         id="stop946"
         style="stop-color:#ffffff;stop-opacity:1;" /><stop
         offset="1"
         stop-color="#E7ECFF"
         id="stop948"
         style="stop-color:#ffffff;stop-opacity:1;" /></radialGradient><linearGradient
       id="linearGradient4290"
       inkscape:collect="always"><stop
         id="stop4292"
         offset="0"
         style="stop-color:#7cbaf8;stop-opacity:1" /><stop
         id="stop4294"
         offset="1"
         style="stop-color:#f4fcff;stop-opacity:1" /></linearGradient><linearGradient
       inkscape:collect="always"
       xlink:href="#linearGradient4290"
       id="linearGradient4194"
       x1="398.57144"
       y1="535.79797"
       x2="398.57144"
       y2="527.79797"
       gradientUnits="userSpaceOnUse" /><linearGradient
       id="linearGradient4226"
       inkscape:collect="always"><stop
         id="stop4228"
         offset="0"
         style="stop-color:#00a6ff;stop-opacity:1;" /><stop
         id="stop4230"
         offset="1"
         style="stop-color:#0a488a;stop-opacity:1;" /></linearGradient><linearGradient
       inkscape:collect="always"
       xlink:href="#linearGradient4226"
       id="linearGradient4182"
       x1="471.02191"
       y1="549.16937"
       x2="471.02191"
       y2="472.15982"
       gradientUnits="userSpaceOnUse"
       gradientTransform="matrix(0.40254703,0,0,0.40254703,-172.38624,-189.06651)" /><linearGradient
       id="a"
       x1="7.9369998"
       x2="7.9369998"
       y1="15.081"
       y2="1.852"
       gradientTransform="matrix(7.8373273,0,0,7.8373261,-12.718136,-12.655955)"
       gradientUnits="userSpaceOnUse"><stop
         stop-color="#3377f4"
         offset="0"
         id="stop2"
         style="stop-color:#3377f4;stop-opacity:1;" /><stop
         stop-color="#5194f5"
         offset="1"
         id="stop4"
         style="stop-color:#5194f5;stop-opacity:1;" /></linearGradient></defs><sodipodi:namedview
     id="base"
     pagecolor="#ffffff"
     bordercolor="#666666"
     borderopacity="1.0"
     inkscape:pageopacity="0.0"
     inkscape:pageshadow="2"
     inkscape:zoom="2.8284273"
     inkscape:cx="55.684656"
     inkscape:cy="57.452423"
     inkscape:document-units="px"
     inkscape:current-layer="g965"
     showgrid="false"
     fit-margin-top="0"
     fit-margin-left="0"
     fit-margin-right="0"
     fit-margin-bottom="0"
     units="px"
     inkscape:window-width="1360"
     inkscape:window-height="694"
     inkscape:window-x="0"
     inkscape:window-y="0"
     inkscape:window-maximized="1"
     inkscape:showpageshadow="2"
     inkscape:pagecheckerboard="0"
     inkscape:deskcolor="#d1d1d1" /><metadata
     id="metadata4178"><rdf:RDF><cc:Work
         rdf:about=""><dc:format>image/svg+xml</dc:format><dc:type
           rdf:resource="http://purl.org/dc/dcmitype/StillImage" /><dc:title /></cc:Work></rdf:RDF></metadata><g
     inkscape:label="Layer 1"
     inkscape:groupmode="layer"
     id="layer1"
     transform="translate(-390.28571,-642.6479)"><g
       id="g3364"><g
         id="g3356"><g
           fill="none"
           fill-rule="evenodd"
           filter="url(#preference-system-a)"
           transform="matrix(0.96696534,0,0,0.94465712,397.33486,649.46227)"
           id="g967"><g
             transform="matrix(1.104276,0,0,1.1303537,-0.33246822,-0.09178771)"
             id="g965"
             style="mix-blend-mode:normal"><g
               id="g4171"
               style="font-style:normal;font-variant:normal;font-weight:bold;font-stretch:normal;font-size:12.5px;line-height:125%;font-family:'Clear Sans';-inkscape-font-specification:'Clear Sans Bold';letter-spacing:0px;word-spacing:0px;fill:url(#linearGradient1440);fill-opacity:1;stroke:none;stroke-width:1px;stroke-linecap:butt;stroke-linejoin:miter;stroke-opacity:1"
               transform="matrix(0,3.2626726,-3.2626728,0,1790.3502,-1251.6661)"><path
                 style="color:#000000;font-style:normal;font-variant:normal;font-weight:bold;font-stretch:normal;font-size:12.5px;line-height:125%;font-family:'Clear Sans';-inkscape-font-specification:'Clear Sans Bold';letter-spacing:0px;word-spacing:0px;clip-rule:nonzero;display:inline;overflow:visible;visibility:visible;opacity:1;isolation:auto;mix-blend-mode:normal;color-interpolation:sRGB;color-interpolation-filters:linearRGB;solid-color:#000000;solid-opacity:1;fill:url(#linearGradient4182);fill-opacity:1;fill-rule:evenodd;stroke:none;stroke-width:1;stroke-linecap:butt;stroke-linejoin:miter;stroke-miterlimit:4;stroke-dasharray:none;stroke-dashoffset:0;stroke-opacity:1;marker:none;color-rendering:auto;image-rendering:auto;shape-rendering:auto;text-rendering:auto;enable-background:accumulate"
                 d="M 15.5,1 A 15.499994,15.499994 0 0 0 0,16.5 15.499994,15.499994 0 0 0 15.5,32 15.499994,15.499994 0 0 0 31,16.5 V 4 C 31,2.33799 29.66201,1 28,1 Z"
                 transform="translate(384.57143,515.798)"
                 id="path4174" /></g><path
               fill="url(#preference-system-g)"
               stroke="#ffffff"
               stroke-opacity="0.3"
               d="m 84.412726,17.386536 c -0.716869,-0.668898 -1.818427,-0.686448 -2.555898,-0.04067 l -4.4557,3.901442 c -0.939406,0.822555 -2.305505,0.919125 -3.34962,0.236781 -0.591545,-0.38659 -1.081755,-0.692986 -1.469602,-0.918694 -0.387855,-0.22571 -0.896197,-0.500418 -1.524124,-0.823508 -1.108317,-0.570267 -1.7084,-1.811044 -1.471357,-3.042352 l 1.124187,-5.840197 C 70.896676,9.8927093 70.330832,8.9399071 69.397686,8.6485844 L 66.505362,7.7456109 c -0.928943,-0.2900071 -1.925994,0.168075 -2.318178,1.065041 l -2.433999,5.5669151 c -0.477807,1.092811 -1.587903,1.762605 -2.769187,1.670848 l -3.75964,-0.292041 c -1.189376,-0.09238 -2.18911,-0.936273 -2.488135,-2.10028 L 51.245283,7.8525029 C 50.999912,6.8974022 50.079288,6.2827067 49.111076,6.4275104 l -3.009766,0.450126 c -0.957884,0.143253 -1.658786,0.9849583 -1.632706,1.9606932 l 0.161038,6.0221784 c 0.0319,1.194437 -0.687968,2.278971 -1.7955,2.704935 l -3.755253,1.444271 c -1.103878,0.424548 -2.353377,0.102708 -3.119848,-0.80361 l -3.852554,-4.555476 c -0.62905,-0.743824 -1.710509,-0.896094 -2.517691,-0.354474 l -2.526129,1.695019 c -0.81135,0.544428 -1.087357,1.616421 -0.641039,2.48983 l 2.680256,5.245 c 0.546767,1.069975 0.357902,2.372002 -0.469901,3.239396 l -3.012154,3.156246 c -0.807038,0.845631 -2.049924,1.097755 -3.11866,0.632628 l -5.547639,-2.41441 c -0.861352,-0.374867 -1.865313,-0.06525 -2.371141,0.73117 l -1.332585,2.09821 c -0.02472,0.03897 -0.0481,0.07884 -0.07012,0.119627 l -0.582381,1.081192 c -0.25326,0.47017 -0.125086,1.056481 0.300771,1.375812 l 5.267853,3.950111 c 0.971941,0.72881 1.366673,2.006239 0.977223,3.162454 l -1.489396,4.421747 c -0.368727,1.094678 -1.364142,1.850673 -2.509727,1.906088 l -6.0931111,0.294769 c -0.9472185,0.04581 -1.7183723,0.783711 -1.8130327,1.73479 l -0.2839134,2.852754 c -0.099444,0.999153 0.5779941,1.908177 1.5577226,2.090232 l 5.6263196,1.045496 c 1.199466,0.222877 2.116538,1.204813 2.264894,2.425065 l 0.586373,4.822787 c 0.13959,1.148027 -0.431958,2.26522 -1.440796,2.816336 l -5.420765,2.96126 c -0.8351773,0.45621 -1.2120971,1.460834 -0.8854564,2.359971 l 0.9290194,2.557278 c 0.342942,0.94401 1.347477,1.464443 2.308643,1.196091 l 5.602257,-1.564129 c 1.170508,-0.326789 2.416339,0.146701 3.081358,1.171152 l 2.690339,4.144429 c 0.636871,0.981099 0.603492,2.257424 -0.0837,3.203351 l -3.622405,4.985799 c -0.570594,0.785337 -0.471504,1.876095 0.231086,2.543923 l 1.894169,1.80047 c 0.715626,0.680214 1.826246,0.70308 2.568822,0.05308 l 4.448739,-3.895333 c 0.94241,-0.825213 2.313748,-0.919459 3.358581,-0.23085 l 1.876711,1.236794 c 0.05923,0.03958 0.120589,0.07468 0.183785,0.10692 l 2.000979,1.019824 c 1.114027,0.567809 1.718709,1.812003 1.480931,3.047237 l -1.122439,5.831058 c -0.187355,0.973346 0.387583,1.931388 1.329841,2.215959 l 2.494007,0.753208 c 0.925087,0.279445 1.911786,-0.179454 2.301253,-1.070234 l 2.472499,-5.654972 c 0.469099,-1.072888 1.548999,-1.740177 2.710387,-1.674795 l 4.905984,0.27621 c 1.212696,0.06842 2.242452,0.919047 2.546918,2.10421 l 1.45725,5.672407 c 0.25002,0.973209 1.199432,1.589869 2.181979,1.417219 l 2.661685,-0.46764 c 0.935846,-0.16443 1.6105,-0.995772 1.584909,-1.952954 L 63.54974,92.202907 c -0.03088,-1.156201 0.643199,-2.213715 1.699338,-2.665889 l 4.436842,-1.899517 c 1.12261,-0.4806 2.424811,-0.171003 3.216029,0.764547 l 3.711437,4.388589 c 0.64627,0.764192 1.766002,0.90105 2.574728,0.314637 l 2.309091,-1.674206 c 0.76982,-0.558174 1.018204,-1.600281 0.583976,-2.450022 l -2.793285,-5.466209 c -0.525184,-1.027724 -0.373342,-2.274646 0.38281,-3.143848 l 3.054391,-3.511008 c 0.798677,-0.918063 2.093582,-1.212201 3.205727,-0.72819 l 6.027796,2.623382 c 0.487309,0.212041 1.055151,0.03061 1.332473,-0.42534 l 0.637722,-1.048985 c 0.0238,-0.03959 0.04659,-0.08009 0.06745,-0.12123 l 1.136426,-2.212345 c 0.431368,-0.839789 0.195434,-1.870956 -0.557345,-2.435409 l -4.848268,-3.635468 c -0.933988,-0.70038 -1.33882,-1.911367 -1.01579,-3.038652 l 1.205702,-4.207511 c 0.331357,-1.156309 1.355602,-1.972188 2.548302,-2.029887 l 5.846534,-0.282842 c 0.973602,-0.04715 1.756634,-0.824023 1.818714,-1.804499 l 0.19325,-3.052774 c 0.0618,-0.975414 -0.609804,-1.843313 -1.563398,-2.020521 l -5.84027,-1.085241 C 91.7582,51.138558 90.85694,50.208761 90.669762,49.032878 l -0.636728,-4.000169 c -0.187768,-1.179783 0.384076,-2.350467 1.426267,-2.91981 l 5.254669,-2.870521 c 0.85137,-0.465094 1.224125,-1.497771 0.868238,-2.405568 l -1.117773,-2.85215 c -0.359676,-0.917568 -1.348133,-1.413859 -2.291439,-1.150493 l -5.731814,1.600316 c -1.149567,0.320968 -2.37449,-0.129779 -3.048553,-1.1218 L 83.261857,30.17682 c -0.669482,-0.985303 -0.649046,-2.289221 0.05104,-3.252715 l 3.565981,-4.908151 c 0.574578,-0.79083 0.469615,-1.890223 -0.244028,-2.556107 z M 45.2338,54.701429 c 0,9.069853 -5.002172,17.246211 -12.822829,21.394348 l -0.282724,0.149939 -0.228361,-0.22518 C 21.854063,66.114182 19.621467,50.47766 26.747586,38.03657 c 1.092217,-1.90686 2.365563,-3.6747 3.801372,-5.286296 l 0.213789,-0.239966 0.291997,0.131877 c 8.555378,3.863695 14.179065,12.444158 14.179065,22.059247 z m 37.738094,8.153665 0.261301,0.190422 -0.102296,0.308214 -0.139058,0.418959 c -0.64865,1.910233 -1.483904,3.763395 -2.501264,5.539554 -7.126033,12.440952 -21.676865,18.310531 -35.210641,14.49487 l -0.307656,-0.0864 -0.01258,-0.32175 c -0.346971,-8.901118 4.176744,-17.355952 11.96961,-21.890999 8.261224,-4.807611 18.445641,-4.188768 26.042563,1.347474 z M 56.193227,49.180449 c 2.460737,1.432025 3.303847,4.603615 1.883141,7.083957 -1.420716,2.480333 -4.567236,3.330164 -7.027974,1.898139 -2.460738,-1.432024 -3.303846,-4.603614 -1.88314,-7.083956 1.420706,-2.480332 4.567236,-3.330162 7.027973,-1.89814 z M 69.13334,26.588873 c 7.264696,4.227672 12.398493,11.108489 14.491988,19.123571 l 0.0745,0.285191 -0.232596,0.178911 C 75.838503,52.044924 65.38298,52.81482 56.929332,47.895229 48.47586,42.97574 43.909392,33.46402 45.136668,23.8713 l 0.03746,-0.292464 0.282252,-0.07759 c 7.933148,-2.180973 16.412026,-1.140226 23.677017,3.087634 z"
               id="path963"
               style="fill:url(#preference-system-g);stroke-width:0.880902;stroke:#0d0d0d;stroke-opacity:0" /></g></g></g></g></g></svg>
