<?xml version="1.0" encoding="UTF-8" standalone="no"?>
<svg
   id="Apps-Visual-Studio-Code"
   width="64"
   height="64"
   enable-background="new 0 0 1024 1024"
   image-rendering="optimizeSpeed"
   version="1.1"
   viewBox="0 0 64 64"
   sodipodi:docname="dash.svg"
   xml:space="preserve"
   inkscape:version="1.2.2 (b0a8486541, 2022-12-01)"
   inkscape:export-filename="dash.png"
   inkscape:export-xdpi="96"
   inkscape:export-ydpi="96"
   xmlns:inkscape="http://www.inkscape.org/namespaces/inkscape"
   xmlns:sodipodi="http://sodipodi.sourceforge.net/DTD/sodipodi-0.dtd"
   xmlns="http://www.w3.org/2000/svg"
   xmlns:svg="http://www.w3.org/2000/svg"
   xmlns:rdf="http://www.w3.org/1999/02/22-rdf-syntax-ns#"
   xmlns:cc="http://creativecommons.org/ns#"
   xmlns:dc="http://purl.org/dc/elements/1.1/"><sodipodi:namedview
     id="namedview60"
     pagecolor="#ffffff"
     bordercolor="#000000"
     borderopacity="0.25"
     inkscape:showpageshadow="2"
     inkscape:pageopacity="0.0"
     inkscape:pagecheckerboard="0"
     inkscape:deskcolor="#d1d1d1"
     showgrid="false"
     inkscape:zoom="2.0976563"
     inkscape:cx="70.078212"
     inkscape:cy="-50.294227"
     inkscape:window-width="1360"
     inkscape:window-height="694"
     inkscape:window-x="0"
     inkscape:window-y="0"
     inkscape:window-maximized="1"
     inkscape:current-layer="g795" /><metadata
     id="metadata2"><rdf:RDF><cc:Work
         rdf:about=""><dc:format>image/svg+xml</dc:format><dc:type
           rdf:resource="http://purl.org/dc/dcmitype/StillImage" /></cc:Work></rdf:RDF></metadata><defs
     id="defs37"><style
       type="text/css"
       id="style4" /><style
       type="text/css"
       id="style6" /><linearGradient
       id="linearGradient1455"
       x1="4"
       x2="60"
       y1="27"
       y2="27"
       gradientTransform="matrix(1 0 0 1.0556 0 -.5)"
       gradientUnits="userSpaceOnUse"><stop
         stop-color="#555a5f"
         offset="0"
         id="stop8" /><stop
         stop-color="#4b4f53"
         offset="1"
         id="stop10" /></linearGradient><linearGradient
       id="linearGradient17498"
       x1="4"
       x2="60"
       y1="9"
       y2="45"
       gradientTransform="matrix(.96428 0 0 1 1.1428 1)"
       gradientUnits="userSpaceOnUse"><stop
         stop-color="#3fe3e7"
         offset="0"
         id="stop13" /><stop
         stop-color="#066bbc"
         offset="1"
         id="stop15" /></linearGradient><linearGradient
       id="linearGradient29240"
       x1="32"
       x2="32"
       y1="44"
       y2="52"
       gradientTransform="matrix(.79998 0 0 1 6.4007 0)"
       gradientUnits="userSpaceOnUse"><stop
         stop-color="#818990"
         offset="0"
         id="stop18" /><stop
         stop-color="#9fa8b0"
         offset="1"
         id="stop20" /></linearGradient><radialGradient
       id="radialGradient875"
       cx="20.107"
       cy="28.705"
       r="28"
       gradientTransform="matrix(1.1841 .66866 -.52684 .93295 -69.809 -12.696)"
       gradientUnits="userSpaceOnUse"><stop
         stop-color="#5ab5e2"
         offset="0"
         id="stop23" /><stop
         stop-color="#4189ac"
         offset=".45901"
         id="stop25" /><stop
         stop-color="#295e76"
         offset="1"
         id="stop27" /></radialGradient><linearGradient
       id="linearGradient883"
       x1="4"
       x2="59.861"
       y1="31.36"
       y2="31.36"
       gradientTransform="matrix(1.0714,0,0,1.0714,-83.724,-2.2857)"
       gradientUnits="userSpaceOnUse"><stop
         stop-color="#b0d6df"
         offset="0"
         id="stop30" /><stop
         stop-color="#e1f8fc"
         offset=".21709"
         id="stop32" /><stop
         stop-color="#96c3ce"
         offset="1"
         id="stop34" /></linearGradient></defs><g
     style="fill:#000000"
     id="g361"
     transform="matrix(3.779468,0,0,3.779468,-230.22816,78.379809)"><g
       id="g483"
       style="fill:#000000"><g
         style="fill:#000000"
         id="g795"
         transform="translate(-6.2859722,-57.053822)"><path
           d="m 67.201466,38.167617 v 0.159 11.271 0.159 0.9522 0.159 h 0.151428 16.630745 0.151427 v -0.159 -12.5412 z m 0.151428,0.159 h 16.630745 v 11.271 H 67.352894 Z m 6.954238,0.4758 v 0.159 0.3174 0.159 h 2.57084 0.151428 v -0.159 -0.3174 -0.159 h -0.151428 z m 0.151428,0.159 h 2.419984 v 0.3174 H 74.45856 Z m -3.779975,2.2224 v 0.9528 h 0.907423 v -0.9528 z m 1.814274,0 v 0.9528 h 0.907422 v -0.9528 z m 1.814273,0 v 0.9528 h 0.907423 v -0.9528 z m 1.814274,0 v 0.9528 h 0.907422 v -0.9528 z m 1.814273,0 v 0.9528 h 0.907423 v -0.9528 z m 1.814274,0 v 0.9528 h 0.907422 v -0.9528 z m -9.071368,1.905 v 0.9528 h 0.907423 v -0.9528 z m 1.814274,0 v 0.9528 h 0.907422 v -0.9528 z m 1.814273,0 v 0.9528 h 0.907423 v -0.9528 z m 1.814274,0 v 0.9528 h 0.907422 v -0.9528 z m 1.814273,0 v 0.9528 h 0.907423 v -0.9528 z m 1.814274,0 v 0.9528 h 0.907422 v -0.9528 z m -9.071368,1.905 v 0.9528 h 0.907423 v -0.9528 z m 1.814274,0 v 0.9528 h 0.907422 v -0.9528 z m 1.814273,0 v 0.9528 h 0.907423 v -0.9528 z m 1.814274,0 v 0.9528 h 0.907422 v -0.9528 z m 1.814273,0 v 0.9528 h 0.907423 v -0.9528 z m 1.814274,0 v 0.9528 h 0.907422 v -0.9528 z m -9.071368,1.905 v 0.9528 h 0.907423 v -0.9528 z m 1.814274,0 v 0.9528 h 0.907422 v -0.9528 z m 1.814273,0 v 0.9528 h 0.907423 v -0.9528 z m 1.814274,0 v 0.9528 h 0.907422 v -0.9528 z m 1.814273,0 v 0.9528 h 0.907423 v -0.9528 z m 1.814274,0 v 0.9528 h 0.907422 v -0.9528 z m -11.489637,2.8578 h 15.723323 v 0.9522 H 68.260316 v -0.3174 -0.3174 z m -0.605139,0.3174 h 0.302284 v 0.3174 h -0.302284 z m 6.651955,0 v 0.3174 h 0.302284 v -0.3174 z m 0.605139,0 v 0.3174 h 0.302284 v -0.3174 z m 0.604568,0 v 0.3174 h 0.302283 v -0.3174 z m 0.605138,0 v 0.3174 h 0.302284 v -0.3174 z m 0.604568,0 v 0.3174 h 0.302283 v -0.3174 z m 4.838253,0.1584 v 0.159 h 2.267985 v -0.159 z"
           fill-opacity="0.85"
           id="path786"
           style="fill:#000000;stroke-width:0.585538"
           sodipodi:nodetypes="ccccccccccccccccccccccccccccccccccccccccccccccccccccccccccccccccccccccccccccccccccccccccccccccccccccccccccccccccccccccccccccccccccccccccccccccccccccccccccccccccccccccccccccccccccccccccccccccccccc" /></g></g></g></svg>
