<?xml version="1.0" encoding="UTF-8" standalone="no"?>
<svg
   id="Apps-Visual-Studio-Code"
   width="64"
   height="64"
   enable-background="new 0 0 1024 1024"
   image-rendering="optimizeSpeed"
   version="1.1"
   viewBox="0 0 64 64"
   sodipodi:docname="kicker.svg"
   xml:space="preserve"
   inkscape:version="1.2.2 (b0a8486541, 2022-12-01)"
   inkscape:export-filename="kicker.png"
   inkscape:export-xdpi="96"
   inkscape:export-ydpi="96"
   xmlns:inkscape="http://www.inkscape.org/namespaces/inkscape"
   xmlns:sodipodi="http://sodipodi.sourceforge.net/DTD/sodipodi-0.dtd"
   xmlns="http://www.w3.org/2000/svg"
   xmlns:svg="http://www.w3.org/2000/svg"
   xmlns:rdf="http://www.w3.org/1999/02/22-rdf-syntax-ns#"
   xmlns:cc="http://creativecommons.org/ns#"
   xmlns:dc="http://purl.org/dc/elements/1.1/"><sodipodi:namedview
     id="namedview60"
     pagecolor="#ffffff"
     bordercolor="#000000"
     borderopacity="0.25"
     inkscape:showpageshadow="2"
     inkscape:pageopacity="0.0"
     inkscape:pagecheckerboard="0"
     inkscape:deskcolor="#d1d1d1"
     showgrid="false"
     inkscape:zoom="2.9665339"
     inkscape:cx="-9.7757183"
     inkscape:cy="23.428015"
     inkscape:window-width="1360"
     inkscape:window-height="694"
     inkscape:window-x="0"
     inkscape:window-y="0"
     inkscape:window-maximized="1"
     inkscape:current-layer="g858" /><metadata
     id="metadata2"><rdf:RDF><cc:Work
         rdf:about=""><dc:format>image/svg+xml</dc:format><dc:type
           rdf:resource="http://purl.org/dc/dcmitype/StillImage" /></cc:Work></rdf:RDF></metadata><defs
     id="defs37"><style
       type="text/css"
       id="style4" /><style
       type="text/css"
       id="style6" /><linearGradient
       id="linearGradient1455"
       x1="4"
       x2="60"
       y1="27"
       y2="27"
       gradientTransform="matrix(1 0 0 1.0556 0 -.5)"
       gradientUnits="userSpaceOnUse"><stop
         stop-color="#555a5f"
         offset="0"
         id="stop8" /><stop
         stop-color="#4b4f53"
         offset="1"
         id="stop10" /></linearGradient><linearGradient
       id="linearGradient17498"
       x1="4"
       x2="60"
       y1="9"
       y2="45"
       gradientTransform="matrix(.96428 0 0 1 1.1428 1)"
       gradientUnits="userSpaceOnUse"><stop
         stop-color="#3fe3e7"
         offset="0"
         id="stop13" /><stop
         stop-color="#066bbc"
         offset="1"
         id="stop15" /></linearGradient><linearGradient
       id="linearGradient29240"
       x1="32"
       x2="32"
       y1="44"
       y2="52"
       gradientTransform="matrix(.79998 0 0 1 6.4007 0)"
       gradientUnits="userSpaceOnUse"><stop
         stop-color="#818990"
         offset="0"
         id="stop18" /><stop
         stop-color="#9fa8b0"
         offset="1"
         id="stop20" /></linearGradient><radialGradient
       id="radialGradient875"
       cx="20.107"
       cy="28.705"
       r="28"
       gradientTransform="matrix(1.1841 .66866 -.52684 .93295 -69.809 -12.696)"
       gradientUnits="userSpaceOnUse"><stop
         stop-color="#5ab5e2"
         offset="0"
         id="stop23" /><stop
         stop-color="#4189ac"
         offset=".45901"
         id="stop25" /><stop
         stop-color="#295e76"
         offset="1"
         id="stop27" /></radialGradient><linearGradient
       id="linearGradient883"
       x1="4"
       x2="59.861"
       y1="31.36"
       y2="31.36"
       gradientTransform="matrix(1.0714,0,0,1.0714,-83.724,-2.2857)"
       gradientUnits="userSpaceOnUse"><stop
         stop-color="#b0d6df"
         offset="0"
         id="stop30" /><stop
         stop-color="#e1f8fc"
         offset=".21709"
         id="stop32" /><stop
         stop-color="#96c3ce"
         offset="1"
         id="stop34" /></linearGradient></defs><g
     style="fill:#000000"
     id="g361"
     transform="matrix(3.779468,0,0,3.779468,-230.22816,78.379809)"><g
       id="g483"
       style="fill:#000000"><g
         style="fill:#000000"
         id="g795"
         transform="translate(-6.2859722,-57.053822)"><g
           style="fill:#000000"
           id="g858"
           transform="translate(3.1317293,11.104215)"><g
             style="fill:#909090"
             id="g922"
             transform="translate(-7.4028356,6.8676904)"><path
               d="m 99.219,0 v 0.265 19.579 0.265 0.794 0.265 h 0.265 29.369 V 20.903 0 h -29.37 z m 0.265,0.265 h 29.104 V 19.844 H 99.483 Z m 1.058,19.844 h 28.046 v 0.794 h -28.046 v -0.132 z m -0.794,0.265 h 0.265 v 0.265 h -0.265 z m 24.606,-10e-4 h 3.969 v 0.265 h -3.969 z m -11.377,0 h 4.233 v 0.265 h -4.233 z m -4.763,0 h 4.233 v 0.265 h -4.233 z m -4.762,0 h 4.233 v 0.265 h -4.233 z m -0.794,0 h 0.265 v 0.265 h -0.265 z m -0.794,0 h 0.265 v 0.265 h -0.265 z m -0.793,0 h 0.265 v 0.265 h -0.265 z m -0.53,-10.319 h 0.794 v 0.794 h -0.794 z m 1.323,0.265 h 1.852 v 0.265 h -1.852 z M 99.748,9.26 v 0.265 9.79 0.265 h 0.265 4.762 0.265 V 19.315 9.26 Z m 0.265,0.265 h 4.762 v 9.79 h -4.762 z m 0.528,1.852 h 0.794 v 0.794 h -0.794 z m 1.323,0.265 h 2.117 v 0.265 h -2.117 z m -1.323,1.058 h 0.794 v 0.794 h -0.794 z m 1.323,0.265 h 1.588 v 0.265 h -1.588 z m -1.323,1.058 h 0.794 v 0.794 h -0.794 z m 1.323,0.264 h 1.058 v 0.265 h -1.058 z m -1.323,1.059 h 0.794 v 0.794 h -0.794 z m 1.323,0.264 h 1.852 v 0.265 h -1.852 z m -1.323,1.059 h 0.794 v 0.794 h -0.794 z m 1.323,0.264 h 1.323 v 0.265 h -1.323 z m -1.323,1.059 h 0.794 v 0.794 h -0.794 z m 1.323,0.264 h 1.323 v 0.265 h -1.323 z"
               fill-opacity="0.85"
               id="path904" /><path
               d="m 33.073,0 v 0.265 18.785 0.265 1.587 0.265 h 0.265 29.104 0.265 V 20.902 0 Z m 0.265,0.265 H 62.442 V 19.05 H 33.338 Z m 0,19.05 h 29.104 v 1.587 H 33.338 Z m 24.871,0.793 h 3.969 v 0.265 h -3.969 z m -8.467,-0.264 h 0.529 v 0.529 h -0.529 z m -1.058,0 h 0.529 v 0.529 h -0.529 z m -1.059,0 h 0.529 v 0.529 h -0.529 z m -1.058,0 h 0.529 v 0.529 H 46.567 Z M 33.641629,19.579 v 0.265 0.529 0.265 h 0.794 0.265 v -0.265 -0.529 -0.265 h -0.265 z m 0.265,0.265 h 0.529 v 0.529 h -0.529 z"
               fill-opacity="0.85"
               id="path910"
               sodipodi:nodetypes="ccccccccccccccccccccccccccccccccccccccccccccccccccccccccccccccc" /></g><path
             d="M 29.451481,25.705407 V 25.389469 14.664248 14.34831 h 0.296984 9.784755 0.296981 v 0.315938 11.039967 z m 0.296984,-0.315938 H 39.53322 V 14.664248 h -9.784755 z m 0.888708,-0.946624 v -0.315938 -0.630686 -0.315938 h 7.709235 0.296984 v 0.315938 0.630686 0.315938 h -0.296984 z m 0.296984,-0.315938 h 7.413371 v -0.630686 h -7.413371 z m -0.296984,-1.892055 h 0.88983 v -0.946624 h -0.88983 z m 1.779656,0 h 0.88983 v -0.946624 h -0.88983 z m 1.77854,0 h 0.889828 v -0.946624 h -0.889828 z m 1.779654,0 h 0.88983 v -0.946624 h -0.88983 z m 1.778538,0 h 0.889831 v -0.946624 h -0.889831 z m -7.116388,-1.892055 h 0.88983 v -0.946623 h -0.88983 z m 1.779656,0 h 0.88983 v -0.946623 h -0.88983 z m 1.77854,0 h 0.889828 v -0.946623 h -0.889828 z m 1.779654,0 h 0.88983 v -0.946623 h -0.88983 z m 1.778538,0 h 0.889831 V 19.396174 H 37.753561 Z M 30.637173,18.44955 h 0.88983 v -0.946623 h -0.88983 z m 1.779656,0 h 0.88983 v -0.946623 h -0.88983 z m 1.77854,0 h 0.889828 v -0.946623 h -0.889828 z m 1.779654,0 h 0.88983 v -0.946623 h -0.88983 z m 1.778538,0 h 0.889831 v -0.946623 h -0.889831 z m -7.116388,-1.892054 h 0.88983 v -0.946624 h -0.88983 z m 1.779656,0 h 0.88983 v -0.946624 h -0.88983 z m 1.77854,0 h 0.889828 v -0.946624 h -0.889828 z m 1.779654,0 h 0.88983 v -0.946624 h -0.88983 z m 1.778538,0 h 0.889831 v -0.946624 h -0.889831 z"
             style="fill-opacity:0.85;stroke-width:0.305838"
             id="path932" /></g></g></g></g></svg>
