<?xml version="1.0" encoding="UTF-8" standalone="no"?>
<svg
   id="Apps-Visual-Studio-Code"
   width="64"
   height="64"
   enable-background="new 0 0 1024 1024"
   image-rendering="optimizeSpeed"
   version="1.1"
   viewBox="0 0 64 64"
   sodipodi:docname="menu11.svg"
   xml:space="preserve"
   inkscape:version="1.2.2 (b0a8486541, 2022-12-01)"
   inkscape:export-filename="menu11.png"
   inkscape:export-xdpi="96"
   inkscape:export-ydpi="96"
   xmlns:inkscape="http://www.inkscape.org/namespaces/inkscape"
   xmlns:sodipodi="http://sodipodi.sourceforge.net/DTD/sodipodi-0.dtd"
   xmlns="http://www.w3.org/2000/svg"
   xmlns:svg="http://www.w3.org/2000/svg"
   xmlns:rdf="http://www.w3.org/1999/02/22-rdf-syntax-ns#"
   xmlns:cc="http://creativecommons.org/ns#"
   xmlns:dc="http://purl.org/dc/elements/1.1/"><sodipodi:namedview
     id="namedview60"
     pagecolor="#ffffff"
     bordercolor="#000000"
     borderopacity="0.25"
     inkscape:showpageshadow="2"
     inkscape:pageopacity="0.0"
     inkscape:pagecheckerboard="0"
     inkscape:deskcolor="#d1d1d1"
     showgrid="false"
     inkscape:zoom="5.9330678"
     inkscape:cx="48.541498"
     inkscape:cy="38.850053"
     inkscape:window-width="1360"
     inkscape:window-height="694"
     inkscape:window-x="0"
     inkscape:window-y="0"
     inkscape:window-maximized="1"
     inkscape:current-layer="g483" /><metadata
     id="metadata2"><rdf:RDF><cc:Work
         rdf:about=""><dc:format>image/svg+xml</dc:format><dc:type
           rdf:resource="http://purl.org/dc/dcmitype/StillImage" /></cc:Work></rdf:RDF></metadata><defs
     id="defs37"><style
       type="text/css"
       id="style4" /><style
       type="text/css"
       id="style6" /><linearGradient
       id="linearGradient1455"
       x1="4"
       x2="60"
       y1="27"
       y2="27"
       gradientTransform="matrix(1 0 0 1.0556 0 -.5)"
       gradientUnits="userSpaceOnUse"><stop
         stop-color="#555a5f"
         offset="0"
         id="stop8" /><stop
         stop-color="#4b4f53"
         offset="1"
         id="stop10" /></linearGradient><linearGradient
       id="linearGradient17498"
       x1="4"
       x2="60"
       y1="9"
       y2="45"
       gradientTransform="matrix(.96428 0 0 1 1.1428 1)"
       gradientUnits="userSpaceOnUse"><stop
         stop-color="#3fe3e7"
         offset="0"
         id="stop13" /><stop
         stop-color="#066bbc"
         offset="1"
         id="stop15" /></linearGradient><linearGradient
       id="linearGradient29240"
       x1="32"
       x2="32"
       y1="44"
       y2="52"
       gradientTransform="matrix(.79998 0 0 1 6.4007 0)"
       gradientUnits="userSpaceOnUse"><stop
         stop-color="#818990"
         offset="0"
         id="stop18" /><stop
         stop-color="#9fa8b0"
         offset="1"
         id="stop20" /></linearGradient><radialGradient
       id="radialGradient875"
       cx="20.107"
       cy="28.705"
       r="28"
       gradientTransform="matrix(1.1841 .66866 -.52684 .93295 -69.809 -12.696)"
       gradientUnits="userSpaceOnUse"><stop
         stop-color="#5ab5e2"
         offset="0"
         id="stop23" /><stop
         stop-color="#4189ac"
         offset=".45901"
         id="stop25" /><stop
         stop-color="#295e76"
         offset="1"
         id="stop27" /></radialGradient><linearGradient
       id="linearGradient883"
       x1="4"
       x2="59.861"
       y1="31.36"
       y2="31.36"
       gradientTransform="matrix(1.0714,0,0,1.0714,-83.724,-2.2857)"
       gradientUnits="userSpaceOnUse"><stop
         stop-color="#b0d6df"
         offset="0"
         id="stop30" /><stop
         stop-color="#e1f8fc"
         offset=".21709"
         id="stop32" /><stop
         stop-color="#96c3ce"
         offset="1"
         id="stop34" /></linearGradient></defs><g
     style="fill:#000000"
     id="g361"
     transform="matrix(3.779468,0,0,3.779468,-230.22816,78.379809)"><g
       id="g483"
       style="fill:#000000"><g
         id="g486"
         transform="matrix(0.5714248,0,0,0.6,6.6992438,-1.1768759)"
         style="fill:#000000"><path
           d="m 94.879064,-29.515549 v 0.265 18.785 0.265 1.5870001 0.265 h 0.265 29.103996 0.265 v -0.265 -20.9020001 z m 0.265,0.265 h 29.103996 v 18.785 H 95.144064 Z m 0,19.05 h 29.103996 v 1.5870001 H 95.144064 Z m 24.870996,0.3921476 h 3.969 l 0.01,0.8480582 -3.97876,-0.027331 z m -22.15687,0.1368525 h 0.529 v 0.529 h -0.529 z m -1.058,0 h 0.529 v 0.529 h -0.529 z m -1.323,-0.265 v 0.265 0.529 0.265 h 0.794 0.265 v -0.265 -0.529 -0.265 h -0.265 z m 0.265,0.265 h 0.529 v 0.529 h -0.529 z"
           fill-opacity="0.85"
           id="path349"
           sodipodi:nodetypes="ccccccccccccccccccccccccccccccccccccccccccccccccccccc"
           style="fill:#000000" /></g><path
         d="m 67.176982,-6.7745244 h 0.578617 v 0.6195928 h -0.578617 z m 1.157247,0 h 0.578625 v 0.6195928 h -0.578625 z m 1.156524,0 h 0.578625 v 0.6195928 h -0.578625 z m 1.157249,0 h 0.578631 v 0.6195928 h -0.578631 z m 1.156524,0 h 0.578631 v 0.6195928 h -0.578631 z"
         style="fill-opacity:0.85;stroke-width:0.199526;fill:#000000"
         id="path542" /></g></g><path
     d="m 1.2849755,18.314825 v 0.90863 30.845454 0.908632 H 2.1953112 32.188303 33.098636 V 50.068909 18.318253 Z m 0.9103357,0.90863 H 32.188303 V 50.068909 H 2.1953112 Z m 0.6862523,0.999591 v 0.908631 l 0,1.429871 v 0.908632 h 27.6593415 0.910333 v -0.908632 l 0,-1.429871 v -0.908631 h -0.910333 z m 0.9103347,0.908631 H 30.544339 l 0,1.429871 H 3.7918982 Z m 1.1275482,7.164374 h 2.727571 v 2.722464 h -2.727571 z m 5.4551416,0 h 2.727572 v 2.722464 h -2.727572 z m 5.451708,0 h 2.727587 v 2.722464 h -2.727587 z m 5.455158,0 h 2.72757 v 2.722464 h -2.72757 z m 5.451706,0 h 2.72757 v 2.722464 H 26.73316 Z M 4.9194464,33.737552 h 2.727571 v 2.722464 h -2.727571 z m 5.4551416,0 h 2.727572 v 2.722464 h -2.727572 z m 5.451708,0 h 2.727587 v 2.722464 h -2.727587 z m 5.455158,0 h 2.72757 v 2.722464 h -2.72757 z m 5.451706,0 h 2.72757 v 2.722464 H 26.73316 Z M 4.9194464,43.868078 h 2.727571 v 2.722464 h -2.727571 z m 5.4551416,0 h 2.727572 v 2.722464 h -2.727572 z m 5.451708,0 h 2.727587 v 2.722464 h -2.727587 z m 5.455158,0 h 2.72757 v 2.722464 h -2.72757 z m 5.451706,0 h 2.72757 v 2.722464 h -2.72757 z"
     style="fill-opacity:0.85;stroke-width:1.5357"
     id="path624"
     sodipodi:nodetypes="cccccccccccccccccccccccccccccccccccccccccccccccccccccccccccccccccccccccccccccccccccccccccccccccccccccccccc" /></svg>
