<?xml version="1.0" encoding="UTF-8" standalone="no"?>
<!-- Created with Inkscape (http://www.inkscape.org/) -->

<svg
   version="1.1"
   id="svg2534"
   width="140"
   height="140"
   viewBox="0 0 140 140"
   xmlns="http://www.w3.org/2000/svg"
   xmlns:svg="http://www.w3.org/2000/svg">
  <defs
     id="defs2538">
    <filter
       id="filter3888-7"
       color-interpolation-filters="sRGB"
       x="-0.070615493"
       y="-0.053284489"
       width="1.1412309"
       height="1.1273832">
      <feFlood
         id="feFlood3890-5"
         flood-opacity="0.15"
         flood-color="rgb(0,0,0)"
         result="flood" />
      <feComposite
         id="feComposite3892-3"
         in2="SourceGraphic"
         in="flood"
         operator="in"
         result="composite1" />
      <feGaussianBlur
         id="feGaussianBlur3894-5"
         stdDeviation="1.6"
         result="blur" />
      <feOffset
         id="feOffset3896-6"
         dx="0"
         dy="1.5"
         result="offset" />
      <feComposite
         id="feComposite3898-2"
         in2="offset"
         in="SourceGraphic"
         operator="over"
         result="fbSourceGraphic" />
      <feColorMatrix
         result="fbSourceGraphicAlpha"
         in="fbSourceGraphic"
         values="0 0 0 -1 0 0 0 0 -1 0 0 0 0 -1 0 0 0 0 1 0"
         id="feColorMatrix3900-9" />
      <feFlood
         id="feFlood3902-1"
         flood-opacity="0.5"
         flood-color="rgb(0,0,0)"
         result="flood"
         in="fbSourceGraphic" />
      <feComposite
         id="feComposite3904-2"
         in2="fbSourceGraphic"
         in="flood"
         operator="in"
         result="composite1" />
      <feGaussianBlur
         id="feGaussianBlur3906-7"
         stdDeviation="1.6"
         result="blur" />
      <feOffset
         id="feOffset3908-0"
         dx="0"
         dy="1.5"
         result="offset" />
      <feComposite
         id="feComposite3910-9"
         in2="offset"
         in="fbSourceGraphic"
         operator="over"
         result="composite2" />
    </filter>
  </defs>
  <g
     id="g2540">
    <g
       id="layer1"
       transform="translate(-121.66511,360.49873)">
      <g
         id="g24" />
      <g
         id="layer1-6"
         transform="matrix(0.93410864,0,0,0.93000488,-119.76168,-86.578453)">
        <g
           id="layer1-3"
           transform="matrix(3.9081515,0,0,3.9436291,-1231.7562,-2198.445)">
          <rect
             id="rect4575"
             style="opacity:1;fill:#0f6dac;fill-opacity:1"
             height="28.000031"
             rx="14.00001"
             y="488.12622"
             x="386.57141"
             width="28.00001" />
          <g
             id="g362"
             transform="matrix(0.03701333,0,0,0.04181739,390.5635,490.17093)"
             style="fill:#f2f2f2;fill-opacity:1">
            <g
               style="overflow:visible;fill:#f2f2f2;fill-opacity:1;filter:url(#filter3888-7)"
               id="g3861"
               transform="matrix(6.0754966,0,0,6.1001804,-65.625525,23.387254)" />
            <g
               id="g4571-2-5-0"
               transform="matrix(1.2970658,-0.22218987,0.19470264,1.4517135,701.86045,742.29918)"
               style="clip-rule:evenodd;fill:#f2f2f2;fill-opacity:1;fill-rule:evenodd;stroke:#ffffff;stroke-linejoin:round;stroke-miterlimit:1.41421;stroke-opacity:0">
              <g
                 id="g3914-1-3-2"
                 style="mix-blend-mode:normal;fill:#f2f2f2;fill-opacity:1;stroke:#ffffff;stroke-opacity:0"
                 transform="matrix(1.1722401,-0.16856947,-6.1285058e-4,1.4013685,890.42688,-502.66385)">
                <path
                   class="cls-1"
                   d="m -995.71689,78.114226 a 37.879052,26.445532 8.1509219 0 0 6.68815,0.603161 68.058957,47.515845 8.15093 0 0 22.81736,-2.031347 89.771834,62.674848 8.1509276 0 0 20.42775,-6.97306 120.62296,84.213776 8.1509296 0 0 20.55465,-12.941459 146.9438,102.58986 8.1509238 0 0 15.02807,-15.311815 c 1.74976,-2.228314 3.40083,-4.501954 4.83487,-6.859264 0.70221,-1.154387 1.32661,-2.338841 1.92006,-3.530303 0.59392,-1.192034 1.10763,-2.409112 1.65161,-3.616599 a 9.0317102,6.3055531 8.1509273 0 0 0.29201,-0.734031 c 0.51289,-2.016763 1.2606,-3.983186 1.58024,-6.043089 a 66.15177,46.184331 8.150927 0 0 0.39649,-6.215391 55.367563,38.65526 8.1509309 0 0 -4.12,-13.84893351 75.939446,53.017663 8.1509287 0 0 -8.53058,-11.40012349 133.18955,92.987236 8.1509191 0 0 -16.85361,-14.715927 c -4.27279,-3.203243 -8.72707,-6.277493 -13.31803,-9.248384 -2.75337,-1.781453 -5.57368,-3.509304 -8.37557,-5.251264 -7.29818,-4.537198 -14.5367,-9.12169 -21.66622,-13.79596 -5.64857,-3.703157 -11.18978,-7.483578 -16.58031,-11.375224 -5.12024,-3.69663 -10.06763,-7.504206 -14.73305,-11.487967 a 138.68297,96.822502 8.1509314 0 1 -12.1233,-11.675462 85.230533,59.504307 8.1509296 0 1 -9.528,-13.575694 60.47525,42.221228 8.1509283 0 1 -3.8088,-16.07658 65.223669,45.53637 8.1509295 0 1 0.6742,-5.24559 c 0.3376,-1.63483 0.8612,-3.21952 1.4295,-4.79961 a 65.075993,45.43327 8.1509293 0 1 2.8385,-5.7197 c 0.037,-0.06 0,-0.14885 -0.015,-0.22438 a 1.7828507,1.2447101 8.15092 0 0 -0.3658,0.13377 6.0690943,4.2371815 8.1509266 0 0 -0.5739,0.42882 99.972914,69.796814 8.1509272 0 0 -9.4487,10.43532 c -1.0516,1.47932 -2.0338,2.98602 -2.8703,4.53842 a 76.57162,53.459025 8.1509255 0 0 -3.3206,7.71161 78.755906,54.984 8.150928 0 0 1.3776,25.822518 104.48412,72.946323 8.1509269 0 0 7.2298,13.807714 148.71678,103.82769 8.1509169 0 0 10.8957,13.699585 213.82117,149.28075 8.1509323 0 0 20.711,19.26811 360.24028,251.50433 8.1509245 0 0 30.72849,22.358018 c 5.16931,3.41936 10.44512,6.752199 15.75866,10.0546083 a 4.6897474,3.274181 8.1509255 0 1 0.60358,0.4834142 0.26535135,0.18525696 8.1509258 0 1 0.0125,0.1521587 c -0.008,0.021818 -0.11217,0.037891 -0.15694,0.023556 -1.18253,-0.3814875 -2.37973,-0.7387123 -3.54016,-1.1573075 -4.17591,-1.5066017 -8.31028,-3.0738053 -12.34533,-4.7962757 a 179.31591,125.19068 8.1509404 0 1 -41.1488,-23.277214 164.69002,114.97951 8.1509281 0 1 -16.9224,-14.057957 124.67956,87.045931 8.1509113 0 1 -12.18,-13.769684 77.927427,54.405591 8.1509272 0 1 -6.6438,-11.736688 c -0.5182,-1.342672 -0.9031,-2.702134 -1.3517,-4.053687 -0.086,-0.259316 -0.1784,-0.518404 -0.2824,-0.775284 -0.012,-0.02508 -0.1296,-0.04714 -0.1972,-0.05049 -0.054,-0.0024 -0.1466,0.0163 -0.1544,0.04102 -0.3113,0.996163 -0.6285,1.991081 -0.9178,2.992012 -0.1047,0.348995 -0.1047,0.720002 -0.1996,1.071363 -0.4604,1.712025 -0.7094,3.458133 -1.0032,5.198313 -0.4152,2.459351 -0.6318,4.940574 -0.7151,7.437457 a 96.945568,67.683247 8.1509272 0 0 1.7156,15.068434 78.699082,54.944327 8.1509264 0 0 6.4002,13.938504 82.594539,57.663969 8.1509259 0 0 13.1404,14.470396 120.02546,83.796628 8.150918 0 0 15.0399,10.8122549 250.36402,174.7934 8.1509246 0 0 20.99971,11.7380996 q 9.66957,4.9960092 19.34656,9.9846615 c 2.0655,1.066642 4.13731,2.12766 6.18413,3.213266 a 57.006045,39.799173 8.1509297 0 1 11.94779,8.061595 43.331374,30.252108 8.1509303 0 1 9.74467,13.906385 42.044493,29.353662 8.1509326 0 1 0.83845,10.012708 39.430322,27.528559 8.150931 0 1 -1.62416,5.710913 56.270906,39.285936 8.1509235 0 1 -4.5908,7.114439 54.458856,38.020839 8.1509261 0 1 -18.87266,12.2587 52.641797,36.752248 8.1509267 0 1 -17.70871,3.544626 c -1.81358,0.110621 -3.66025,0.0971 -5.49384,0.130359 a 4.0289371,2.812831 8.1509271 0 0 -1.5229,0.146129 z"
                   id="path5388-2-8-5-3"
                   style="clip-rule:evenodd;display:inline;fill:#f2f2f2;fill-opacity:1;stroke:#ffffff;stroke-width:1.84162;stroke-miterlimit:10;stroke-opacity:0;enable-background:new" />
                <path
                   class="cls-1"
                   d="m -997.69867,-101.49471 a 41.848467,37.718675 35.975775 0 0 1.38823,6.542946 46.199798,41.640598 35.975843 0 0 2.15935,5.596589 44.474986,40.085996 35.975805 0 0 9.58749,13.400332 68.155247,61.429385 35.975793 0 0 11.04433,9.015632 138.53591,124.86458 35.975819 0 0 16.05798,9.38717 c 5.31856,2.756166 10.72681,5.310546 16.11061,7.920338 4.70287,2.279682 9.4087,4.555749 14.07103,6.924219 a 148.52267,133.86578 35.975839 0 1 14.55387,8.271103 84.898438,76.520286 35.975797 0 1 12.23725,9.186545 56.47955,50.9059 35.975778 0 1 9.67674,10.904089 46.761782,42.147121 35.975783 0 1 5.52435,10.5427783 q 0.41608,1.1237625 0.822,2.2502211 c 0.0573,0.1577787 0.14495,0.2137183 0.30442,0.1425641 a 0.31029395,0.27967276 35.975789 0 0 0.13863,-0.1118995 c 0.10972,-0.2899959 0.22258,-0.579998 0.30694,-0.8796454 a 41.290982,37.216204 35.975789 0 1 8.12378,-13.9283116 45.78665,41.268222 35.975803 0 1 9.16059,-7.14483 33.427612,30.128829 35.975772 0 1 9.35242,-3.413823 18.777706,16.924638 35.975791 0 1 9.88515,0.686108 16.539225,14.907063 35.975829 0 1 3.69075,1.818865 0.48924123,0.44096074 35.975817 0 0 0.68548,-0.10245 7.5312504,6.7880333 35.975798 0 0 0.84185,-3.061686 5.1707746,4.6604996 35.975791 0 0 -1.75074,-3.911527 10.799001,9.7333099 35.975755 0 0 -2.69342,-1.907159 27.278415,24.586462 35.97578 0 0 -5.93504,-2.26379 69.555323,62.691297 35.975788 0 0 -9.74033,-1.939892 c -1.5321,-0.205996 -3.06644,-0.35591 -4.5995,-0.541617 -0.39969,-0.0486 -0.79815,-0.134523 -1.19696,-0.205657 a 0.9003822,0.8115285 35.975809 0 1 -0.64381,-0.465821 14.570397,13.132526 35.975804 0 1 -1.61476,-3.245198 2.993153,2.6977755 35.975819 0 1 -0.13397,-0.768812 1.0354928,0.93330575 35.97579 0 1 0.94857,-0.941197 4.5068409,4.0620858 35.975764 0 1 0.98674,0.181002 8.9484483,8.0653759 35.975808 0 1 2.39913,1.173238 42.245535,38.076557 35.97578 0 0 5.55957,3.178043 11.6157,10.46941 35.975824 0 0 3.09641,1.036329 4.087927,3.6845122 35.975803 0 0 0.79308,0.02943 0.78251596,0.70529383 35.975813 0 0 0.531,-0.670751 13.720274,12.366297 35.975846 0 0 -1.09725,-3.198761 16.906715,15.238285 35.975802 0 0 -9.95689,-9.610955 25.719256,23.181164 35.975736 0 0 -7.06983,-1.890966 41.138319,37.078609 35.975815 0 0 -6.98914,-0.378919 44.53087,40.13637 35.975821 0 0 -4.95234,0.203627 c -2.71423,0.412526 -5.47189,0.633712 -8.16819,1.138129 -2.49778,0.467135 -4.98695,0.960931 -7.45092,1.524551 -3.09623,0.708212 -6.15561,1.527539 -9.21664,2.337027 -2.18617,0.578121 -4.34861,1.219884 -6.52256,1.830976 a 1.243037,1.1203688 35.975757 0 1 -1.15268,-0.09656 61.100291,55.070643 35.975784 0 0 -10.84106,-5.977439 c -5.40145,-2.568287 -10.83449,-5.062527 -16.23561,-7.631516 -7.20485,-3.42698 -14.31681,-7.049507 -21.21096,-11.122997 a 119.99948,108.15741 35.975807 0 1 -12.4113,-8.238817 69.03986,62.226699 35.975806 0 1 -9.44573,-8.340705 39.055696,35.201506 35.975784 0 1 -8.58412,-12.79895 1.5535357,1.4002259 35.975846 0 0 -0.18358,-0.34246 c -0.0308,-0.0434 -0.12413,-0.0477 -0.24474,-0.0881 z"
                   id="path5390-7-6-7"
                   style="clip-rule:evenodd;display:inline;fill:#f2f2f2;fill-opacity:1;stroke:#ffffff;stroke-width:1.94203;stroke-miterlimit:10;stroke-opacity:0;enable-background:new" />
                <path
                   class="cls-1"
                   d="m -1103.6918,-23.695126 a 0.7571163,0.71145131 3.4150368 0 0 -0.025,0.596559 c 0.2241,0.585124 0.436,1.174809 0.6754,1.754566 a 106.25651,99.847724 3.4149763 0 0 7.2278,14.3255947 71.714857,67.389423 3.4150387 0 0 13.3912,15.9569265 56.795951,53.370342 3.4150421 0 0 15.8417,9.7777968 66.226832,62.232404 3.4150371 0 0 6.3509,2.215386 c 2.1062,0.643365 4.2791,0.993378 6.4093,1.521886 a 27.06364,25.431312 3.4150178 0 0 2.9328,0.449628 c 0.599,0.08388 1.2032,0.133538 1.8019,0.220492 a 59.412377,55.828959 3.4150308 0 0 6.412,0.501933 c 2.3658,0.100455 4.7263,0.06156 7.0887,-0.0054 a 1.3471588,1.2659056 3.4150482 0 1 0.4164,0.123288 1.7699317,1.6631794 3.4150268 0 1 -0.2899,0.361269 30.64302,28.794805 3.4150636 0 1 -12.492,5.305615 38.306347,35.995926 3.4150382 0 1 -9.0211,0.59202 c -1.6022,-0.0594 -3.1751,-0.296995 -4.7612,-0.455851 -0.2189,-0.02162 0.069,-0.041 -0.089,0.102047 a 0.1520528,0.14288181 3.415022 0 0 0,0.136793 0.7865385,0.73909893 3.4150402 0 0 0.2096,0.228765 48.286946,45.374554 3.4150416 0 0 9.4627,4.420906 40.754425,38.296348 3.4150355 0 0 7.3699,1.72197 32.859665,30.877756 3.4150048 0 0 16.1036,-1.229069 32.362699,30.410764 3.4150425 0 0 12.9164,-7.74169 34.149027,32.089349 3.4150529 0 0 7.2948,-10.921098 22.822161,21.445655 3.4150377 0 0 1.142,-3.552467 c 0.1987,-0.962117 0.4611,-1.912205 0.6744,-2.8719054 a 1.788753,1.6808655 3.4150973 0 0 -0.028,-0.6087951 c -0.019,-0.085159 -0.1286,-0.2198438 -0.1994,-0.2210386 a 9.5185418,8.9444373 3.4150431 0 0 -1.1515,0.03987 q -4.6738,0.4537839 -9.3718,0.6131621 c -2.9107,0.099083 -5.8222,0.1642591 -8.7366,0.042129 -2.0874,-0.08742 -4.1781,-0.1226359 -6.2626,-0.2560349 -1.8107,-0.115798 -3.6156,-0.3275413 -5.4214,-0.5142779 -1.2586,-0.1302534 -2.518,-0.2630842 -3.77,-0.4424341 a 63.759281,59.913682 3.4150408 0 1 -6.3336,-1.1152181 c -0.6942,-0.1678935 -1.3906,-0.3325009 -2.0943,-0.4553691 a 58.094184,54.590272 3.4150311 0 1 -6.0808,-1.4772475 97.567028,91.682343 3.4150193 0 1 -27.9468,-12.5415424 101.00073,94.908956 3.4150752 0 1 -17.0471,-14.013209 c -0.6356,-0.649495 -1.245,-1.321186 -1.8768,-1.974061 a 1.7010732,1.5984741 3.4150359 0 0 -0.7473,-0.589304 z"
                   id="path5392-0-2-5"
                   style="clip-rule:evenodd;display:inline;fill:#f2f2f2;fill-opacity:1;stroke:#ffffff;stroke-width:1.58099;stroke-miterlimit:10;stroke-opacity:0;enable-background:new" />
                <path
                   class="cls-1"
                   d="m -1117.5792,29.047663 a 1.9318712,0.86657904 7.7414014 0 0 0.1198,0.768763 105.31517,47.241201 7.7413978 0 0 7.3382,7.524765 107.78369,48.348506 7.7414006 0 0 10.4053,7.742312 74.915896,33.605007 7.7414008 0 0 6.5472,3.927005 c 2.3873,1.238821 4.7226,2.499855 7.1765,3.710141 a 95.812264,42.978487 7.7413979 0 0 35.8098,12.633077 73.419809,32.933906 7.7413995 0 0 27.6208,4.137797 64.23774,28.815109 7.7413982 0 0 21.4257,-0.4484 55.279062,24.796517 7.7413959 0 0 6.4525,-1.098133 65.969662,29.591997 7.7414015 0 0 16.37747,-5.551622 62.007658,27.814761 7.7414007 0 0 9.15689,-7.560394 75.003574,33.644336 7.7414025 0 0 3.0169,-10.66805 90.960533,40.802146 7.7413987 0 0 -6.09305,-13.949896 103.91477,46.613027 7.7413993 0 0 -11.04127,-10.739884 8.5900009,3.8532148 7.7413993 0 0 -0.90542,-0.567682 0.49421793,0.22169122 7.7414031 0 0 -0.30238,-0.0888 c -0.10904,0.05916 -0.28521,0.130613 -0.26448,0.198373 0.20363,0.536106 0.44035,1.073133 0.68374,1.610026 a 106.57062,47.80436 7.7413975 0 1 2.53108,11.320941 75.233814,33.747616 7.7413972 0 1 -4.32301,10.749759 61.862926,27.749839 7.7414013 0 1 -7.41839,5.713035 54.037281,24.239492 7.7414002 0 1 -6.11954,2.719828 59.64398,26.754488 7.7413992 0 1 -17.47094,3.596221 67.413618,30.239712 7.7413983 0 1 -30.184,-0.660956 84.569219,37.935197 7.7413988 0 1 -32.5393,-7.177181 104.64945,46.942579 7.741401 0 1 -12.3367,-4.441158 109.02064,48.903364 7.7414002 0 1 -14.033,-6.569066 121.91915,54.689242 7.7413999 0 1 -11.6308,-6.830975 z"
                   id="path5396-93-9-9"
                   style="clip-rule:evenodd;display:inline;fill:#f2f2f2;fill-opacity:1;stroke:#ffffff;stroke-width:2.29545;stroke-miterlimit:10;stroke-opacity:0;enable-background:new" />
              </g>
            </g>
          </g>
        </g>
        <g
           style="fill:none"
           id="g316"
           transform="matrix(0.53225527,0,0,0.54189444,-105.43991,3436.923)">
          <ellipse
             class="a"
             cx="825.10657"
             cy="-6745.436"
             id="circle4741-3"
             style="clip-rule:evenodd;opacity:1;fill:#ffffff;fill-opacity:0;fill-rule:evenodd;stroke:#f2f2f2;stroke-width:4.21725;stroke-linecap:round;stroke-linejoin:round;stroke-miterlimit:1.41421;stroke-opacity:1"
             rx="90.393051"
             ry="90.948677" />
        </g>
      </g>
    </g>
  </g>
</svg>
