<?xml version="1.0" encoding="UTF-8" standalone="no"?>
<!-- Created with Inkscape (http://www.inkscape.org/) -->

<svg
   version="1.1"
   id="svg2653"
   width="407.18707"
   height="67.230362"
   viewBox="0 0 407.18707 67.230362"
   xml:space="preserve"
   xmlns="http://www.w3.org/2000/svg"
   xmlns:svg="http://www.w3.org/2000/svg"><defs
     id="defs2657" /><g
     id="g2659"
     transform="translate(11.797481,-0.85331229)"><g
       id="g2968"
       transform="matrix(1,0,0,0.81178093,-102.01851,-3.3434205)"><rect
         style="opacity:0.2;stroke-width:3.25034"
         width="407.18707"
         height="81.365402"
         x="90.221031"
         y="6.6227388"
         rx="20.359354"
         ry="4.0682702"
         id="rect2947" /><rect
         style="fill:#2c9bff;stroke-width:3.25034"
         width="407.18707"
         height="81.365402"
         x="90.221031"
         y="5.169785"
         rx="20.359354"
         ry="4.0682702"
         id="rect2949" /><path
         style="opacity:0.2;fill:#ffffff;stroke-width:3.25034"
         d="m 110.58606,5.1697849 c -11.279078,0 -20.365031,1.8155835 -20.365031,4.0694053 v 1.4529538 c 0,-2.2538218 9.085953,-4.0694055 20.365031,-4.0694055 h 366.45702 c 11.27908,0 20.36503,1.8155835 20.36503,4.0694055 V 9.2391902 c 0,-2.2538216 -9.08595,-4.0694053 -20.36503,-4.0694053 z"
         id="path2955" /></g><g
       id="g4571-2-5-0"
       transform="matrix(0.09497829,-0.01867752,0.0142572,0.12203268,78.00769,72.508333)"
       style="clip-rule:evenodd;fill:#ffffff;fill-opacity:1;fill-rule:evenodd;stroke:none;stroke-linejoin:round;stroke-miterlimit:1.41421;stroke-opacity:0"><g
         id="g3914-1-3-2"
         style="mix-blend-mode:normal;fill:#ffffff;fill-opacity:1;stroke:none;stroke-opacity:0"
         transform="matrix(1.1722401,-0.16856947,-6.1285058e-4,1.4013685,890.42688,-502.66385)"><path
           class="cls-1"
           d="m -995.71689,78.114226 a 37.879052,26.445532 8.1509219 0 0 6.68815,0.603161 68.058957,47.515845 8.15093 0 0 22.81736,-2.031347 89.771834,62.674848 8.1509276 0 0 20.42775,-6.97306 120.62296,84.213776 8.1509296 0 0 20.55465,-12.941459 146.9438,102.58986 8.1509238 0 0 15.02807,-15.311815 c 1.74976,-2.228314 3.40083,-4.501954 4.83487,-6.859264 0.70221,-1.154387 1.32661,-2.338841 1.92006,-3.530303 0.59392,-1.192034 1.10763,-2.409112 1.65161,-3.616599 a 9.0317102,6.3055531 8.1509273 0 0 0.29201,-0.734031 c 0.51289,-2.016763 1.2606,-3.983186 1.58024,-6.043089 a 66.15177,46.184331 8.150927 0 0 0.39649,-6.215391 55.367563,38.65526 8.1509309 0 0 -4.12,-13.84893351 75.939446,53.017663 8.1509287 0 0 -8.53058,-11.40012349 133.18955,92.987236 8.1509191 0 0 -16.85361,-14.715927 c -4.27279,-3.203243 -8.72707,-6.277493 -13.31803,-9.248384 -2.75337,-1.781453 -5.57368,-3.509304 -8.37557,-5.251264 -7.29818,-4.537198 -14.5367,-9.12169 -21.66622,-13.79596 -5.64857,-3.703157 -11.18978,-7.483578 -16.58031,-11.375224 -5.12024,-3.69663 -10.06763,-7.504206 -14.73305,-11.487967 a 138.68297,96.822502 8.1509314 0 1 -12.1233,-11.675462 85.230533,59.504307 8.1509296 0 1 -9.528,-13.575694 60.47525,42.221228 8.1509283 0 1 -3.8088,-16.07658 65.223669,45.53637 8.1509295 0 1 0.6742,-5.24559 c 0.3376,-1.63483 0.8612,-3.21952 1.4295,-4.79961 a 65.075993,45.43327 8.1509293 0 1 2.8385,-5.7197 c 0.037,-0.06 0,-0.14885 -0.015,-0.22438 a 1.7828507,1.2447101 8.15092 0 0 -0.3658,0.13377 6.0690943,4.2371815 8.1509266 0 0 -0.5739,0.42882 99.972914,69.796814 8.1509272 0 0 -9.4487,10.43532 c -1.0516,1.47932 -2.0338,2.98602 -2.8703,4.53842 a 76.57162,53.459025 8.1509255 0 0 -3.3206,7.71161 78.755906,54.984 8.150928 0 0 1.3776,25.822518 104.48412,72.946323 8.1509269 0 0 7.2298,13.807714 148.71678,103.82769 8.1509169 0 0 10.8957,13.699585 213.82117,149.28075 8.1509323 0 0 20.711,19.26811 360.24028,251.50433 8.1509245 0 0 30.72849,22.358018 c 5.16931,3.41936 10.44512,6.752199 15.75866,10.0546083 a 4.6897474,3.274181 8.1509255 0 1 0.60358,0.4834142 0.26535135,0.18525696 8.1509258 0 1 0.0125,0.1521587 c -0.008,0.021818 -0.11217,0.037891 -0.15694,0.023556 -1.18253,-0.3814875 -2.37973,-0.7387123 -3.54016,-1.1573075 -4.17591,-1.5066017 -8.31028,-3.0738053 -12.34533,-4.7962757 a 179.31591,125.19068 8.1509404 0 1 -41.1488,-23.277214 164.69002,114.97951 8.1509281 0 1 -16.9224,-14.057957 124.67956,87.045931 8.1509113 0 1 -12.18,-13.769684 77.927427,54.405591 8.1509272 0 1 -6.6438,-11.736688 c -0.5182,-1.342672 -0.9031,-2.702134 -1.3517,-4.053687 -0.086,-0.259316 -0.1784,-0.518404 -0.2824,-0.775284 -0.012,-0.02508 -0.1296,-0.04714 -0.1972,-0.05049 -0.054,-0.0024 -0.1466,0.0163 -0.1544,0.04102 -0.3113,0.996163 -0.6285,1.991081 -0.9178,2.992012 -0.1047,0.348995 -0.1047,0.720002 -0.1996,1.071363 -0.4604,1.712025 -0.7094,3.458133 -1.0032,5.198313 -0.4152,2.459351 -0.6318,4.940574 -0.7151,7.437457 a 96.945568,67.683247 8.1509272 0 0 1.7156,15.068434 78.699082,54.944327 8.1509264 0 0 6.4002,13.938504 82.594539,57.663969 8.1509259 0 0 13.1404,14.470396 120.02546,83.796628 8.150918 0 0 15.0399,10.8122549 250.36402,174.7934 8.1509246 0 0 20.99971,11.7380996 q 9.66957,4.9960092 19.34656,9.9846615 c 2.0655,1.066642 4.13731,2.12766 6.18413,3.213266 a 57.006045,39.799173 8.1509297 0 1 11.94779,8.061595 43.331374,30.252108 8.1509303 0 1 9.74467,13.906385 42.044493,29.353662 8.1509326 0 1 0.83845,10.012708 39.430322,27.528559 8.150931 0 1 -1.62416,5.710913 56.270906,39.285936 8.1509235 0 1 -4.5908,7.114439 54.458856,38.020839 8.1509261 0 1 -18.87266,12.2587 52.641797,36.752248 8.1509267 0 1 -17.70871,3.544626 c -1.81358,0.110621 -3.66025,0.0971 -5.49384,0.130359 a 4.0289371,2.812831 8.1509271 0 0 -1.5229,0.146129 z"
           id="path5388-2-8-5-3"
           style="clip-rule:evenodd;display:inline;fill:#ffffff;fill-opacity:1;stroke:none;stroke-width:1.84162;stroke-miterlimit:10;stroke-opacity:0;enable-background:new" /><path
           class="cls-1"
           d="m -997.69867,-101.49471 a 41.848467,37.718675 35.975775 0 0 1.38823,6.542946 46.199798,41.640598 35.975843 0 0 2.15935,5.596589 44.474986,40.085996 35.975805 0 0 9.58749,13.400332 68.155247,61.429385 35.975793 0 0 11.04433,9.015632 138.53591,124.86458 35.975819 0 0 16.05798,9.38717 c 5.31856,2.756166 10.72681,5.310546 16.11061,7.920338 4.70287,2.279682 9.4087,4.555749 14.07103,6.924219 a 148.52267,133.86578 35.975839 0 1 14.55387,8.271103 84.898438,76.520286 35.975797 0 1 12.23725,9.186545 56.47955,50.9059 35.975778 0 1 9.67674,10.904089 46.761782,42.147121 35.975783 0 1 5.52435,10.5427783 q 0.41608,1.1237625 0.822,2.2502211 c 0.0573,0.1577787 0.14495,0.2137183 0.30442,0.1425641 a 0.31029395,0.27967276 35.975789 0 0 0.13863,-0.1118995 c 0.10972,-0.2899959 0.22258,-0.579998 0.30694,-0.8796454 a 41.290982,37.216204 35.975789 0 1 8.12378,-13.9283116 45.78665,41.268222 35.975803 0 1 9.16059,-7.14483 33.427612,30.128829 35.975772 0 1 9.35242,-3.413823 18.777706,16.924638 35.975791 0 1 9.88515,0.686108 16.539225,14.907063 35.975829 0 1 3.69075,1.818865 0.48924123,0.44096074 35.975817 0 0 0.68548,-0.10245 7.5312504,6.7880333 35.975798 0 0 0.84185,-3.061686 5.1707746,4.6604996 35.975791 0 0 -1.75074,-3.911527 10.799001,9.7333099 35.975755 0 0 -2.69342,-1.907159 27.278415,24.586462 35.97578 0 0 -5.93504,-2.26379 69.555323,62.691297 35.975788 0 0 -9.74033,-1.939892 c -1.5321,-0.205996 -3.06644,-0.35591 -4.5995,-0.541617 -0.39969,-0.0486 -0.79815,-0.134523 -1.19696,-0.205657 a 0.9003822,0.8115285 35.975809 0 1 -0.64381,-0.465821 14.570397,13.132526 35.975804 0 1 -1.61476,-3.245198 2.993153,2.6977755 35.975819 0 1 -0.13397,-0.768812 1.0354928,0.93330575 35.97579 0 1 0.94857,-0.941197 4.5068409,4.0620858 35.975764 0 1 0.98674,0.181002 8.9484483,8.0653759 35.975808 0 1 2.39913,1.173238 42.245535,38.076557 35.97578 0 0 5.55957,3.178043 11.6157,10.46941 35.975824 0 0 3.09641,1.036329 4.087927,3.6845122 35.975803 0 0 0.79308,0.02943 0.78251596,0.70529383 35.975813 0 0 0.531,-0.670751 13.720274,12.366297 35.975846 0 0 -1.09725,-3.198761 16.906715,15.238285 35.975802 0 0 -9.95689,-9.610955 25.719256,23.181164 35.975736 0 0 -7.06983,-1.890966 41.138319,37.078609 35.975815 0 0 -6.98914,-0.378919 44.53087,40.13637 35.975821 0 0 -4.95234,0.203627 c -2.71423,0.412526 -5.47189,0.633712 -8.16819,1.138129 -2.49778,0.467135 -4.98695,0.960931 -7.45092,1.524551 -3.09623,0.708212 -6.15561,1.527539 -9.21664,2.337027 -2.18617,0.578121 -4.34861,1.219884 -6.52256,1.830976 a 1.243037,1.1203688 35.975757 0 1 -1.15268,-0.09656 61.100291,55.070643 35.975784 0 0 -10.84106,-5.977439 c -5.40145,-2.568287 -10.83449,-5.062527 -16.23561,-7.631516 -7.20485,-3.42698 -14.31681,-7.049507 -21.21096,-11.122997 a 119.99948,108.15741 35.975807 0 1 -12.4113,-8.238817 69.03986,62.226699 35.975806 0 1 -9.44573,-8.340705 39.055696,35.201506 35.975784 0 1 -8.58412,-12.79895 1.5535357,1.4002259 35.975846 0 0 -0.18358,-0.34246 c -0.0308,-0.0434 -0.12413,-0.0477 -0.24474,-0.0881 z"
           id="path5390-7-6-7"
           style="clip-rule:evenodd;display:inline;fill:#ffffff;fill-opacity:1;stroke:none;stroke-width:1.94203;stroke-miterlimit:10;stroke-opacity:0;enable-background:new" /><path
           class="cls-1"
           d="m -1103.6918,-23.695126 a 0.7571163,0.71145131 3.4150368 0 0 -0.025,0.596559 c 0.2241,0.585124 0.436,1.174809 0.6754,1.754566 a 106.25651,99.847724 3.4149763 0 0 7.2278,14.3255947 71.714857,67.389423 3.4150387 0 0 13.3912,15.9569265 56.795951,53.370342 3.4150421 0 0 15.8417,9.7777968 66.226832,62.232404 3.4150371 0 0 6.3509,2.215386 c 2.1062,0.643365 4.2791,0.993378 6.4093,1.521886 a 27.06364,25.431312 3.4150178 0 0 2.9328,0.449628 c 0.599,0.08388 1.2032,0.133538 1.8019,0.220492 a 59.412377,55.828959 3.4150308 0 0 6.412,0.501933 c 2.3658,0.100455 4.7263,0.06156 7.0887,-0.0054 a 1.3471588,1.2659056 3.4150482 0 1 0.4164,0.123288 1.7699317,1.6631794 3.4150268 0 1 -0.2899,0.361269 30.64302,28.794805 3.4150636 0 1 -12.492,5.305615 38.306347,35.995926 3.4150382 0 1 -9.0211,0.59202 c -1.6022,-0.0594 -3.1751,-0.296995 -4.7612,-0.455851 -0.2189,-0.02162 0.069,-0.041 -0.089,0.102047 a 0.1520528,0.14288181 3.415022 0 0 0,0.136793 0.7865385,0.73909893 3.4150402 0 0 0.2096,0.228765 48.286946,45.374554 3.4150416 0 0 9.4627,4.420906 40.754425,38.296348 3.4150355 0 0 7.3699,1.72197 32.859665,30.877756 3.4150048 0 0 16.1036,-1.229069 32.362699,30.410764 3.4150425 0 0 12.9164,-7.74169 34.149027,32.089349 3.4150529 0 0 7.2948,-10.921098 22.822161,21.445655 3.4150377 0 0 1.142,-3.552467 c 0.1987,-0.962117 0.4611,-1.912205 0.6744,-2.8719054 a 1.788753,1.6808655 3.4150973 0 0 -0.028,-0.6087951 c -0.019,-0.085159 -0.1286,-0.2198438 -0.1994,-0.2210386 a 9.5185418,8.9444373 3.4150431 0 0 -1.1515,0.03987 q -4.6738,0.4537839 -9.3718,0.6131621 c -2.9107,0.099083 -5.8222,0.1642591 -8.7366,0.042129 -2.0874,-0.08742 -4.1781,-0.1226359 -6.2626,-0.2560349 -1.8107,-0.115798 -3.6156,-0.3275413 -5.4214,-0.5142779 -1.2586,-0.1302534 -2.518,-0.2630842 -3.77,-0.4424341 a 63.759281,59.913682 3.4150408 0 1 -6.3336,-1.1152181 c -0.6942,-0.1678935 -1.3906,-0.3325009 -2.0943,-0.4553691 a 58.094184,54.590272 3.4150311 0 1 -6.0808,-1.4772475 97.567028,91.682343 3.4150193 0 1 -27.9468,-12.5415424 101.00073,94.908956 3.4150752 0 1 -17.0471,-14.013209 c -0.6356,-0.649495 -1.245,-1.321186 -1.8768,-1.974061 a 1.7010732,1.5984741 3.4150359 0 0 -0.7473,-0.589304 z"
           id="path5392-0-2-5"
           style="clip-rule:evenodd;display:inline;fill:#ffffff;fill-opacity:1;stroke:none;stroke-width:1.58099;stroke-miterlimit:10;stroke-opacity:0;enable-background:new" /><path
           class="cls-1"
           d="m -1117.5792,29.047663 a 1.9318712,0.86657904 7.7414014 0 0 0.1198,0.768763 105.31517,47.241201 7.7413978 0 0 7.3382,7.524765 107.78369,48.348506 7.7414006 0 0 10.4053,7.742312 74.915896,33.605007 7.7414008 0 0 6.5472,3.927005 c 2.3873,1.238821 4.7226,2.499855 7.1765,3.710141 a 95.812264,42.978487 7.7413979 0 0 35.8098,12.633077 73.419809,32.933906 7.7413995 0 0 27.6208,4.137797 64.23774,28.815109 7.7413982 0 0 21.4257,-0.4484 55.279062,24.796517 7.7413959 0 0 6.4525,-1.098133 65.969662,29.591997 7.7414015 0 0 16.37747,-5.551622 62.007658,27.814761 7.7414007 0 0 9.15689,-7.560394 75.003574,33.644336 7.7414025 0 0 3.0169,-10.66805 90.960533,40.802146 7.7413987 0 0 -6.09305,-13.949896 103.91477,46.613027 7.7413993 0 0 -11.04127,-10.739884 8.5900009,3.8532148 7.7413993 0 0 -0.90542,-0.567682 0.49421793,0.22169122 7.7414031 0 0 -0.30238,-0.0888 c -0.10904,0.05916 -0.28521,0.130613 -0.26448,0.198373 0.20363,0.536106 0.44035,1.073133 0.68374,1.610026 a 106.57062,47.80436 7.7413975 0 1 2.53108,11.320941 75.233814,33.747616 7.7413972 0 1 -4.32301,10.749759 61.862926,27.749839 7.7414013 0 1 -7.41839,5.713035 54.037281,24.239492 7.7414002 0 1 -6.11954,2.719828 59.64398,26.754488 7.7413992 0 1 -17.47094,3.596221 67.413618,30.239712 7.7413983 0 1 -30.184,-0.660956 84.569219,37.935197 7.7413988 0 1 -32.5393,-7.177181 104.64945,46.942579 7.741401 0 1 -12.3367,-4.441158 109.02064,48.903364 7.7414002 0 1 -14.033,-6.569066 121.91915,54.689242 7.7413999 0 1 -11.6308,-6.830975 z"
           id="path5396-93-9-9"
           style="clip-rule:evenodd;display:inline;fill:#ffffff;fill-opacity:1;stroke:none;stroke-width:2.29545;stroke-miterlimit:10;stroke-opacity:0;enable-background:new" /></g></g><g
       id="g5240"
       transform="matrix(0.19780449,0,0,0.19780449,-69.017925,24.361874)"
       style="fill:#ffffff;fill-opacity:1"><path
         d="m 581.53151,178.66815 c 70.383,0 127.44,-57.057 127.44,-127.440002 0,-70.38299 -57.057,-127.439993 -127.44,-127.439993 -70.383,0 -127.44001,57.057003 -127.44001,127.439993 0,70.383002 57.05701,127.440002 127.44001,127.440002 z m 0,-10.62 c -64.518,0 -116.82,-52.302 -116.82,-116.820002 0,-64.51799 52.302,-116.819993 116.82,-116.819993 64.518,0 116.82,52.302003 116.82,116.819993 0,64.518002 -52.302,116.820002 -116.82,116.820002 z"
         fill="#de5833"
         id="path5204"
         style="fill:#ffffff;fill-opacity:1" /></g><path
       d="m 90.61819,47.646568 h -3.812622 a 7.6476389,11.322082 0 0 1 -2.225103,-0.469414 6.9781691,10.330953 0 0 1 -0.801299,-0.439436 q -1.389343,-0.908851 -2.412502,-2.487386 a 7.5371377,11.158488 0 0 1 -1.520742,-3.478197 8.6242722,12.767958 0 0 1 -0.07323,-0.268828 q -0.57082,-2.168501 -0.57082,-4.687781 a 9.0311673,13.370351 0 0 1 0.201402,-2.871971 7.6004661,11.252245 0 0 1 0.369414,-1.783905 7.1502755,10.585751 0 0 1 1.139261,-2.858261 6.631587,9.8178503 0 0 1 0.454716,-0.729317 q 1.023159,-1.482865 2.412502,-2.296055 a 7.9388629,11.75323 0 0 1 2.421338,-0.784485 9.3650411,13.86464 0 0 1 0.605064,-0.0287 h 3.812611 a 9.0083346,13.336548 0 0 1 1.91838,0.292422 7.6204985,11.281902 0 0 1 1.19419,0.536711 7.1588915,10.598507 0 0 1 2.09737,1.876058 6.7847382,10.044585 0 0 1 0.3259,0.451881 7.0395589,10.421839 0 0 1 1.52806,3.42526 8.058411,11.930217 0 0 1 0.0444,0.162317 7.9825896,11.817966 0 0 1 0.52062,3.300258 9.6857739,14.339475 0 0 1 0.0394,1.307783 8.9443597,13.241836 0 0 1 -0.29489,3.440257 8.0709043,11.948712 0 0 1 -0.27593,1.247524 q -0.57082,2.16849 -1.59397,3.747025 -1.02316,1.578535 -2.42328,2.487386 a 7.3717091,10.913576 0 0 1 -2.45365,0.87633 8.7864703,13.008085 0 0 1 -0.6266,0.03252 z M 86.805568,43.59659 h 3.812622 a 5.2286724,7.7408809 0 0 0 1.33937,-0.247137 4.6244695,6.8463776 0 0 0 0.64233,-0.326877 q 0.90469,-0.574014 1.56166,-1.578536 a 4.7211851,6.9895616 0 0 0 0.93959,-2.10534 5.4785391,8.1107998 0 0 0 0.0836,-0.302316 q 0.36619,-1.403146 0.36619,-3.029516 A 5.7857028,8.5655457 0 0 0 95.37796,33.883662 5.1366958,7.6047119 0 0 0 95.18474,32.993304 Q 94.81856,31.606099 94.16158,30.61753 93.50461,29.62895 92.59992,29.070878 a 4.9540349,7.3342882 0 0 0 -1.56748,-0.5367 5.8824181,8.7087298 0 0 0 -0.41422,-0.02136 h -3.812622 a 5.1743912,7.6605192 0 0 0 -1.374912,0.263727 4.6302852,6.8549879 0 0 0 -0.574479,0.294335 q -0.893919,0.558072 -1.540126,1.546651 a 4.7468178,7.0275104 0 0 0 -0.94109,2.10599 5.4766003,8.1079302 0 0 0 -0.07131,0.253832 5.2469816,7.7679866 0 0 0 -0.337105,2.119391 6.3881823,9.4574976 0 0 0 -0.02908,0.910126 5.8091813,8.6003054 0 0 0 0.197525,2.268306 5.2573212,7.7832938 0 0 0 0.168659,0.76121 q 0.366183,1.403135 1.012389,2.407667 0.646207,1.004521 1.540126,1.578525 a 4.7560804,7.041223 0 0 0 1.655798,0.562854 5.5694388,8.2453742 0 0 0 0.293594,0.01116 z"
       id="0-6"
       style="fill:#666666;fill-opacity:1;stroke-width:0.0655222mm" /><path
       d="m 117.84502,41.204875 h -6.28974 v -3.922426 h 6.28974 a 4.0943646,6.0615745 0 0 0 0.91718,-0.143176 q 0.80389,-0.273303 1.33377,-1.068629 a 2.7580097,4.0831439 0 0 0 0.76275,-2.297001 3.8737927,5.7350249 0 0 0 0.045,-0.891952 3.6859621,5.4569479 0 0 0 -0.10877,-1.363601 2.6106743,3.8650194 0 0 0 -0.69899,-1.825363 2.652032,3.9262473 0 0 0 -1.22026,-0.999739 q -0.40839,-0.157535 -0.8911,-0.177302 a 5.0613052,7.4930983 0 0 0 -0.1396,-0.0032 h -8.29295 v 19.133711 h -2.71407 V 24.462508 h 11.00705 q 1.35704,0 2.42328,0.589955 a 5.3594219,7.9344506 0 0 1 1.18902,0.910445 4.6393323,6.8683814 0 0 1 0.60959,0.747819 4.7272164,6.9984911 0 0 1 1.04276,2.310392 5.5188194,8.1704335 0 0 1 0.0774,0.288606 q 0.38773,1.5307 0.38773,3.444071 a 7.2420366,10.721601 0 0 1 -0.12257,2.010638 5.9494082,8.8079065 0 0 1 -0.26516,1.417493 5.1487582,7.6225704 0 0 1 -0.89952,2.303389 4.8870449,7.2351117 0 0 1 -0.22057,0.359397 4.9340024,7.3046311 0 0 1 -1.46947,1.528786 5.841707,8.6484584 0 0 1 -0.32914,0.209197 5.9282991,8.7766552 0 0 1 -1.36866,0.519164 7.7281996,11.44135 0 0 1 -1.05462,0.102664 z"
       id="2-7"
       style="fill:#666666;fill-opacity:1;stroke-width:0.0655222mm" /><path
       d="M 145.84732,47.646568 H 131.84616 V 24.462836 h 13.97961 v 4.04998 H 134.56023 V 43.59659 h 11.28709 z m -0.60314,-10.077107 h -8.6807 v -3.412188 h 8.6807 z"
       id="4-5"
       style="fill:#666666;fill-opacity:1;stroke-width:0.0655222mm" /><path
       d="M 168.0768,47.072554 157.06976,30.681307 v 16.965261 h -2.60637 V 26.599434 a 2.4394295,3.6114967 0 0 1 0.0467,-0.727712 q 0.086,-0.618342 0.33021,-1.042154 a 1.2364086,1.8304628 0 0 1 0.85644,-0.642255 1.7449728,2.5833763 0 0 1 0.16672,-0.01148 q 0.30156,0 0.5816,0.191342 a 1.5711436,2.3260272 0 0 1 0.24016,0.206964 q 0.11374,0.11735 0.23049,0.274247 a 3.1185927,4.6169756 0 0 1 0.11093,0.156579 l 11.05013,16.2318 V 24.271506 h 2.60635 v 21.238476 a 2.5727636,3.8088935 0 0 1 -0.0404,0.698379 q -0.0506,0.401495 -0.16435,0.71751 a 1.3240773,1.9602536 0 0 1 -0.1721,0.369929 1.2271462,1.8167504 0 0 1 -0.89629,0.634604 1.6245633,2.4051133 0 0 1 -0.0837,0.0032 1.5612351,2.3113579 0 0 1 -0.83922,-0.370876 2.3248359,3.441844 0 0 1 -0.41012,-0.490139 z"
       id="6-3"
       style="fill:#666666;fill-opacity:1;stroke-width:0.0655222mm" /><path
       d="M 191.42642,47.646568 H 179.64389 V 24.462836 h 11.45943 a 8.7685923,12.981616 0 0 1 1.1554,0.108106 6.8784378,10.183305 0 0 1 0.92323,0.274568 5.2422431,7.7609712 0 0 1 0.91976,0.510236 4.1859104,6.197105 0 0 1 0.68497,0.621849 q 0.66776,0.749403 1.03395,1.881479 a 3.6975936,5.4741681 0 0 1 0.32095,1.609153 4.7791281,7.0753449 0 0 1 0.0451,0.989855 5.5681465,8.2434609 0 0 1 -0.0329,0.921604 q -0.0345,0.452836 -0.1049,0.845712 a 3.2131543,4.756971 0 0 1 -0.0345,0.17795 3.4526817,5.1115834 0 0 1 -0.21844,0.810629 2.712775,4.0161759 0 0 1 -0.25544,0.608459 q -0.30159,0.589955 -0.70007,0.98857 a 3.0834821,4.5649958 0 0 1 -0.6921,0.523307 2.8387854,4.2027301 0 0 1 -0.1372,0.06664 q 1.077,0.510226 1.76629,1.849595 a 3.2896224,4.8701793 0 0 1 0.60033,2.003941 4.625331,6.8476532 0 0 1 0.089,1.376353 5.6301823,8.3353027 0 0 1 -0.11156,1.69238 4.6078835,6.8218227 0 0 1 -0.24385,1.19363 q -0.35539,1.291524 -1.01238,2.216327 a 4.3190293,6.3941832 0 0 1 -1.25236,1.218499 5.1407885,7.6107714 0 0 1 -0.34162,0.200589 5.7329291,8.4874162 0 0 1 -1.31783,0.435927 7.139936,10.570445 0 0 1 -0.76079,0.05834 z M 191.3187,37.569461 h -6.95748 v -3.412188 h 6.76362 a 5.025979,7.4407994 0 0 0 0.60681,-0.05038 q 0.66944,-0.120857 1.06515,-0.53128 a 1.4382405,2.1292683 0 0 0 0.0513,-0.05611 1.3036141,1.9299584 0 0 0 0.42454,-0.877924 q 0.13551,-0.537018 0.13551,-1.290566 a 2.6854191,3.9756761 0 0 0 -0.0279,-0.592515 q -0.0537,-0.523948 -0.20917,-0.890359 a 1.5099693,2.2354606 0 0 0 -0.5583,-0.770765 1.8640906,2.7597256 0 0 0 -0.12021,-0.09023 q -0.41379,-0.283813 -0.97922,-0.38586 a 4.7317398,7.0051876 0 0 0 -0.0761,-0.01275 q -0.61388,-0.09565 -1.3678,-0.09565 h -7.68987 v 15.115669 h 7.92681 a 8.7399434,12.939203 0 0 0 0.83188,-0.05611 7.035897,10.416418 0 0 0 0.52515,-0.103303 4.0958725,6.0638067 0 0 0 0.54777,-0.194848 2.9882742,4.4240438 0 0 0 0.52925,-0.33133 2.056014,3.0438621 0 0 0 0.43361,-0.463039 1.7331261,2.5658368 0 0 0 0.26644,-0.477706 q 0.23736,-0.55009 0.24728,-1.3636 a 2.6746488,3.9597314 0 0 0 0,-0.07141 2.4956496,3.6947291 0 0 0 -0.0711,-0.909168 1.6962921,2.5113058 0 0 0 -0.53205,-1.307157 1.9300034,2.857308 0 0 0 -0.67485,-0.554246 q -0.46438,-0.227051 -1.0914,-0.227051 z"
       id="8-5"
       style="fill:#f9f9f9;stroke-width:0.0655222mm" /><path
       d="m 216.15459,47.646568 h -3.81261 a 7.6476389,11.322082 0 0 1 -2.22512,-0.469414 6.9781691,10.330953 0 0 1 -0.80131,-0.439436 q -1.38934,-0.908851 -2.41249,-2.487386 a 7.5371377,11.158488 0 0 1 -1.52075,-3.478197 8.6242722,12.767958 0 0 1 -0.0733,-0.268828 q -0.57082,-2.168501 -0.57082,-4.687781 a 9.0311673,13.370351 0 0 1 0.20139,-2.871971 7.6004661,11.252245 0 0 1 0.36943,-1.783905 7.1502755,10.585751 0 0 1 1.13925,-2.858261 6.631587,9.8178503 0 0 1 0.45471,-0.729317 q 1.02315,-1.482865 2.4125,-2.296055 a 7.9388629,11.75323 0 0 1 2.42133,-0.784485 9.3650411,13.86464 0 0 1 0.60509,-0.0287 h 3.81262 a 9.0083346,13.336548 0 0 1 1.91837,0.292422 7.6204985,11.281902 0 0 1 1.19418,0.536711 7.1588915,10.598507 0 0 1 2.09736,1.876058 6.7847382,10.044585 0 0 1 0.32591,0.451881 7.0395589,10.421839 0 0 1 1.52807,3.42526 8.058411,11.930217 0 0 1 0.0445,0.162317 7.9825896,11.817966 0 0 1 0.52062,3.300258 9.6857739,14.339475 0 0 1 0.0395,1.307783 8.9443597,13.241836 0 0 1 -0.29489,3.440257 8.0709043,11.948712 0 0 1 -0.27592,1.247524 q -0.57082,2.16849 -1.59398,3.747025 -1.02317,1.578535 -2.42327,2.487386 a 7.3717091,10.913576 0 0 1 -2.45367,0.87633 8.7864703,13.008085 0 0 1 -0.62659,0.03252 z m -3.81261,-4.049978 h 3.81261 a 5.2286724,7.7408809 0 0 0 1.33937,-0.247137 4.6244695,6.8463776 0 0 0 0.64234,-0.326877 q 0.90467,-0.574014 1.56166,-1.578536 a 4.7211851,6.9895616 0 0 0 0.93957,-2.10534 5.4785391,8.1107998 0 0 0 0.0836,-0.302316 q 0.36619,-1.403146 0.36619,-3.029516 a 5.7857028,8.5655457 0 0 0 -0.17299,-2.123206 5.1366958,7.6047119 0 0 0 -0.1932,-0.890358 q -0.3662,-1.387205 -1.02315,-2.375774 -0.65699,-0.98858 -1.56166,-1.546652 a 4.9540349,7.3342882 0 0 0 -1.56751,-0.5367 5.8824181,8.7087298 0 0 0 -0.4142,-0.02136 H 212.342 a 5.1743912,7.6605192 0 0 0 -1.37493,0.263727 4.6302852,6.8549879 0 0 0 -0.57448,0.294335 q -0.89392,0.558072 -1.54012,1.546651 a 4.7468178,7.0275104 0 0 0 -0.94109,2.10599 5.4766003,8.1079302 0 0 0 -0.0713,0.253842 5.2469816,7.7679866 0 0 0 -0.3371,2.119381 6.3881823,9.4574976 0 0 0 -0.0292,0.910126 5.8091813,8.6003054 0 0 0 0.19753,2.268306 5.2573212,7.7832938 0 0 0 0.16865,0.76121 q 0.36618,1.403135 1.0124,2.407667 0.6462,1.004521 1.54012,1.578525 a 4.7560804,7.041223 0 0 0 1.6558,0.562854 5.5694388,8.2453742 0 0 0 0.2936,0.01116 z"
       id="10-6"
       style="fill:#f9f9f9;stroke-width:0.0655222mm" /><path
       d="M 244.11379,47.646568 H 232.37436 V 43.59659 h 11.73943 a 3.4520354,5.1106268 0 0 0 0.66473,-0.08864 q 0.38255,-0.111293 0.68001,-0.361947 a 1.7921462,2.6532144 0 0 0 0.34618,-0.378539 1.8627982,2.7578122 0 0 0 0.57166,-1.705133 2.6033508,3.8541769 0 0 0 0.0207,-0.49524 2.7554246,4.0793172 0 0 0 -0.0577,-0.863576 q -0.0806,-0.550092 -0.27315,-0.9586 a 1.5287093,2.2632047 0 0 0 -0.26148,-0.426044 1.9377582,2.8687882 0 0 0 -0.6893,-0.548497 q -0.2841,-0.131708 -0.6266,-0.176994 a 4.2173593,6.2436643 0 0 0 -0.375,-0.02391 h -7.19444 a 6.2490327,9.2514911 0 0 1 -1.15564,-0.152113 5.0574278,7.4873586 0 0 1 -0.83683,-0.342181 4.6395475,6.8687004 0 0 1 -0.96264,-0.721665 3.9414292,5.8351586 0 0 1 -0.54519,-0.649588 q -0.61387,-0.876967 -0.94777,-2.08877 -0.33387,-1.211806 -0.33387,-2.646834 0,-1.403147 0.31234,-2.598999 0.31233,-1.195862 0.92624,-2.056877 a 4.1137507,6.0902753 0 0 1 0.98157,-1.010591 5.1183868,7.5776061 0 0 1 0.53699,-0.34472 5.2620599,7.7903096 0 0 1 1.09965,-0.399581 7.0294347,10.406851 0 0 1 0.96822,-0.09469 h 11.24398 v 4.049979 h -11.24398 q -0.72872,0 -1.20281,0.443262 a 1.5750207,2.3317674 0 0 0 -0.26192,0.30614 1.6601047,2.4577312 0 0 0 -0.45018,1.202241 q -0.0646,0.392555 -0.0666,0.856551 a 3.1418562,4.6514165 0 0 0 0,0.02997 2.4844487,3.6781461 0 0 0 0.0619,0.844755 q 0.10511,0.661064 0.3903,1.115496 a 1.5664047,2.3190115 0 0 0 0.0756,0.112568 1.7641437,2.6117581 0 0 0 0.80712,0.630457 q 0.28604,0.102984 0.62528,0.102984 h 7.1729 a 8.1501725,12.066066 0 0 1 1.38204,0.161998 q 1.39602,0.356209 2.24751,1.496255 1.08087,1.447156 1.21853,4.204964 a 7.6401,11.31092 0 0 1 0.02,0.833595 5.7072964,8.4494676 0 0 1 -0.12364,1.788051 4.9133234,7.2740171 0 0 1 -0.1779,0.92257 q -0.30157,1.243689 -0.9047,2.152549 -0.6031,0.908852 -1.51858,1.419078 a 5.1491893,7.6232083 0 0 1 -1.02705,0.390653 q -0.45621,0.104576 -0.96865,0.11767 a 8.5482357,12.655386 0 0 1 -0.14756,0.0021 z"
       id="12"
       style="fill:#f9f9f9;stroke-width:0.0655222mm" /><path
       d="M 271.21138,47.072554 260.20434,30.681307 v 16.965261 h -2.60638 V 26.599434 a 2.4394295,3.6114967 0 0 1 0.0468,-0.727712 q 0.0859,-0.618342 0.3302,-1.042154 a 1.2364086,1.8304628 0 0 1 0.85649,-0.642255 1.7449728,2.5833763 0 0 1 0.16668,-0.01148 q 0.30158,0 0.58159,0.191342 a 1.5711436,2.3260272 0 0 1 0.24016,0.206964 q 0.11373,0.11735 0.2305,0.274247 a 3.1185927,4.6169756 0 0 1 0.11093,0.156579 l 11.05013,16.2318 V 24.271506 h 2.60637 v 21.238476 a 2.5727636,3.8088935 0 0 1 -0.0404,0.698379 q -0.0507,0.401495 -0.16438,0.71751 a 1.3240773,1.9602536 0 0 1 -0.17211,0.369929 1.2271462,1.8167504 0 0 1 -0.89629,0.634604 1.6245633,2.4051133 0 0 1 -0.0837,0.0032 1.5612351,2.3113579 0 0 1 -0.83923,-0.370876 2.3248359,3.441844 0 0 1 -0.41011,-0.490139 z"
       id="14"
       style="fill:#f9f9f9;stroke-width:0.0655222mm" /><path
       d="m 285.68641,47.646568 h -2.7356 V 24.462836 h 2.7356 z"
       id="16"
       style="fill:#f9f9f9;stroke-width:0.0655222mm" /><path
       d="m 314.50723,47.646568 h -3.29567 l -2.34787,-5.835796 h -7.40985 l 1.29241,-3.284624 h 4.80347 l -3.48951,-8.673973 -7.10827,17.794393 h -3.12334 l 9.00382,-22.195151 q 0.2369,-0.605907 0.56003,-0.956696 a 1.2189609,1.8046323 0 0 1 0.58378,-0.333881 1.5795442,2.3384643 0 0 1 0.19172,-0.01689 1.4322091,2.1203394 0 0 1 0.37519,0.0695 1.1233224,1.6630425 0 0 1 0.38945,0.281263 1.9041554,2.8190403 0 0 1 0.33603,0.490788 2.5538084,3.7808307 0 0 1 0.21326,0.465899 z"
       id="18"
       style="fill:#f9f9f9;stroke-width:0.0655222mm" /><path
       d="M 336.06897,47.072554 325.06193,30.681307 v 16.965261 h -2.60637 V 26.599434 a 2.4394295,3.6114967 0 0 1 0.0468,-0.727712 q 0.0859,-0.618342 0.3302,-1.042154 a 1.2364086,1.8304628 0 0 1 0.85644,-0.642255 1.7449728,2.5833763 0 0 1 0.16672,-0.01148 q 0.30156,0 0.58159,0.191342 a 1.5711436,2.3260272 0 0 1 0.2402,0.206964 q 0.1137,0.11735 0.23045,0.274247 a 3.1185927,4.6169756 0 0 1 0.11093,0.156579 l 11.05013,16.2318 V 24.271506 h 2.60638 v 21.238476 a 2.5727636,3.8088935 0 0 1 -0.0404,0.698379 q -0.0506,0.401495 -0.16434,0.71751 a 1.3240773,1.9602536 0 0 1 -0.17212,0.369929 1.2271462,1.8167504 0 0 1 -0.8963,0.634604 1.6245633,2.4051133 0 0 1 -0.0837,0.0032 1.5612351,2.3113579 0 0 1 -0.83918,-0.370876 2.3248359,3.441844 0 0 1 -0.41015,-0.490139 z"
       id="20"
       style="fill:#f9f9f9;stroke-width:0.0655222mm" /><path
       d="m 367.28075,47.646568 h -3.29564 l -2.34789,-5.835796 h -7.40982 l 1.29239,-3.284624 h 4.80348 l -3.48952,-8.673973 -7.10827,17.794393 h -3.12333 l 9.0038,-22.195151 q 0.23696,-0.605907 0.56005,-0.956696 a 1.2189609,1.8046323 0 0 1 0.58373,-0.333881 1.5795442,2.3384643 0 0 1 0.19171,-0.01689 1.4322091,2.1203394 0 0 1 0.37522,0.0695 1.1233224,1.6630425 0 0 1 0.38943,0.281263 1.9041554,2.8190403 0 0 1 0.33606,0.490788 2.5538084,3.7808307 0 0 1 0.21326,0.465899 z"
       id="22"
       style="fill:#f9f9f9;stroke-width:0.0655222mm" /></g></svg>
