<?xml version="1.0" encoding="utf-8"?>
<!-- Generator: Adobe Illustrator 24.2.3, SVG Export Plug-In . SVG Version: 6.00 Build 0)  -->
<svg version="1.1" id="Layer_1" xmlns="http://www.w3.org/2000/svg" xmlns:xlink="http://www.w3.org/1999/xlink" x="0px" y="0px"
	 viewBox="0 0 36 36" enable-background="new 0 0 36 36" xml:space="preserve">
<g>
	<path opacity="0.05" d="M35.464,13.787c-0.129-0.533-0.602-0.91-1.151-0.916c-1.672-0.02-3.169-0.892-4.002-2.333
		c-0.796-1.379-0.836-3.052-0.105-4.477c0.248-0.488,0.137-1.08-0.272-1.443c-1.968-1.749-4.218-3.017-6.688-3.769
		c-0.506-0.155-1.059,0.045-1.349,0.483c-0.872,1.311-2.33,2.094-3.899,2.094c-1.57,0-3.028-0.783-3.9-2.094
		c-0.292-0.44-0.85-0.637-1.348-0.483c-2.47,0.752-4.72,2.02-6.688,3.768C5.653,4.981,5.542,5.574,5.79,6.062
		c0.73,1.424,0.69,3.096-0.105,4.475c-0.833,1.441-2.33,2.314-4.001,2.334c-0.55,0.006-1.023,0.383-1.152,0.916
		C0.179,15.232,0,16.673,0,18.067c0,1.1,0.11,2.236,0.326,3.375c0.108,0.566,0.604,0.977,1.205,0.977
		c1.684-0.048,3.299,0.857,4.154,2.338c0.888,1.539,0.832,3.42-0.149,4.91c-0.321,0.489-0.245,1.135,0.183,1.536
		c1.917,1.793,4.141,3.118,6.607,3.936c0.125,0.042,0.253,0.062,0.38,0.062c0.45,0,0.878-0.255,1.08-0.68
		c0.79-1.638,2.405-2.655,4.214-2.655s3.424,1.017,4.213,2.654c0.253,0.529,0.894,0.805,1.459,0.62
		c2.466-0.819,4.689-2.143,6.607-3.938c0.429-0.401,0.506-1.046,0.184-1.536c-0.98-1.491-1.037-3.373-0.15-4.911
		c0.834-1.443,2.389-2.339,4.058-2.339l0.122,0.001c0.575,0,1.071-0.41,1.179-0.976C35.89,20.3,36,19.164,36,18.066
		C35.998,16.672,35.817,15.232,35.464,13.787z"/>
	<path opacity="0.07" d="M34.882,13.929c-0.064-0.266-0.301-0.455-0.575-0.458c-1.887-0.023-3.574-1.007-4.514-2.634
		c-0.898-1.555-0.943-3.443-0.121-5.048c0.124-0.244,0.069-0.54-0.136-0.722c-1.903-1.692-4.079-2.917-6.465-3.643
		c-0.251-0.077-0.527,0.02-0.674,0.241c-0.983,1.479-2.627,2.362-4.398,2.362c-1.772,0-3.416-0.883-4.399-2.362
		c-0.148-0.221-0.427-0.318-0.674-0.241C10.539,2.15,8.364,3.376,6.461,5.067C6.255,5.249,6.2,5.545,6.325,5.789
		c0.823,1.605,0.777,3.493-0.121,5.048c-0.94,1.627-2.626,2.611-4.514,2.634c-0.274,0.003-0.511,0.192-0.575,0.458
		C0.773,15.327,0.6,16.719,0.6,18.067c0,1.06,0.105,2.157,0.315,3.263c0.054,0.284,0.301,0.489,0.589,0.489c0.004,0,0.008,0,0.013,0
		c1.945-0.043,3.725,0.971,4.686,2.638c1.003,1.737,0.939,3.86-0.166,5.541c-0.161,0.244-0.122,0.568,0.091,0.768
		c1.854,1.734,4.003,3.015,6.388,3.806c0.284,0.095,0.599-0.037,0.729-0.309c0.891-1.847,2.712-2.995,4.754-2.995
		s3.864,1.148,4.754,2.995c0.102,0.213,0.315,0.34,0.54,0.34c0.063,0,0.127-0.01,0.189-0.03c2.382-0.791,4.532-2.072,6.387-3.806
		c0.213-0.199,0.252-0.524,0.091-0.768c-1.105-1.682-1.17-3.804-0.168-5.541c0.946-1.635,2.692-2.639,4.577-2.639
		c0.041,0,0.096,0.002,0.122,0.001c0.287,0,0.536-0.204,0.589-0.488c0.211-1.108,0.318-2.206,0.318-3.265
		C35.398,16.719,35.223,15.327,34.882,13.929z"/>
	
		<linearGradient id="SVGID_1_" gradientUnits="userSpaceOnUse" x1="24.7284" y1="11.3125" x2="11.1783" y2="24.8626" gradientTransform="matrix(1 0 0 -1 0 36.1102)">
		<stop  offset="0" style="stop-color:#D7D7D7"/>
		<stop  offset="1" style="stop-color:#FAFAFB"/>
	</linearGradient>
	<circle fill="url(#SVGID_1_)" cx="17.998" cy="18.068" r="9.66"/>
	
		<linearGradient id="SVGID_2_" gradientUnits="userSpaceOnUse" x1="12.4963" y1="23.5446" x2="22.1479" y2="13.893" gradientTransform="matrix(1 0 0 -1 0 36.1102)">
		<stop  offset="0" style="stop-color:#508CC8"/>
		<stop  offset="1" style="stop-color:#2864A0"/>
	</linearGradient>
	<circle fill="url(#SVGID_2_)" cx="17.998" cy="18.068" r="5.88"/>
	
		<linearGradient id="SVGID_3_" gradientUnits="userSpaceOnUse" x1="2.3138" y1="33.7145" x2="29.8281" y2="6.1995" gradientTransform="matrix(1 0 0 -1 0 36.1102)">
		<stop  offset="1.198083e-07" style="stop-color:#D7D7D7"/>
		<stop  offset="1" style="stop-color:#8C8C8C"/>
	</linearGradient>
	<path fill="url(#SVGID_3_)" d="M34.3,14.072c-2.007-0.024-3.95-1.07-5.026-2.934c-1.036-1.794-1.015-3.905-0.136-5.622
		c-1.785-1.585-3.899-2.805-6.241-3.518c-1.053,1.584-2.853,2.63-4.898,2.63s-3.845-1.045-4.898-2.63
		C10.759,2.711,8.645,3.93,6.86,5.515c0.879,1.717,0.9,3.828-0.136,5.622c-1.076,1.864-3.019,2.91-5.026,2.934
		C1.385,15.354,1.2,16.688,1.2,18.068c0,1.079,0.112,2.129,0.306,3.152c2.074-0.043,4.108,1.015,5.219,2.938
		c1.149,1.991,0.997,4.371-0.185,6.17c1.749,1.635,3.841,2.903,6.166,3.675c0.949-1.971,2.96-3.336,5.295-3.336
		s4.345,1.364,5.295,3.336c2.324-0.772,4.417-2.04,6.166-3.675c-1.182-1.798-1.334-4.179-0.185-6.17
		c1.11-1.924,3.144-2.981,5.219-2.938c0.194-1.022,0.306-2.073,0.306-3.152C34.798,16.688,34.614,15.354,34.3,14.072z
		 M17.998,26.888c-4.871,0-8.82-3.949-8.82-8.82s3.949-8.82,8.82-8.82s8.82,3.949,8.82,8.82S22.869,26.888,17.998,26.888z"/>
</g>
</svg>
