<?xml version="1.0" encoding="UTF-8" standalone="no"?>
<!-- Created with Inkscape (http://www.inkscape.org/) -->

<svg
   width="64.0px"
   height="64.0px"
   viewBox="0 0 64.0 64.0"
   version="1.1"
   id="SVGRoot"
   sodipodi:docname="system-update.svg"
   inkscape:version="1.2.1 (9c6d41e410, 2022-07-14)"
   xmlns:inkscape="http://www.inkscape.org/namespaces/inkscape"
   xmlns:sodipodi="http://sodipodi.sourceforge.net/DTD/sodipodi-0.dtd"
   xmlns:xlink="http://www.w3.org/1999/xlink"
   xmlns="http://www.w3.org/2000/svg"
   xmlns:svg="http://www.w3.org/2000/svg">
  <sodipodi:namedview
     id="namedview1220"
     pagecolor="#ffffff"
     bordercolor="#666666"
     borderopacity="1.0"
     inkscape:pageshadow="2"
     inkscape:pageopacity="0.0"
     inkscape:pagecheckerboard="0"
     inkscape:document-units="px"
     showgrid="true"
     inkscape:zoom="8.6068154"
     inkscape:cx="16.382366"
     inkscape:cy="27.303943"
     inkscape:current-layer="layer1"
     inkscape:showpageshadow="2"
     inkscape:deskcolor="#d1d1d1">
    <inkscape:grid
       type="xygrid"
       id="grid1283" />
  </sodipodi:namedview>
  <defs
     id="defs1215">
    <linearGradient
       id="l"
       x1="22"
       x2="22"
       y1="30"
       y2="8"
       gradientTransform="matrix(0,-2,-2,0,88,88)"
       gradientUnits="userSpaceOnUse"
       xlink:href="#k" />
    <linearGradient
       id="k"
       x2="0"
       y1="30"
       y2="8"
       gradientUnits="userSpaceOnUse">
      <stop
         stop-color="#cfd2d5"
         offset="0"
         id="stop29" />
      <stop
         stop-color="#eff0f1"
         offset="1"
         id="stop31" />
    </linearGradient>
    <linearGradient
       id="m"
       x1="18"
       x2="30"
       y1="18"
       y2="30"
       gradientUnits="userSpaceOnUse"
       gradientTransform="scale(2)">
      <stop
         stop-color="#292c2f"
         offset="0"
         id="stop3" />
      <stop
         stop-opacity="0"
         offset="1"
         id="stop5" />
    </linearGradient>
    <linearGradient
       inkscape:collect="always"
       xlink:href="#linearGradient1895"
       id="linearGradient862"
       gradientUnits="userSpaceOnUse"
       gradientTransform="matrix(1.33334,0,0,-0.74074,-512.76,395.852)"
       x1="408.57001"
       y1="512.79797"
       x2="408.57001"
       y2="504.698" />
    <linearGradient
       id="linearGradient1895"
       x1="408.57001"
       x2="408.57001"
       y1="512.79797"
       y2="504.698"
       gradientTransform="matrix(0.66667,0,0,-0.37037,-256.38,197.926)"
       gradientUnits="userSpaceOnUse">
      <stop
         stop-color="#ebc69a"
         offset="0"
         id="stop1891" />
      <stop
         stop-color="#73ba25"
         stop-opacity="0"
         offset="1"
         id="stop1893"
         style="stop-color:#40a5da;stop-opacity:1" />
    </linearGradient>
    <linearGradient
       id="n"
       x1="411.57001"
       x2="411.57001"
       y1="512.80103"
       y2="503.80099"
       gradientTransform="matrix(1.33334,0,0,1.33334,-512.76,-667.734)"
       gradientUnits="userSpaceOnUse"
       xlink:href="#pippo">
      <stop
         stop-color="#ebc69a"
         offset="0"
         id="stop24" />
      <stop
         stop-color="#f4e0c8"
         stop-opacity="0"
         offset="1"
         id="stop26" />
    </linearGradient>
    <linearGradient
       inkscape:collect="always"
       id="linearGradient1162">
      <stop
         style="stop-color:#005c9d;stop-opacity:1"
         offset="0"
         id="stop1158" />
      <stop
         style="stop-color:#40a5da;stop-opacity:1"
         offset="1"
         id="stop1160" />
    </linearGradient>
    <linearGradient
       inkscape:collect="always"
       xlink:href="#k"
       id="linearGradient860"
       gradientUnits="userSpaceOnUse"
       y1="30"
       x2="0"
       y2="8"
       gradientTransform="scale(2)" />
    <linearGradient
       inkscape:collect="always"
       xlink:href="#j"
       id="linearGradient858"
       gradientUnits="userSpaceOnUse"
       y1="30"
       x2="0"
       y2="8"
       gradientTransform="scale(2)" />
    <linearGradient
       id="j"
       x2="0"
       y1="30"
       y2="8"
       gradientUnits="userSpaceOnUse">
      <stop
         stop-color="#cea476"
         offset="0"
         id="stop9" />
      <stop
         stop-color="#dab58b"
         offset="1"
         id="stop11" />
    </linearGradient>
    <linearGradient
       id="p"
       x1="25"
       x2="25"
       y1="8"
       y2="2"
       gradientUnits="userSpaceOnUse"
       xlink:href="#j"
       gradientTransform="scale(2)" />
    <linearGradient
       inkscape:collect="always"
       xlink:href="#linearGradient1162"
       id="linearGradient1633"
       gradientUnits="userSpaceOnUse"
       x1="411.427"
       y1="543.79999"
       x2="411.427"
       y2="512.79999"
       gradientTransform="matrix(0.7,0,0,1.41936,-240,-711.846)" />
  </defs>
  <g
     inkscape:label="Livello 1"
     inkscape:groupmode="layer"
     id="layer1">
    <g
       id="g1070">
      <rect
         style="fill:none;stroke-width:0.2"
         id="rect1087"
         width="64"
         height="64"
         x="0"
         y="0" />
      <path
         d="M 12,4 4,16 H 60 L 52,4 H 14 Z"
         fill="url(#p)"
         fill-rule="evenodd"
         id="path34"
         style="fill:url(#p);stroke-width:1" />
      <path
         d="M 4,16 H 60 V 60 H 4 Z"
         fill="url(#j)"
         id="path36"
         style="fill:url(#linearGradient858);stroke-width:1" />
      <path
         d="M 28,16 H 60 V 60 H 28 Z"
         id="path40"
         style="fill:url(#linearGradient1633);fill-opacity:1;stroke-width:1" />
      <path
         d="m 28,58 h 32 v 2 H 28 Z"
         id="path58"
         style="fill:#005c9d;fill-opacity:1;stroke:none;stroke-width:1" />
      <path
         d="M 4,16 H 28 V 60 H 4 Z"
         fill="url(#k)"
         id="path38"
         style="fill:url(#linearGradient860);stroke-width:1" />
      <path
         d="m 28,4 v 18 l 2,-2 2,2 2,-2 c 0,0 2,2 2,1.944 V 4 Z"
         fill="#f4e0c8"
         id="path44"
         style="stroke-width:1.867;stroke-opacity:0.55" />
      <path
         d="m 28,4 h 8 v 12 h -8 z"
         fill="url(#n)"
         id="path46"
         style="fill:url(#n);stroke-width:1.867;stroke-opacity:0.55" />
      <path
         d="m 28,16 v 6 l 2,-2 2,2 2,-2 c 0,0 2,2 2,1.946 V 16 Z"
         fill="url(#i)"
         id="path48"
         style="fill:url(#linearGradient862);stroke-width:1.867;stroke-opacity:0.55" />
      <path
         d="M 37.938,33.688 60,55.75 V 43.03 L 52.486,35.514 44,32 Z m -4.25,4.25 L 55.75,60 H 43.03 L 35.514,52.486 32,44 Z"
         fill="url(#m)"
         opacity="0.2"
         id="path52"
         style="fill:url(#m);stroke-width:1" />
      <path
         d="m 56,44 a 11.92,11.92 0 0 1 -1.688,6.062 l -5.374,-5.374 1.436,-1.438 3.25,3.25 c 0.104,-0.39 0.196,-0.78 0.25,-1.188 C 53.89,45.208 53.926,45.106 53.938,45 53.972,44.664 54,44.346 54,44 A 10,10 0 0 0 44,34 c -0.486,0 -0.972,0.056 -1.438,0.126 -0.272,0.04 -0.548,0.062 -0.812,0.124 a 9.474,9.474 0 0 0 -1.626,0.562 c -0.06,0.028 -0.126,0.036 -0.186,0.064 -0.184,0.08 -0.328,0.216 -0.5,0.312 -0.016,0.008 -0.046,-0.01 -0.064,0 l -1.436,-1.5 A 11.92,11.92 0 0 1 44,32 12,12 0 0 1 56,44 Z M 50.062,54.312 A 11.92,11.92 0 0 1 44,56 12,12 0 0 1 32,44 11.92,11.92 0 0 1 33.688,37.938 l 1.5,1.5 3.812,3.874 -1.376,1.376 -3.25,-3.188 c -0.1,0.39 -0.194,0.78 -0.25,1.188 C 34.11,42.792 34.074,42.894 34.064,43 34.028,43.336 34,43.654 34,44 c 0,0.346 0.028,0.664 0.062,1 0.034,0.336 0.06,0.674 0.126,1 A 10.034,10.034 0 0 0 44,54 c 0.496,0 0.96,-0.056 1.438,-0.126 0.272,-0.04 0.548,-0.062 0.812,-0.124 0.574,-0.134 1.096,-0.334 1.626,-0.562 0.06,-0.026 0.126,-0.036 0.186,-0.064 0.18,-0.08 0.33,-0.216 0.5,-0.312 h 0.064 z"
         fill="url(#l)"
         id="path54"
         style="fill:url(#l);stroke-width:1" />
      <path
         d="m 4,58 v 2 h 24 v -2 z"
         fill="#adb1b3"
         id="path56"
         style="stroke-width:1" />
    </g>
  </g>
</svg>
