<?xml version="1.0" encoding="UTF-8" standalone="no"?>
<svg
   viewBox="0 0 128 128"
   version="1.1"
   id="svg43"
   sodipodi:docname="install-remove.svg"
   inkscape:version="1.2.2 (b0a8486541, 2022-12-01)"
   xml:space="preserve"
   xmlns:inkscape="http://www.inkscape.org/namespaces/inkscape"
   xmlns:sodipodi="http://sodipodi.sourceforge.net/DTD/sodipodi-0.dtd"
   xmlns:xlink="http://www.w3.org/1999/xlink"
   xmlns="http://www.w3.org/2000/svg"
   xmlns:svg="http://www.w3.org/2000/svg"
   xmlns:rdf="http://www.w3.org/1999/02/22-rdf-syntax-ns#"
   xmlns:cc="http://creativecommons.org/ns#"
   xmlns:dc="http://purl.org/dc/elements/1.1/"><metadata
     id="metadata47"><rdf:RDF><cc:Work
         rdf:about=""><dc:format>image/svg+xml</dc:format><dc:type
           rdf:resource="http://purl.org/dc/dcmitype/StillImage" /><dc:title /></cc:Work></rdf:RDF></metadata><sodipodi:namedview
     pagecolor="#ffffff"
     bordercolor="#666666"
     borderopacity="1"
     objecttolerance="10"
     gridtolerance="10"
     guidetolerance="10"
     inkscape:pageopacity="0"
     inkscape:pageshadow="2"
     inkscape:window-width="1366"
     inkscape:window-height="706"
     id="namedview45"
     showgrid="false"
     inkscape:zoom="1.1347187"
     inkscape:cx="52.435903"
     inkscape:cy="83.280552"
     inkscape:current-layer="g4655"
     inkscape:showpageshadow="2"
     inkscape:pagecheckerboard="0"
     inkscape:deskcolor="#d1d1d1"
     inkscape:window-x="0"
     inkscape:window-y="0"
     inkscape:window-maximized="1" /><defs
     id="0"><linearGradient
       id="D"><stop
         id="T" /><stop
         id="U"
         offset="1"
         stop-opacity="0" /></linearGradient><linearGradient
       id="E"><stop
         id="V"
         stop-color="#fff" /><stop
         id="W"
         offset="1"
         stop-color="#eddabc" /></linearGradient><linearGradient
       id="F"><stop
         id="X"
         stop-color="#c29650" /><stop
         id="Y"
         offset="1"
         stop-color="#cca86e" /></linearGradient><linearGradient
       id="G"><stop
         id="Z"
         stop-color="#a37a39" /><stop
         id="a"
         offset="1"
         stop-color="#c39854" /></linearGradient><linearGradient
       id="H"><stop
         id="b"
         stop-color="#eddabc" /><stop
         id="c"
         offset="1"
         stop-color="#d8af6e" /></linearGradient><radialGradient
       cx="211.15"
       cy="382.63"
       r="110.72"
       id="I"
       xlink:href="#H"
       gradientUnits="userSpaceOnUse"
       gradientTransform="matrix(0.13337487,-0.58579661,0.43334796,0.09866518,-140.53171,197.47031)" /><radialGradient
       cx="445.36"
       cy="201.93"
       r="119.48"
       id="J"
       xlink:href="#G"
       gradientUnits="userSpaceOnUse"
       gradientTransform="matrix(-0.37117278,0.14517548,-0.14805715,-0.37854038,312.3712,40.739168)" /><radialGradient
       cx="212.44"
       cy="280.07"
       r="228.86"
       id="L"
       xlink:href="#F"
       gradientUnits="userSpaceOnUse"
       gradientTransform="matrix(0.03919011,-0.09570432,0.16373591,0.06704846,-2.2215551,38.191936)" /><filter
       color-interpolation-filters="sRGB"
       id="N"
       x="-0.15687688"
       y="-0.10123229"
       width="1.3137538"
       height="1.2024646"><feGaussianBlur
         stdDeviation="1.0013"
         id="e" /></filter><linearGradient
       x1="48.3"
       y1="135.17"
       x2="72.26"
       y2="131"
       id="O"
       xlink:href="#D"
       gradientUnits="userSpaceOnUse" /><radialGradient
       cx="139.25999"
       cy="162.96001"
       r="134.88"
       id="K-2"
       xlink:href="#E"
       gradientUnits="userSpaceOnUse"
       gradientTransform="matrix(0.50693897,-0.129967,0.0262165,0.10225801,-39.663475,32.07396)" /><radialGradient
       inkscape:collect="always"
       xlink:href="#E"
       id="radialGradient3827"
       gradientUnits="userSpaceOnUse"
       gradientTransform="matrix(0.50693897,-0.129967,0.0262165,0.10225801,99.862361,21.460143)"
       cx="139.25999"
       cy="162.96001"
       r="134.88" /><style
       id="style335">.cls-1{fill:url(#Gradiente_sem_nome_2);}.cls-2{fill:#fff;}</style><linearGradient
       id="Gradiente_sem_nome_2"
       x1="3.0503"
       y1="3.0503"
       x2="12.9497"
       y2="12.9497"
       gradientUnits="userSpaceOnUse"><stop
         offset="0"
         stop-color="#1caeff"
         id="stop337" /><stop
         offset="1"
         stop-color="#0065b0"
         id="stop339" /></linearGradient></defs><g
     id="g4655"><g
       transform="translate(-2.94095,1.5724731)"
       id="g3910"><g
         id="g3868"><path
           id="1"
           transform="matrix(0.85693077,-0.4706646,0.46259458,0.87188005,2.2336477,0.32237861)"
           d="m 55.132413,114.01574 h 13.842394 l 1.476115,23.73867 H 56.608528 Z"
           style="opacity:0.425;fill:url(#O);filter:url(#N)"
           inkscape:connector-curvature="0" /><path
           id="3"
           transform="matrix(0.48733016,0.40593889,-0.40593889,0.48733016,80.572751,-24.960797)"
           d="m 97.75,12.875 a 1.6878972,1.6878972 0 0 0 -0.59375,0.15625 L 11.375,51.65625 a 1.6878972,1.6878972 0 0 0 -0.65625,0.5 L -46.5625,127.875 a 1.6878972,1.6878972 0 0 0 0.09375,2.15625 l 73.1875,80.65625 a 1.6878972,1.6878972 0 0 0 1.53125,0.53125 l 94.96875,-16.5625 a 1.6878972,1.6878972 0 0 0 1.28125,-1 L 163.46875,103.5 a 1.6878972,1.6878972 0 0 0 -0.1875,-1.65625 L 99.21875,13.5625 A 1.6878972,1.6878972 0 0 0 97.75,12.875 Z"
           inkscape:connector-curvature="0"
           style="fill:#debd87" /><path
           id="4"
           d="M 6.2472459,20.340269 9.1332307,88.517696 61.715239,118.75711 62.4297,40.768071 Z"
           style="fill:url(#I)"
           inkscape:connector-curvature="0" /><path
           id="5"
           d="m 122.34471,21.870475 -59.789046,18.790616 -0.840425,78.096019 0.428141,0.24578 55.57899,-28.130421 z"
           style="fill:url(#J)"
           inkscape:connector-curvature="0" /><path
           id="6"
           d="M 64.854937,5.8469168 6.2155318,19.507773 6.2472458,20.340269 62.555664,40.661091 122.34471,21.870475 v -0.0079 L 64.854937,5.8469295 Z"
           style="fill:url(#L)"
           inkscape:connector-curvature="0" /><path
           id="7"
           d="M 6.0980104,19.74213 62.671811,40.820785 122.74052,21.708015"
           inkscape:connector-curvature="0"
           style="fill:none;stroke:#debc85;stroke-width:1.12300003" /><path
           id="8"
           d="M 62.562595,40.820785 62.125732,119.45619"
           inkscape:connector-curvature="0"
           style="fill:none;stroke:#debc85;stroke-width:1.12300003" /></g><g
         transform="translate(0,4.7764582e-6)"
         id="g3834"><path
           style="opacity:0.70800003;fill:#eddabc;stroke:#000000;stroke-width:0.38100001"
           inkscape:connector-curvature="0"
           id="B"
           d="M 34.37719,29.724231 91.556048,13.211371" /><path
           style="opacity:0.70800003;fill:url(#K-2)"
           inkscape:connector-curvature="0"
           id="C"
           d="m 88.344436,11.310762 -58.335387,16.529896 -0.412283,9.157452 1.339921,-0.451926 -1.062423,1.070351 0.0555,0.02377 1.974204,-0.745282 -0.261642,1.228922 1.220994,-0.523283 -0.420212,0.91971 0.03171,0.01586 1.355779,-0.80871 0.08721,1.268565 0.832496,-0.737354 0.475712,0.911781 0.792853,-0.436069 0.261641,1.054495 0.959352,-0.880067 c 0,0 0.119342,0.225878 0.150642,0.285427 l 0.467784,-7.524162 60.182279,-17.663351 -9.696137,-2.696025 z" /><g
           transform="matrix(-1.0036497,-0.02661391,-0.0264797,1.0087366,270.37847,15.31888)"
           id="g3825"><path
             id="path3821"
             d="M 173.90303,19.110414 231.08188,2.5975542"
             style="opacity:0.70800003;fill:#eddabc;stroke:#000000;stroke-width:0.38100001"
             inkscape:connector-curvature="0" /><path
             id="path3823"
             d="m 227.87027,0.69694515 -58.33538,16.52989585 -0.41229,9.157452 1.33992,-0.451926 -1.06242,1.070351 0.0555,0.02377 1.9742,-0.745282 -0.26164,1.228922 1.221,-0.523283 -0.42022,0.91971 0.0317,0.01586 1.35578,-0.80871 0.0872,1.268565 0.8325,-0.737354 0.47571,0.911781 0.79285,-0.436069 0.26165,1.054495 0.95935,-0.880067 c 0,0 0.11934,0.225878 0.15064,0.285427 l 0.46778,-7.524162 60.18228,-17.6633508 -9.69613,-2.69602505 z"
             style="opacity:0.70800003;fill:url(#radialGradient3827)"
             inkscape:connector-curvature="0" /></g></g></g><g
       id="g360"
       transform="matrix(4.4953729,0,0,4.4953729,58.400916,51.557777)"><circle
         class="cls-1"
         cx="8"
         cy="8"
         r="7"
         id="circle344"
         style="fill:url(#Gradiente_sem_nome_2)" /><path
         class="cls-2"
         d="M 11.2158,10.0273 A 0.3749,0.3749 0 0 0 10.6934,10.1182 3.41,3.41 0 0 1 7.8892,11.625 3.6653,3.6653 0 0 1 4.375,7.8335 c 0,-0.0624 0.0145,-0.1233 0.0173,-0.1856 L 5.2,8.7251 a 0.375,0.375 0 1 0 0.6,-0.45 l -1.5,-2 A 0.35,0.35 0 0 0 4.2608,6.2401 0.36,0.36 0 0 0 4.2253,6.2001 C 4.2192,6.1955 4.2117,6.1948 4.2053,6.1901 A 0.3536,0.3536 0 0 0 4.1382,6.1579 0.3639,0.3639 0 0 0 4.0688,6.1338 0.3809,0.3809 0 0 0 4.0065,6.1306 a 0.3637,0.3637 0 0 0 -0.08,0.004 0.3785,0.3785 0 0 0 -0.0562,0.02 0.3558,0.3558 0 0 0 -0.0775,0.037 C 3.7872,6.1954 3.7805,6.1959 3.7751,6.2 A 0.3475,0.3475 0 0 0 3.7412,6.238 0.3451,0.3451 0 0 0 3.7,6.2749 l -1.5,2 a 0.375,0.375 0 1 0 0.6,0.45 l 0.8474,-1.13 c -0.004,0.08 -0.0222,0.1582 -0.0222,0.2382 a 4.4144,4.4144 0 0 0 4.264,4.5419 4.1486,4.1486 0 0 0 3.4174,-1.825 0.3751,0.3751 0 0 0 -0.0908,-0.5227 z"
         id="path346" /><path
         class="cls-2"
         d="M 13.7246,7.1377 A 0.3728,0.3728 0 0 0 13.2002,7.2124 L 12.3593,8.3339 C 12.3612,8.2773 12.375,8.2233 12.375,8.1665 A 4.4145,4.4145 0 0 0 8.11,3.625 4.1508,4.1508 0 0 0 4.6929,5.4492 0.3751,0.3751 0 1 0 5.3071,5.8799 3.4086,3.4086 0 0 1 8.11,4.375 3.6647,3.6647 0 0 1 11.625,8.1665 c 0,0.0444 -0.0107,0.0861 -0.0121,0.13 L 10.8,7.2124 a 0.375,0.375 0 0 0 -0.6,0.45 l 1.5,2 c 0.0085,0.0114 0.0217,0.0158 0.0312,0.0259 a 0.3479,0.3479 0 0 0 0.044,0.0493 c 0.0076,0.0057 0.0175,0.0035 0.0254,0.0085 a 0.3308,0.3308 0 0 0 0.3984,0 c 0.0079,-0.005 0.0178,-0.0028 0.0254,-0.0085 a 0.3479,0.3479 0 0 0 0.044,-0.0493 c 0.01,-0.01 0.0227,-0.0145 0.0312,-0.0259 l 1.5,-2 a 0.3748,0.3748 0 0 0 -0.075,-0.5247 z"
         id="path348" /></g></g></svg>
