<?xml version="1.0" encoding="UTF-8" standalone="no"?>
<svg
   height="64pt"
   viewBox="0 0 64 64"
   width="64pt"
   version="1.1"
   id="svg62"
   sodipodi:docname="mintupdate.svg"
   inkscape:version="1.2.2 (b0a8486541, 2022-12-01)"
   xml:space="preserve"
   xmlns:inkscape="http://www.inkscape.org/namespaces/inkscape"
   xmlns:sodipodi="http://sodipodi.sourceforge.net/DTD/sodipodi-0.dtd"
   xmlns:xlink="http://www.w3.org/1999/xlink"
   xmlns="http://www.w3.org/2000/svg"
   xmlns:svg="http://www.w3.org/2000/svg"><defs
     id="defs66"><linearGradient
       id="l"
       x1="22"
       x2="22"
       y1="30"
       y2="8"
       gradientTransform="matrix(0,-4.7431834,-4.7431834,0,151.78892,39.485218)"
       gradientUnits="userSpaceOnUse"
       xlink:href="#k" /><linearGradient
       id="k"
       x2="0"
       y1="30"
       y2="8"
       gradientUnits="userSpaceOnUse"><stop
         stop-color="#cfd2d5"
         offset="0"
         id="stop29" /><stop
         stop-color="#eff0f1"
         offset="1"
         id="stop31" /></linearGradient><linearGradient
       id="m"
       x1="18"
       x2="30"
       y1="18"
       y2="30"
       gradientUnits="userSpaceOnUse"
       gradientTransform="matrix(4.7431834,0,0,4.7431834,-56.911139,-169.21483)"><stop
         stop-color="#292c2f"
         offset="0"
         id="stop3" /><stop
         stop-opacity="0"
         offset="1"
         id="stop5" /></linearGradient><linearGradient
       id="linearGradient1895"
       x1="408.57001"
       x2="408.57001"
       y1="512.79797"
       y2="504.698"
       gradientTransform="matrix(0.66667,0,0,-0.37037,-256.38,197.926)"
       gradientUnits="userSpaceOnUse"><stop
         stop-color="#ebc69a"
         offset="0"
         id="stop1891" /><stop
         stop-color="#73ba25"
         stop-opacity="0"
         offset="1"
         id="stop1893"
         style="stop-color:#40a5da;stop-opacity:1" /></linearGradient><linearGradient
       id="n"
       x1="411.57001"
       x2="411.57001"
       y1="512.80103"
       y2="503.80099"
       gradientTransform="matrix(1.33334,0,0,1.33334,-512.76,-667.734)"
       gradientUnits="userSpaceOnUse"
       xlink:href="#pippo"><stop
         stop-color="#ebc69a"
         offset="0"
         id="stop24" /><stop
         stop-color="#f4e0c8"
         stop-opacity="0"
         offset="1"
         id="stop26" /></linearGradient><linearGradient
       inkscape:collect="always"
       id="linearGradient1162"><stop
         style="stop-color:#005c9d;stop-opacity:1"
         offset="0"
         id="stop1158" /><stop
         style="stop-color:#40a5da;stop-opacity:1"
         offset="1"
         id="stop1160" /></linearGradient><linearGradient
       id="j"
       x2="0"
       y1="30"
       y2="8"
       gradientUnits="userSpaceOnUse"><stop
         stop-color="#cea476"
         offset="0"
         id="stop9-3" /><stop
         stop-color="#dab58b"
         offset="1"
         id="stop11-6" /></linearGradient><linearGradient
       id="p"
       x1="25"
       x2="25"
       y1="8"
       y2="2"
       gradientUnits="userSpaceOnUse"
       xlink:href="#j"
       gradientTransform="scale(2)" /><linearGradient
       inkscape:collect="always"
       xlink:href="#linearGradient1162"
       id="linearGradient1633"
       gradientUnits="userSpaceOnUse"
       x1="411.427"
       y1="543.79999"
       x2="411.427"
       y2="512.79999"
       gradientTransform="matrix(1.6601142,0,0,2.4925141,-626.09314,-1382.345)" /></defs><sodipodi:namedview
     id="namedview64"
     pagecolor="#ffffff"
     bordercolor="#000000"
     borderopacity="0.25"
     inkscape:showpageshadow="2"
     inkscape:pageopacity="0.0"
     inkscape:pagecheckerboard="0"
     inkscape:deskcolor="#d1d1d1"
     inkscape:document-units="pt"
     showgrid="false"
     inkscape:zoom="2.2124708"
     inkscape:cx="1.3559501"
     inkscape:cy="42.034453"
     inkscape:window-width="1366"
     inkscape:window-height="705"
     inkscape:window-x="0"
     inkscape:window-y="0"
     inkscape:window-maximized="1"
     inkscape:current-layer="g1070" /><linearGradient
     id="a"
     gradientUnits="userSpaceOnUse"
     x1="31.75304"
     x2="31.75304"
     y1="56.067872"
     y2="58.71396000006"><stop
       offset="0"
       stop-opacity=".27451"
       id="stop2" /><stop
       offset="1"
       stop-opacity="0"
       id="stop4" /></linearGradient><linearGradient
     id="b"><stop
       offset="0"
       stop-opacity=".313726"
       id="stop7" /><stop
       offset=".222222"
       stop-opacity=".27451"
       id="stop9" /><stop
       offset="1"
       stop-opacity="0"
       id="stop11" /></linearGradient><radialGradient
     id="c"
     cx="450.908936"
     cy="189.579361"
     gradientTransform="matrix(.00000035 -.156265 -.281277 -.0000002 106.24586 127.190665)"
     gradientUnits="userSpaceOnUse"
     r="21.166656"
     xlink:href="#b" /><radialGradient
     id="d"
     cx="450.908936"
     cy="189.579361"
     gradientTransform="matrix(-.00000035 .156265 .281277 .0000002 -42.409041 -15.054958)"
     gradientUnits="userSpaceOnUse"
     r="21.166656"
     xlink:href="#b" /><radialGradient
     id="e"
     cx="450.908936"
     cy="189.579361"
     gradientTransform="matrix(-.00000035 -.156265 .281277 -.0000002 -42.409041 127.190665)"
     gradientUnits="userSpaceOnUse"
     r="21.166656"
     xlink:href="#b" /><radialGradient
     id="f"
     cx="450.908936"
     cy="189.579361"
     gradientTransform="matrix(.00000035 .156265 -.281277 .0000002 106.245857 -15.054959)"
     gradientUnits="userSpaceOnUse"
     r="21.166656"
     xlink:href="#b" /><linearGradient
     id="g"
     gradientUnits="userSpaceOnUse"
     x1="31.753048"
     x2="31.753048"
     y1="56.067868"
     y2="5.79220799994"><stop
       offset="0"
       stop-color="#9ccc65"
       id="stop18"
       style="stop-color:#32bdff;stop-opacity:1;" /><stop
       offset="1"
       stop-color="#aed581"
       id="stop20"
       style="stop-color:#007ffc;stop-opacity:1;" /></linearGradient><linearGradient
     id="h"
     gradientUnits="userSpaceOnUse"
     x1="31.753048"
     x2="31.753048"
     y1="56.067868"
     y2="5.79220799994"><stop
       offset="0"
       stop-color="#bdbdbd"
       id="stop23" /><stop
       offset="1"
       stop-color="#e0e0e0"
       id="stop25" /></linearGradient><g
     id="g1070"
     transform="matrix(0.75,0,0,0.75,-3.6607485,81.764108)"><rect
       style="fill:none;stroke-width:0.474319"
       id="rect1087"
       width="151.78188"
       height="151.78188"
       x="-56.911137"
       y="-169.21484" /><path
       d="M 9.4934306,-104.18702 H 85.384368 v 77.267661 H 9.4934306 Z"
       id="path40-3"
       style="fill:url(#linearGradient1633);fill-opacity:1;stroke-width:2.04077" /><path
       d="M 9.4934306,-31.662543 H 85.384368 v 4.743184 H 9.4934306 Z"
       id="path58-5"
       style="fill:#005c9d;fill-opacity:1;stroke:none;stroke-width:2.3716" /><path
       d="m 33.062308,-89.320673 52.32206,52.32205 V -67.165271 L 67.564227,-84.990155 47.438898,-93.32392 Z m -10.079264,10.079256 52.322058,52.322058 H 45.138454 L 27.31357,-44.7395 18.979797,-64.864827 Z"
       fill="url(#m)"
       opacity="0.2"
       id="path52-2"
       style="fill:url(#m);stroke-width:2.3716" /><path
       d="m 75.898,-64.864827 a 28.269375,28.269375 0 0 1 -4.003247,14.37659 l -12.744934,-12.744935 3.405604,-3.41035 7.707674,7.707674 c 0.246646,-0.92492 0.464833,-1.849842 0.592899,-2.817451 0.03795,-0.246645 0.123317,-0.488547 0.151781,-0.739937 0.08064,-0.796855 0.14704,-1.551022 0.14704,-2.371591 A 23.715918,23.715918 0 0 0 47.438898,-88.580736 c -1.152594,0 -2.305188,0.132809 -3.410349,0.298815 -0.645073,0.09487 -1.299632,0.147039 -1.925733,0.294078 a 22.46846,22.46846 0 0 0 -3.856208,1.33283 c -0.142295,0.06641 -0.29882,0.08538 -0.441116,0.151782 -0.436373,0.189728 -0.777882,0.512263 -1.185796,0.739936 -0.03795,0.01897 -0.109094,-0.02371 -0.151782,0 l -3.405606,-3.557378 A 28.269375,28.269375 0 0 1 47.438898,-93.32392 28.459101,28.459101 0 0 1 75.898,-64.864827 Z m -14.082513,24.455854 a 28.269375,28.269375 0 0 1 -14.376589,4.003247 28.459101,28.459101 0 0 1 -28.459101,-28.459101 28.269375,28.269375 0 0 1 4.003247,-14.37659 l 3.557387,3.557388 9.040507,9.187546 -3.26331,3.263311 -7.707672,-7.560635 c -0.23716,0.924921 -0.460089,1.849842 -0.592899,2.817452 -0.0332,0.246644 -0.11858,0.488548 -0.142296,0.739936 -0.08538,0.796854 -0.151781,1.551021 -0.151781,2.371592 0,0.820569 0.06641,1.574736 0.147039,2.371591 0.08064,0.796855 0.142294,1.598453 0.298821,2.371592 a 23.796552,23.796552 0 0 0 23.270058,18.972734 c 1.17631,0 2.276728,-0.132809 3.41035,-0.29882 0.645072,-0.09487 1.299632,-0.147039 1.925732,-0.294077 1.361293,-0.317794 2.599265,-0.792111 3.856208,-1.332835 0.142296,-0.06166 0.29882,-0.08538 0.441116,-0.151783 0.426886,-0.189725 0.782625,-0.512263 1.185796,-0.739936 h 0.151783 z"
       fill="url(#l)"
       id="path54-7"
       style="fill:url(#l);stroke-width:2.3716" /></g></svg>
