<?xml version="1.0" encoding="UTF-8" standalone="no"?>
<!-- Created with Inkscape (http://www.inkscape.org/) -->

<svg
   version="1.1"
   id="svg2"
   width="1751.6151"
   height="254.87999"
   viewBox="0 0 1751.6151 254.88"
   sodipodi:docname="vendor-logo.svg"
   xml:space="preserve"
   inkscape:export-filename="mini-logotype-openbosniana.svg"
   inkscape:export-xdpi="26.780001"
   inkscape:export-ydpi="26.780001"
   inkscape:version="1.2.2 (b0a8486541, 2022-12-01)"
   xmlns:inkscape="http://www.inkscape.org/namespaces/inkscape"
   xmlns:sodipodi="http://sodipodi.sourceforge.net/DTD/sodipodi-0.dtd"
   xmlns="http://www.w3.org/2000/svg"
   xmlns:svg="http://www.w3.org/2000/svg"><defs
     id="defs6"><linearGradient
       id="linearGradient8856"
       inkscape:swatch="solid"><stop
         style="stop-color:#000000;stop-opacity:1;"
         offset="0"
         id="stop8854" /></linearGradient><linearGradient
       id="h-6"
       gradientUnits="userSpaceOnUse"
       x1="25.636999"
       x2="57.998001"
       y1="40.675999"
       y2="40.675999"
       gradientTransform="matrix(3.3400036,0,0,3.3400036,-1.0227687,4.5486979)"><stop
         offset="0"
         stop-color="#292c2f"
         id="stop9-7" /><stop
         offset="1"
         stop-color="#292c2f"
         stop-opacity="0"
         id="stop11-5" /></linearGradient><linearGradient
       x1="0.71004629"
       y1="1"
       x2="0"
       y2="1"
       id="linearGradient-1"><stop
         stop-color="#394A9F"
         offset="0%"
         id="stop5195" /><stop
         stop-color="#6176B9"
         offset="100%"
         id="stop5197" /></linearGradient></defs><sodipodi:namedview
     id="namedview4"
     pagecolor="#ffffff"
     bordercolor="#000000"
     borderopacity="0.25"
     inkscape:showpageshadow="2"
     inkscape:pageopacity="0.0"
     inkscape:pagecheckerboard="0"
     inkscape:deskcolor="#d1d1d1"
     showgrid="false"
     inkscape:zoom="0.35355339"
     inkscape:cx="924.89567"
     inkscape:cy="222.03153"
     inkscape:window-width="1366"
     inkscape:window-height="706"
     inkscape:window-x="0"
     inkscape:window-y="0"
     inkscape:window-maximized="1"
     inkscape:current-layer="svg2" /><style
     type="text/css"
     id="style183">
	.st0{fill:#15E0ED;}
	.st1{fill:url(#SVGID_1_);}
</style><style
     type="text/css"
     id="style183-2">
	.st0{fill:#15E0ED;}
	.st1{fill:url(#SVGID_1_);}
</style><g
     id="g4571-2-5-0"
     transform="matrix(0.48016243,-0.09442418,0.07207723,0.61693578,289.1961,319.61612)"
     style="clip-rule:evenodd;fill:#808080;fill-opacity:1;fill-rule:evenodd;stroke:none;stroke-linejoin:round;stroke-miterlimit:1.41421;stroke-opacity:0"><g
       id="g3914-1-3-2"
       style="mix-blend-mode:normal;fill:#808080;fill-opacity:1;stroke:none;stroke-opacity:0"
       transform="matrix(1.1722401,-0.16856947,-6.1285058e-4,1.4013685,890.42688,-502.66385)"><path
         class="cls-1"
         d="m -995.71689,78.114226 a 37.879052,26.445532 8.1509219 0 0 6.68815,0.603161 68.058957,47.515845 8.15093 0 0 22.81736,-2.031347 89.771834,62.674848 8.1509276 0 0 20.42775,-6.97306 120.62296,84.213776 8.1509296 0 0 20.55465,-12.941459 146.9438,102.58986 8.1509238 0 0 15.02807,-15.311815 c 1.74976,-2.228314 3.40083,-4.501954 4.83487,-6.859264 0.70221,-1.154387 1.32661,-2.338841 1.92006,-3.530303 0.59392,-1.192034 1.10763,-2.409112 1.65161,-3.616599 a 9.0317102,6.3055531 8.1509273 0 0 0.29201,-0.734031 c 0.51289,-2.016763 1.2606,-3.983186 1.58024,-6.043089 a 66.15177,46.184331 8.150927 0 0 0.39649,-6.215391 55.367563,38.65526 8.1509309 0 0 -4.12,-13.84893351 75.939446,53.017663 8.1509287 0 0 -8.53058,-11.40012349 133.18955,92.987236 8.1509191 0 0 -16.85361,-14.715927 c -4.27279,-3.203243 -8.72707,-6.277493 -13.31803,-9.248384 -2.75337,-1.781453 -5.57368,-3.509304 -8.37557,-5.251264 -7.29818,-4.537198 -14.5367,-9.12169 -21.66622,-13.79596 -5.64857,-3.703157 -11.18978,-7.483578 -16.58031,-11.375224 -5.12024,-3.69663 -10.06763,-7.504206 -14.73305,-11.487967 a 138.68297,96.822502 8.1509314 0 1 -12.1233,-11.675462 85.230533,59.504307 8.1509296 0 1 -9.528,-13.575694 60.47525,42.221228 8.1509283 0 1 -3.8088,-16.07658 65.223669,45.53637 8.1509295 0 1 0.6742,-5.24559 c 0.3376,-1.63483 0.8612,-3.21952 1.4295,-4.79961 a 65.075993,45.43327 8.1509293 0 1 2.8385,-5.7197 c 0.037,-0.06 0,-0.14885 -0.015,-0.22438 a 1.7828507,1.2447101 8.15092 0 0 -0.3658,0.13377 6.0690943,4.2371815 8.1509266 0 0 -0.5739,0.42882 99.972914,69.796814 8.1509272 0 0 -9.4487,10.43532 c -1.0516,1.47932 -2.0338,2.98602 -2.8703,4.53842 a 76.57162,53.459025 8.1509255 0 0 -3.3206,7.71161 78.755906,54.984 8.150928 0 0 1.3776,25.822518 104.48412,72.946323 8.1509269 0 0 7.2298,13.807714 148.71678,103.82769 8.1509169 0 0 10.8957,13.699585 213.82117,149.28075 8.1509323 0 0 20.711,19.26811 360.24028,251.50433 8.1509245 0 0 30.72849,22.358018 c 5.16931,3.41936 10.44512,6.752199 15.75866,10.0546083 a 4.6897474,3.274181 8.1509255 0 1 0.60358,0.4834142 0.26535135,0.18525696 8.1509258 0 1 0.0125,0.1521587 c -0.008,0.021818 -0.11217,0.037891 -0.15694,0.023556 -1.18253,-0.3814875 -2.37973,-0.7387123 -3.54016,-1.1573075 -4.17591,-1.5066017 -8.31028,-3.0738053 -12.34533,-4.7962757 a 179.31591,125.19068 8.1509404 0 1 -41.1488,-23.277214 164.69002,114.97951 8.1509281 0 1 -16.9224,-14.057957 124.67956,87.045931 8.1509113 0 1 -12.18,-13.769684 77.927427,54.405591 8.1509272 0 1 -6.6438,-11.736688 c -0.5182,-1.342672 -0.9031,-2.702134 -1.3517,-4.053687 -0.086,-0.259316 -0.1784,-0.518404 -0.2824,-0.775284 -0.012,-0.02508 -0.1296,-0.04714 -0.1972,-0.05049 -0.054,-0.0024 -0.1466,0.0163 -0.1544,0.04102 -0.3113,0.996163 -0.6285,1.991081 -0.9178,2.992012 -0.1047,0.348995 -0.1047,0.720002 -0.1996,1.071363 -0.4604,1.712025 -0.7094,3.458133 -1.0032,5.198313 -0.4152,2.459351 -0.6318,4.940574 -0.7151,7.437457 a 96.945568,67.683247 8.1509272 0 0 1.7156,15.068434 78.699082,54.944327 8.1509264 0 0 6.4002,13.938504 82.594539,57.663969 8.1509259 0 0 13.1404,14.470396 120.02546,83.796628 8.150918 0 0 15.0399,10.8122549 250.36402,174.7934 8.1509246 0 0 20.99971,11.7380996 q 9.66957,4.9960092 19.34656,9.9846615 c 2.0655,1.066642 4.13731,2.12766 6.18413,3.213266 a 57.006045,39.799173 8.1509297 0 1 11.94779,8.061595 43.331374,30.252108 8.1509303 0 1 9.74467,13.906385 42.044493,29.353662 8.1509326 0 1 0.83845,10.012708 39.430322,27.528559 8.150931 0 1 -1.62416,5.710913 56.270906,39.285936 8.1509235 0 1 -4.5908,7.114439 54.458856,38.020839 8.1509261 0 1 -18.87266,12.2587 52.641797,36.752248 8.1509267 0 1 -17.70871,3.544626 c -1.81358,0.110621 -3.66025,0.0971 -5.49384,0.130359 a 4.0289371,2.812831 8.1509271 0 0 -1.5229,0.146129 z"
         id="path5388-2-8-5-3"
         style="clip-rule:evenodd;display:inline;fill:#808080;fill-opacity:1;stroke:none;stroke-width:1.84162;stroke-miterlimit:10;stroke-opacity:0;enable-background:new" /><path
         class="cls-1"
         d="m -997.69867,-101.49471 a 41.848467,37.718675 35.975775 0 0 1.38823,6.542946 46.199798,41.640598 35.975843 0 0 2.15935,5.596589 44.474986,40.085996 35.975805 0 0 9.58749,13.400332 68.155247,61.429385 35.975793 0 0 11.04433,9.015632 138.53591,124.86458 35.975819 0 0 16.05798,9.38717 c 5.31856,2.756166 10.72681,5.310546 16.11061,7.920338 4.70287,2.279682 9.4087,4.555749 14.07103,6.924219 a 148.52267,133.86578 35.975839 0 1 14.55387,8.271103 84.898438,76.520286 35.975797 0 1 12.23725,9.186545 56.47955,50.9059 35.975778 0 1 9.67674,10.904089 46.761782,42.147121 35.975783 0 1 5.52435,10.5427783 q 0.41608,1.1237625 0.822,2.2502211 c 0.0573,0.1577787 0.14495,0.2137183 0.30442,0.1425641 a 0.31029395,0.27967276 35.975789 0 0 0.13863,-0.1118995 c 0.10972,-0.2899959 0.22258,-0.579998 0.30694,-0.8796454 a 41.290982,37.216204 35.975789 0 1 8.12378,-13.9283116 45.78665,41.268222 35.975803 0 1 9.16059,-7.14483 33.427612,30.128829 35.975772 0 1 9.35242,-3.413823 18.777706,16.924638 35.975791 0 1 9.88515,0.686108 16.539225,14.907063 35.975829 0 1 3.69075,1.818865 0.48924123,0.44096074 35.975817 0 0 0.68548,-0.10245 7.5312504,6.7880333 35.975798 0 0 0.84185,-3.061686 5.1707746,4.6604996 35.975791 0 0 -1.75074,-3.911527 10.799001,9.7333099 35.975755 0 0 -2.69342,-1.907159 27.278415,24.586462 35.97578 0 0 -5.93504,-2.26379 69.555323,62.691297 35.975788 0 0 -9.74033,-1.939892 c -1.5321,-0.205996 -3.06644,-0.35591 -4.5995,-0.541617 -0.39969,-0.0486 -0.79815,-0.134523 -1.19696,-0.205657 a 0.9003822,0.8115285 35.975809 0 1 -0.64381,-0.465821 14.570397,13.132526 35.975804 0 1 -1.61476,-3.245198 2.993153,2.6977755 35.975819 0 1 -0.13397,-0.768812 1.0354928,0.93330575 35.97579 0 1 0.94857,-0.941197 4.5068409,4.0620858 35.975764 0 1 0.98674,0.181002 8.9484483,8.0653759 35.975808 0 1 2.39913,1.173238 42.245535,38.076557 35.97578 0 0 5.55957,3.178043 11.6157,10.46941 35.975824 0 0 3.09641,1.036329 4.087927,3.6845122 35.975803 0 0 0.79308,0.02943 0.78251596,0.70529383 35.975813 0 0 0.531,-0.670751 13.720274,12.366297 35.975846 0 0 -1.09725,-3.198761 16.906715,15.238285 35.975802 0 0 -9.95689,-9.610955 25.719256,23.181164 35.975736 0 0 -7.06983,-1.890966 41.138319,37.078609 35.975815 0 0 -6.98914,-0.378919 44.53087,40.13637 35.975821 0 0 -4.95234,0.203627 c -2.71423,0.412526 -5.47189,0.633712 -8.16819,1.138129 -2.49778,0.467135 -4.98695,0.960931 -7.45092,1.524551 -3.09623,0.708212 -6.15561,1.527539 -9.21664,2.337027 -2.18617,0.578121 -4.34861,1.219884 -6.52256,1.830976 a 1.243037,1.1203688 35.975757 0 1 -1.15268,-0.09656 61.100291,55.070643 35.975784 0 0 -10.84106,-5.977439 c -5.40145,-2.568287 -10.83449,-5.062527 -16.23561,-7.631516 -7.20485,-3.42698 -14.31681,-7.049507 -21.21096,-11.122997 a 119.99948,108.15741 35.975807 0 1 -12.4113,-8.238817 69.03986,62.226699 35.975806 0 1 -9.44573,-8.340705 39.055696,35.201506 35.975784 0 1 -8.58412,-12.79895 1.5535357,1.4002259 35.975846 0 0 -0.18358,-0.34246 c -0.0308,-0.0434 -0.12413,-0.0477 -0.24474,-0.0881 z"
         id="path5390-7-6-7"
         style="clip-rule:evenodd;display:inline;fill:#808080;fill-opacity:1;stroke:none;stroke-width:1.94203;stroke-miterlimit:10;stroke-opacity:0;enable-background:new" /><path
         class="cls-1"
         d="m -1103.6918,-23.695126 a 0.7571163,0.71145131 3.4150368 0 0 -0.025,0.596559 c 0.2241,0.585124 0.436,1.174809 0.6754,1.754566 a 106.25651,99.847724 3.4149763 0 0 7.2278,14.3255947 71.714857,67.389423 3.4150387 0 0 13.3912,15.9569265 56.795951,53.370342 3.4150421 0 0 15.8417,9.7777968 66.226832,62.232404 3.4150371 0 0 6.3509,2.215386 c 2.1062,0.643365 4.2791,0.993378 6.4093,1.521886 a 27.06364,25.431312 3.4150178 0 0 2.9328,0.449628 c 0.599,0.08388 1.2032,0.133538 1.8019,0.220492 a 59.412377,55.828959 3.4150308 0 0 6.412,0.501933 c 2.3658,0.100455 4.7263,0.06156 7.0887,-0.0054 a 1.3471588,1.2659056 3.4150482 0 1 0.4164,0.123288 1.7699317,1.6631794 3.4150268 0 1 -0.2899,0.361269 30.64302,28.794805 3.4150636 0 1 -12.492,5.305615 38.306347,35.995926 3.4150382 0 1 -9.0211,0.59202 c -1.6022,-0.0594 -3.1751,-0.296995 -4.7612,-0.455851 -0.2189,-0.02162 0.069,-0.041 -0.089,0.102047 a 0.1520528,0.14288181 3.415022 0 0 0,0.136793 0.7865385,0.73909893 3.4150402 0 0 0.2096,0.228765 48.286946,45.374554 3.4150416 0 0 9.4627,4.420906 40.754425,38.296348 3.4150355 0 0 7.3699,1.72197 32.859665,30.877756 3.4150048 0 0 16.1036,-1.229069 32.362699,30.410764 3.4150425 0 0 12.9164,-7.74169 34.149027,32.089349 3.4150529 0 0 7.2948,-10.921098 22.822161,21.445655 3.4150377 0 0 1.142,-3.552467 c 0.1987,-0.962117 0.4611,-1.912205 0.6744,-2.8719054 a 1.788753,1.6808655 3.4150973 0 0 -0.028,-0.6087951 c -0.019,-0.085159 -0.1286,-0.2198438 -0.1994,-0.2210386 a 9.5185418,8.9444373 3.4150431 0 0 -1.1515,0.03987 q -4.6738,0.4537839 -9.3718,0.6131621 c -2.9107,0.099083 -5.8222,0.1642591 -8.7366,0.042129 -2.0874,-0.08742 -4.1781,-0.1226359 -6.2626,-0.2560349 -1.8107,-0.115798 -3.6156,-0.3275413 -5.4214,-0.5142779 -1.2586,-0.1302534 -2.518,-0.2630842 -3.77,-0.4424341 a 63.759281,59.913682 3.4150408 0 1 -6.3336,-1.1152181 c -0.6942,-0.1678935 -1.3906,-0.3325009 -2.0943,-0.4553691 a 58.094184,54.590272 3.4150311 0 1 -6.0808,-1.4772475 97.567028,91.682343 3.4150193 0 1 -27.9468,-12.5415424 101.00073,94.908956 3.4150752 0 1 -17.0471,-14.013209 c -0.6356,-0.649495 -1.245,-1.321186 -1.8768,-1.974061 a 1.7010732,1.5984741 3.4150359 0 0 -0.7473,-0.589304 z"
         id="path5392-0-2-5"
         style="clip-rule:evenodd;display:inline;fill:#808080;fill-opacity:1;stroke:none;stroke-width:1.58099;stroke-miterlimit:10;stroke-opacity:0;enable-background:new" /><path
         class="cls-1"
         d="m -1117.5792,29.047663 a 1.9318712,0.86657904 7.7414014 0 0 0.1198,0.768763 105.31517,47.241201 7.7413978 0 0 7.3382,7.524765 107.78369,48.348506 7.7414006 0 0 10.4053,7.742312 74.915896,33.605007 7.7414008 0 0 6.5472,3.927005 c 2.3873,1.238821 4.7226,2.499855 7.1765,3.710141 a 95.812264,42.978487 7.7413979 0 0 35.8098,12.633077 73.419809,32.933906 7.7413995 0 0 27.6208,4.137797 64.23774,28.815109 7.7413982 0 0 21.4257,-0.4484 55.279062,24.796517 7.7413959 0 0 6.4525,-1.098133 65.969662,29.591997 7.7414015 0 0 16.37747,-5.551622 62.007658,27.814761 7.7414007 0 0 9.15689,-7.560394 75.003574,33.644336 7.7414025 0 0 3.0169,-10.66805 90.960533,40.802146 7.7413987 0 0 -6.09305,-13.949896 103.91477,46.613027 7.7413993 0 0 -11.04127,-10.739884 8.5900009,3.8532148 7.7413993 0 0 -0.90542,-0.567682 0.49421793,0.22169122 7.7414031 0 0 -0.30238,-0.0888 c -0.10904,0.05916 -0.28521,0.130613 -0.26448,0.198373 0.20363,0.536106 0.44035,1.073133 0.68374,1.610026 a 106.57062,47.80436 7.7413975 0 1 2.53108,11.320941 75.233814,33.747616 7.7413972 0 1 -4.32301,10.749759 61.862926,27.749839 7.7414013 0 1 -7.41839,5.713035 54.037281,24.239492 7.7414002 0 1 -6.11954,2.719828 59.64398,26.754488 7.7413992 0 1 -17.47094,3.596221 67.413618,30.239712 7.7413983 0 1 -30.184,-0.660956 84.569219,37.935197 7.7413988 0 1 -32.5393,-7.177181 104.64945,46.942579 7.741401 0 1 -12.3367,-4.441158 109.02064,48.903364 7.7414002 0 1 -14.033,-6.569066 121.91915,54.689242 7.7413999 0 1 -11.6308,-6.830975 z"
         id="path5396-93-9-9"
         style="clip-rule:evenodd;display:inline;fill:#808080;fill-opacity:1;stroke:none;stroke-width:2.29545;stroke-miterlimit:10;stroke-opacity:0;enable-background:new" /></g></g><g
     id="layer3-8-6-9"
     style="fill:#f2f2f2"
     transform="matrix(5.5792404,0,0,2.5402269,-2411.8853,-870.34349)" /><g
     id="g5240"
     transform="translate(-454.0915,76.211845)"
     style="fill:#808080;fill-opacity:1"><path
       d="m 581.53151,178.66815 c 70.383,0 127.44,-57.057 127.44,-127.440002 0,-70.38299 -57.057,-127.439993 -127.44,-127.439993 -70.383,0 -127.44001,57.057003 -127.44001,127.439993 0,70.383002 57.05701,127.440002 127.44001,127.440002 z m 0,-10.62 c -64.518,0 -116.82,-52.302 -116.82,-116.820002 0,-64.51799 52.302,-116.819993 116.82,-116.819993 64.518,0 116.82,52.302003 116.82,116.819993 0,64.518002 -52.302,116.820002 -116.82,116.820002 z"
       fill="#de5833"
       id="path5204"
       style="fill:#808080;fill-opacity:1" /></g><path
     d="m 352.94843,193.92754 h -19.27468 a 38.662616,57.238754 0 0 1 -11.24901,-2.37313 35.278113,52.228106 0 0 1 -4.05095,-2.22158 q -7.02383,-4.5947 -12.19641,-12.57498 a 38.103977,56.411706 0 0 1 -7.68809,-17.58402 43.599984,64.548367 0 0 1 -0.37025,-1.35907 q -2.88576,-10.96281 -2.88576,-23.69901 a 45.657039,67.59377 0 0 1 1.01818,-14.51927 38.424133,56.885687 0 0 1 1.86758,-9.01852 36.148196,53.516235 0 0 1 5.75954,-14.449951 33.525968,49.634112 0 0 1 2.2988,-3.68705 q 5.17258,-7.496626 12.19641,-11.607679 a 40.134897,59.418418 0 0 1 12.24106,-3.965956 47.344935,70.092646 0 0 1 3.0589,-0.145096 h 19.27468 a 45.541608,67.422879 0 0 1 9.69832,1.478366 38.525406,57.035619 0 0 1 6.03723,2.713295 36.191754,53.580723 0 0 1 10.60325,9.484441 34.300222,50.78037 0 0 1 1.6476,2.284456 35.588468,52.687576 0 0 1 7.72512,17.316404 40.739272,60.313176 0 0 1 0.22433,0.82059 40.355957,59.74569 0 0 1 2.63203,16.68443 48.966404,72.493178 0 0 1 0.19928,6.61154 45.218186,66.944063 0 0 1 -1.4908,17.39217 40.802432,60.406682 0 0 1 -1.39496,6.30684 q -2.88576,10.96281 -8.05834,18.94309 -5.17259,7.98028 -12.25086,12.57498 a 37.267652,55.173554 0 0 1 -12.4044,4.43027 44.419974,65.762336 0 0 1 -3.1678,0.16444 z m -19.27468,-20.47466 h 19.27468 a 26.433538,39.133999 0 0 0 6.77119,-1.24943 23.378991,34.611841 0 0 0 3.24729,-1.65249 q 4.57365,-2.90192 7.895,-7.98028 a 23.867937,35.335709 0 0 0 4.75006,-10.64359 27.696738,41.004125 0 0 0 0.42252,-1.52835 q 1.85124,-7.09358 1.85124,-15.31568 a 29.249602,43.30309 0 0 0 -0.87444,-10.73388 25.96855,38.445599 0 0 0 -0.9768,-4.5012 q -1.85124,-7.01297 -5.17258,-12.01072 -3.32135,-4.99776 -7.895,-7.81907 a 25.045108,37.078473 0 0 0 -7.9244,-2.713291 29.738547,44.026958 0 0 0 -2.09408,-0.108016 h -19.27468 a 26.159119,38.72773 0 0 0 -6.95086,1.333271 23.408393,34.65537 0 0 0 -2.90427,1.488036 q -4.51921,2.82131 -7.7861,7.81907 a 23.997523,35.527558 0 0 0 -4.75769,10.64682 27.686937,40.989615 0 0 0 -0.36045,1.28329 26.5261,39.271034 0 0 0 -1.70423,10.71453 32.295437,47.812351 0 0 0 -0.14701,4.60116 29.368299,43.478818 0 0 0 0.99858,11.46742 26.578371,39.348419 0 0 0 0.85266,3.84826 q 1.85124,7.09359 5.11814,12.17194 3.26689,5.07836 7.7861,7.98028 a 24.044349,35.596881 0 0 0 8.37087,2.8455 28.156281,41.684464 0 0 0 1.48426,0.0564 z"
     id="0-6"
     style="font-size:12px;fill:#00bcee;fill-opacity:1;fill-rule:nonzero;stroke-width:0.331248mm;stroke-linecap:round" /><path
     d="m 490.59362,161.36155 h -31.79778 v -19.82978 h 31.79778 a 20.699048,30.644272 0 0 0 4.63681,-0.72387 q 4.06402,-1.38164 6.74287,-5.40241 a 13.943109,20.642322 0 0 0 3.85603,-11.61251 19.583948,28.993402 0 0 0 0.22759,-4.50926 18.63437,27.587583 0 0 0 -0.54993,-6.89368 13.198257,19.539593 0 0 0 -3.53369,-9.2281 13.407338,19.849131 0 0 0 -6.16899,-5.054177 q -2.06467,-0.796415 -4.50504,-0.89637 a 25.587412,37.881337 0 0 0 -0.70565,-0.01451 H 448.66846 V 193.92754 H 434.9475 V 76.722228 h 55.64612 q 6.86048,0 12.25085,2.982528 a 27.09454,40.112591 0 0 1 6.01109,4.602767 23.45413,34.723081 0 0 1 3.08177,3.780557 23.898428,35.38085 0 0 1 5.27168,11.680226 27.900374,41.305602 0 0 1 0.39094,1.459024 q 1.96014,7.73845 1.96014,17.41152 a 36.612095,54.203023 0 0 1 -0.61962,10.16477 30.077215,44.528345 0 0 1 -1.34052,7.16613 26.029532,38.535881 0 0 1 -4.54752,11.64476 24.70644,36.577085 0 0 1 -1.1151,1.81693 24.943834,36.92854 0 0 1 -7.42892,7.72878 29.532733,43.722257 0 0 1 -1.66394,1.05759 29.970497,44.370352 0 0 1 -6.91928,2.62462 39.069889,57.841708 0 0 1 -5.33157,0.51912 z"
     id="2-7"
     style="font-size:12px;fill:#00bcee;fill-opacity:1;fill-rule:nonzero;stroke-width:0.331248mm;stroke-linecap:round" /><path
     d="M 632.15908,193.92754 H 561.37635 V 76.722228 h 70.67383 v 20.474655 h -56.95287 v 76.255997 h 57.06177 z m -3.04911,-50.94481 h -43.88529 v -17.2503 h 43.88529 z"
     id="4-5"
     style="font-size:12px;fill:#00bcee;fill-opacity:1;fill-rule:nonzero;stroke-width:0.331248mm;stroke-linecap:round" /><path
     d="m 744.54027,191.02562 -55.64611,-82.86593 v 85.76785 H 675.71768 V 87.523818 a 12.332529,18.257911 0 0 1 0.2363,-3.67899 q 0.4345,-3.126012 1.66939,-5.268596 a 6.2506595,9.2538994 0 0 1 4.32972,-3.246926 8.8217061,13.060251 0 0 1 0.84286,-0.05804 q 1.52455,0 2.94021,0.967306 a 7.9429113,11.759223 0 0 1 1.21419,1.046304 q 0.57498,0.593281 1.1652,1.386472 a 15.766036,23.341107 0 0 1 0.56081,0.79158 l 55.86391,82.059842 V 75.754921 h 13.17648 V 183.12595 a 13.006599,19.255849 0 0 1 -0.20473,3.53067 q -0.2559,2.02973 -0.83088,3.6274 a 6.6938683,9.9100557 0 0 1 -0.87008,1.87012 6.203834,9.1845758 0 0 1 -4.53118,3.20824 8.2129746,12.159043 0 0 1 -0.42361,0.0161 7.8928189,11.685063 0 0 1 -4.24261,-1.87496 11.7532,17.400233 0 0 1 -2.07339,-2.47792 z"
     id="6-3"
     style="font-size:12px;fill:#00bcee;fill-opacity:1;fill-rule:nonzero;stroke-width:0.331248mm;stroke-linecap:round" /><path
     d="M 862.58409,193.92754 H 803.0177 V 76.722228 h 57.93294 a 44.32959,65.628526 0 0 1 5.84121,0.546528 34.773922,51.481667 0 0 1 4.6673,1.388085 26.502143,39.235566 0 0 1 4.64988,2.579484 21.161858,31.329447 0 0 1 3.46291,3.143746 q 3.37579,3.788618 5.22703,9.511848 a 18.693174,27.674641 0 0 1 1.62256,8.135051 24.160868,35.769384 0 0 1 0.22868,5.0042 28.149747,41.674791 0 0 1 -0.16661,4.65919 q -0.17423,2.28929 -0.53032,4.27549 a 16.244092,24.048853 0 0 1 -0.17424,0.8996 17.455021,25.841595 0 0 1 -1.10421,4.09816 13.714426,20.303765 0 0 1 -1.29151,3.07603 q -1.52455,2.98253 -3.53914,4.99775 a 15.588535,23.078322 0 0 1 -3.49884,2.64558 14.351471,21.246889 0 0 1 -0.69367,0.33695 q 5.44482,2.57948 8.92951,9.35063 a 16.630675,24.621176 0 0 1 3.03495,10.13092 23.383347,34.61829 0 0 1 0.44974,6.95816 28.463369,42.139098 0 0 1 -0.56408,8.55583 23.295141,34.487703 0 0 1 -1.23271,6.03438 q -1.7968,6.52932 -5.11814,11.20463 a 21.834839,32.325773 0 0 1 -6.33124,6.16013 25.98924,38.476231 0 0 1 -1.7271,1.01406 28.982805,42.908107 0 0 1 -6.66229,2.20385 36.095925,53.438851 0 0 1 -3.84622,0.29503 z m -0.54449,-50.94481 h -35.17357 v -17.2503 h 34.19351 a 25.408822,37.61694 0 0 0 3.06761,-0.25473 q 3.3845,-0.61101 5.38493,-2.68589 a 7.2710198,10.76451 0 0 0 0.25918,-0.28374 6.5904166,9.7568988 0 0 0 2.14635,-4.43832 q 0.68495,-2.71491 0.68495,-6.52449 a 13.576128,20.099018 0 0 0 -0.14047,-2.99542 q -0.27115,-2.64881 -1.05739,-4.5012 a 7.6336452,11.301365 0 0 0 -2.82259,-3.89664 9.4239038,13.951785 0 0 0 -0.60765,-0.456242 q -2.0919,-1.434838 -4.95043,-1.950734 a 23.921296,35.414705 0 0 0 -0.3855,-0.06449 q -3.10355,-0.483653 -6.91492,-0.483653 H 816.84755 V 173.6141 h 40.07392 a 44.184758,65.414106 0 0 0 4.20558,-0.28374 35.569955,52.660169 0 0 0 2.6549,-0.52235 20.706671,30.655557 0 0 0 2.76924,-0.98504 15.107212,22.36574 0 0 0 2.67558,-1.67505 10.394172,15.388235 0 0 0 2.19209,-2.34088 8.761813,12.971581 0 0 0 1.34705,-2.41504 q 1.20004,-2.78101 1.25013,-6.89368 a 13.521679,20.018409 0 0 0 0.002,-0.36112 12.616749,18.67869 0 0 0 -0.35936,-4.59632 8.5756,12.695899 0 0 0 -2.68974,-6.60832 9.7571271,14.445111 0 0 0 -3.41173,-2.80196 q -2.34763,-1.14787 -5.51761,-1.14787 z"
     id="8-5"
     style="font-size:12px;fill:#808080;fill-rule:nonzero;stroke-width:0.331248mm;stroke-linecap:round" /><path
     d="M 987.59728,193.92754 H 968.3226 a 38.662616,57.238754 0 0 1 -11.24901,-2.37313 35.278113,52.228106 0 0 1 -4.05095,-2.22158 q -7.02383,-4.5947 -12.19641,-12.57498 a 38.103977,56.411706 0 0 1 -7.6881,-17.58402 43.599984,64.548367 0 0 1 -0.37024,-1.35907 q -2.88576,-10.96281 -2.88576,-23.69901 a 45.657039,67.59377 0 0 1 1.01818,-14.51927 38.424133,56.885687 0 0 1 1.86758,-9.01852 36.148196,53.516235 0 0 1 5.75953,-14.449951 33.525968,49.634112 0 0 1 2.29881,-3.68705 q 5.17258,-7.496626 12.19641,-11.607679 a 40.134897,59.418418 0 0 1 12.24105,-3.965956 47.344935,70.092646 0 0 1 3.05891,-0.145096 h 19.27468 a 45.541608,67.422879 0 0 1 9.69832,1.478366 38.525406,57.035619 0 0 1 6.0372,2.713295 36.191754,53.580723 0 0 1 10.6033,9.484441 34.300222,50.78037 0 0 1 1.6476,2.284456 35.588468,52.687576 0 0 1 7.7251,17.316404 40.739272,60.313176 0 0 1 0.2243,0.82059 40.355957,59.74569 0 0 1 2.6321,16.68443 48.966404,72.493178 0 0 1 0.1992,6.61154 45.218186,66.944063 0 0 1 -1.4908,17.39217 40.802432,60.406682 0 0 1 -1.3949,6.30684 q -2.8858,10.96281 -8.0584,18.94309 -5.1725,7.98028 -12.2508,12.57498 a 37.267652,55.173554 0 0 1 -12.40442,4.43027 44.419974,65.762336 0 0 1 -3.1678,0.16444 z M 968.3226,173.45288 h 19.27468 a 26.433538,39.133999 0 0 0 6.77118,-1.24943 23.378991,34.611841 0 0 0 3.2473,-1.65249 q 4.57364,-2.90192 7.89504,-7.98028 a 23.867937,35.335709 0 0 0 4.75,-10.64359 27.696738,41.004125 0 0 0 0.4225,-1.52835 q 1.8513,-7.09358 1.8513,-15.31568 a 29.249602,43.30309 0 0 0 -0.8745,-10.73388 25.96855,38.445599 0 0 0 -0.9768,-4.5012 q -1.8512,-7.01297 -5.1726,-12.01072 -3.3213,-4.99776 -7.89494,-7.81907 a 25.045108,37.078473 0 0 0 -7.9244,-2.713291 29.738547,44.026958 0 0 0 -2.09408,-0.108016 H 968.3226 a 26.159119,38.72773 0 0 0 -6.95087,1.333271 23.408393,34.65537 0 0 0 -2.90427,1.488036 q -4.5192,2.82131 -7.7861,7.81907 a 23.997523,35.527558 0 0 0 -4.75769,10.64682 27.686937,40.989615 0 0 0 -0.36045,1.28329 26.5261,39.271034 0 0 0 -1.70423,10.71453 32.295437,47.812351 0 0 0 -0.14701,4.60116 29.368299,43.478818 0 0 0 0.99859,11.46742 26.578371,39.348419 0 0 0 0.85265,3.84826 q 1.85125,7.09359 5.11814,12.17194 3.2669,5.07836 7.7861,7.98028 a 24.044349,35.596881 0 0 0 8.37088,2.8455 28.156281,41.684464 0 0 0 1.48426,0.0564 z"
     id="10-6"
     style="font-size:12px;fill:#808080;fill-rule:nonzero;stroke-width:0.331248mm;stroke-linecap:round" /><path
     d="m 1128.9449,193.92754 h -59.3485 v -20.47466 h 59.3485 a 17.451754,25.836758 0 0 0 3.3606,-0.44818 q 1.934,-0.56265 3.4379,-1.82982 a 9.0601894,13.413318 0 0 0 1.7499,-1.91366 9.41737,13.942112 0 0 0 2.8901,-8.62031 13.161232,19.484778 0 0 0 0.1046,-2.50371 13.930041,20.622976 0 0 0 -0.2919,-4.36578 q -0.4072,-2.78101 -1.3808,-4.84621 a 7.7283851,11.441624 0 0 0 -1.322,-2.15387 9.7963298,14.50315 0 0 0 -3.4847,-2.77294 q -1.4363,-0.66583 -3.1678,-0.89476 a 21.320847,31.564825 0 0 0 -1.8959,-0.12091 h -36.3714 a 31.591966,46.770884 0 0 1 -5.8423,-0.76901 25.567811,37.852318 0 0 1 -4.2306,-1.72987 23.455219,34.724693 0 0 1 -4.8666,-3.64836 19.925883,29.499626 0 0 1 -2.7562,-3.284 q -3.1035,-4.43349 -4.7914,-10.55977 -1.6879,-6.12627 -1.6879,-13.38107 0,-7.09358 1.579,-13.139247 1.579,-6.045666 4.6825,-10.398545 a 20.797055,30.789368 0 0 1 4.9625,-5.108991 25.875988,38.308564 0 0 1 2.7147,-1.742764 26.602328,39.383887 0 0 1 5.5592,-2.020059 35.537286,52.611804 0 0 1 4.8949,-0.478816 h 56.844 v 20.474655 h -56.844 q -3.684,0 -6.0808,2.240927 a 7.9625126,11.788243 0 0 0 -1.3242,1.54769 8.3926538,12.425053 0 0 0 -2.2759,6.07791 q -0.3267,1.98459 -0.3365,4.33031 a 15.883645,23.515222 0 0 0 -10e-4,0.15154 12.560123,18.594856 0 0 0 0.3126,4.27066 q 0.5314,3.34205 1.9732,5.6394 a 7.918954,11.723756 0 0 0 0.3822,0.5691 8.918624,13.203735 0 0 0 4.0803,3.18727 q 1.4462,0.52074 3.1613,0.52074 h 36.2625 a 41.203172,60.999964 0 0 1 6.9868,0.81898 q 7.0576,1.80081 11.3623,7.56434 5.4644,7.31606 6.1603,21.25817 a 38.624502,57.182327 0 0 1 0.1012,4.21424 28.853219,42.716258 0 0 1 -0.625,9.03948 24.839293,36.773771 0 0 1 -0.8995,4.66403 q -1.5246,6.28749 -4.5737,10.88219 -3.0491,4.59471 -7.6772,7.17419 a 26.03171,38.539106 0 0 1 -5.1922,1.97492 q -2.3064,0.5288 -4.897,0.5949 a 43.215579,63.979268 0 0 1 -0.7461,0.01 z"
     id="12"
     style="font-size:12px;fill:#808080;fill-rule:nonzero;stroke-width:0.331248mm;stroke-linecap:round" /><path
     d="m 1265.9368,191.02562 -55.6462,-82.86593 v 85.76785 h -13.1764 V 87.523818 a 12.332529,18.257911 0 0 1 0.2363,-3.67899 q 0.4345,-3.126012 1.6694,-5.268596 a 6.2506595,9.2538994 0 0 1 4.3297,-3.246926 8.8217061,13.060251 0 0 1 0.8428,-0.05804 q 1.5246,0 2.9402,0.967306 a 7.9429113,11.759223 0 0 1 1.2142,1.046304 q 0.575,0.593281 1.1652,1.386472 a 15.766036,23.341107 0 0 1 0.5608,0.79158 l 55.864,82.059842 V 75.754921 h 13.1764 V 183.12595 a 13.006599,19.255849 0 0 1 -0.2047,3.53067 q -0.2559,2.02973 -0.8309,3.6274 a 6.6938683,9.9100557 0 0 1 -0.8701,1.87012 6.203834,9.1845758 0 0 1 -4.5311,3.20824 8.2129746,12.159043 0 0 1 -0.4236,0.0161 7.8928189,11.685063 0 0 1 -4.2427,-1.87496 11.7532,17.400233 0 0 1 -2.0733,-2.47792 z"
     id="14"
     style="font-size:12px;fill:#808080;fill-rule:nonzero;stroke-width:0.331248mm;stroke-linecap:round" /><path
     d="m 1339.1152,193.92754 h -13.8299 V 76.722228 h 13.8299 z"
     id="16"
     style="font-size:12px;fill:#808080;fill-rule:nonzero;stroke-width:0.331248mm;stroke-linecap:round" /><path
     d="m 1484.8187,193.92754 h -16.6612 l -11.8697,-29.50285 h -37.4604 l 6.5338,-16.60543 h 24.2839 l -17.6412,-43.85123 -35.9359,89.95951 h -15.79 l 45.5188,-112.207562 q 1.1978,-3.063137 2.8313,-4.836533 a 6.1624534,9.123313 0 0 1 2.9511,-1.68795 7.9853809,11.822098 0 0 1 0.9692,-0.08544 7.2405288,10.719369 0 0 1 1.8969,0.351455 5.6789529,8.4075062 0 0 1 1.9689,1.42194 9.6264513,14.25165 0 0 1 1.6988,2.481142 12.91077,19.113978 0 0 1 1.0781,2.355391 z"
     id="18"
     style="font-size:12px;fill:#808080;fill-rule:nonzero;stroke-width:0.331248mm;stroke-linecap:round" /><path
     d="m 1593.8241,191.02562 -55.6461,-82.86593 v 85.76785 h -13.1765 V 87.523818 a 12.332529,18.257911 0 0 1 0.2363,-3.67899 q 0.4345,-3.126012 1.6694,-5.268596 a 6.2506595,9.2538994 0 0 1 4.3297,-3.246926 8.8217061,13.060251 0 0 1 0.8429,-0.05804 q 1.5245,0 2.9402,0.967306 a 7.9429113,11.759223 0 0 1 1.2142,1.046304 q 0.5749,0.593281 1.1652,1.386472 a 15.766036,23.341107 0 0 1 0.5608,0.79158 l 55.8639,82.059842 V 75.754921 h 13.1765 V 183.12595 a 13.006599,19.255849 0 0 1 -0.2048,3.53067 q -0.2559,2.02973 -0.8308,3.6274 a 6.6938683,9.9100557 0 0 1 -0.8701,1.87012 6.203834,9.1845758 0 0 1 -4.5312,3.20824 8.2129746,12.159043 0 0 1 -0.4236,0.0161 7.8928189,11.685063 0 0 1 -4.2426,-1.87496 11.7532,17.400233 0 0 1 -2.0734,-2.47792 z"
     id="20"
     style="font-size:12px;fill:#808080;fill-rule:nonzero;stroke-width:0.331248mm;stroke-linecap:round" /><path
     d="m 1751.6151,193.92754 h -16.6611 l -11.8698,-29.50285 h -37.4603 l 6.5337,-16.60543 h 24.284 l -17.6413,-43.85123 -35.9358,89.95951 h -15.79 l 45.5187,-112.207562 q 1.1979,-3.063137 2.8313,-4.836533 a 6.1624534,9.123313 0 0 1 2.9511,-1.68795 7.9853809,11.822098 0 0 1 0.9692,-0.08544 7.2405288,10.719369 0 0 1 1.897,0.351455 5.6789529,8.4075062 0 0 1 1.9688,1.42194 9.6264513,14.25165 0 0 1 1.6988,2.481142 12.91077,19.113978 0 0 1 1.0781,2.355391 z"
     id="22"
     style="font-size:12px;fill:#808080;fill-rule:nonzero;stroke-width:0.331248mm;stroke-linecap:round" /></svg>
