<?xml version="1.0" encoding="utf-8"?>
<!-- Generator: Adobe Illustrator 24.2.3, SVG Export Plug-In . SVG Version: 6.00 Build 0)  -->
<svg version="1.1" id="Layer_1" xmlns="http://www.w3.org/2000/svg" xmlns:xlink="http://www.w3.org/1999/xlink" x="0px" y="0px"
	 viewBox="3358.398 -6160.825 36 36" style="enable-background:new 3358.398 -6160.825 36 36;" xml:space="preserve">
<style type="text/css">
	.st0{opacity:0.05;}
	.st1{opacity:0.07;}
	.st2{opacity:0.05;enable-background:new    ;}
	.st3{opacity:0.07;enable-background:new    ;}
	.st4{fill:url(#SVGID_1_);}
	.st5{opacity:0.1;}
	.st6{fill:#FFFFFF;}
	.st7{fill:url(#SVGID_2_);}
	.st8{fill:url(#SVGID_3_);}
	.st9{fill:#91C855;}
	.st10{fill:#F0F0F1;}
	.st11{fill:url(#SVGID_4_);}
	.st12{fill:url(#SVGID_5_);}
	.st13{fill:url(#SVGID_6_);}
	.st14{fill:url(#SVGID_7_);}
	.st15{fill:url(#SVGID_8_);}
	.st16{fill:url(#SVGID_9_);}
	.st17{fill:url(#SVGID_10_);}
	.st18{fill:url(#SVGID_11_);}
	.st19{fill:#3C73B4;}
	.st20{fill:url(#SVGID_12_);}
	.st21{fill:url(#SVGID_13_);}
	.st22{fill:url(#SVGID_14_);}
	.st23{fill:#EB6E23;}
	.st24{fill:#FF9B5A;}
	.st25{fill:url(#SVGID_15_);}
	.st26{fill:url(#SVGID_16_);}
	.st27{fill:url(#SVGID_17_);}
	.st28{fill:url(#SVGID_18_);}
	.st29{fill:url(#SVGID_19_);}
	.st30{fill:url(#SVGID_20_);}
	.st31{fill:url(#SVGID_21_);}
	.st32{fill:#2864A0;}
	.st33{fill:url(#SVGID_22_);}
	.st34{fill:url(#SVGID_23_);}
	.st35{fill:#64A0D2;}
	.st36{fill:url(#SVGID_24_);}
	.st37{fill:url(#SVGID_25_);}
	.st38{fill:url(#SVGID_26_);}
	.st39{fill:#BE4B41;}
	.st40{fill:#FFCD64;}
	.st41{fill:#8C8C8C;}
	.st42{fill:url(#SVGID_27_);}
	.st43{fill:url(#SVGID_28_);}
</style>
<path class="st0" d="M3394.153-6153.042c-0.188-0.767-0.876-1.303-1.673-1.303c-0.462,0-0.897,0.181-1.224,0.508l-1.588,1.587
	l-1.067,1.066c-0.349,0.35-0.814,0.542-1.309,0.542c-0.495,0-0.959-0.192-1.308-0.541c-0.35-0.35-0.542-0.814-0.542-1.308
	s0.192-0.959,0.542-1.308l2.656-2.655c0.441-0.44,0.61-1.088,0.443-1.691c-0.169-0.605-0.632-1.056-1.238-1.205
	c-0.663-0.163-1.343-0.246-2.021-0.246c-0.524,0-1.055,0.05-1.578,0.148c-3.711,0.699-6.569,3.794-6.952,7.526
	c-0.083,0.809-0.051,1.623,0.095,2.423l-2.567,2.567c-0.032,0.026-0.063,0.054-0.093,0.083l-0.587,0.587l-6.648-6.595l-1.983-2.935
	c-0.128-0.189-0.306-0.338-0.516-0.429l-3.77-1.639c-0.151-0.066-0.312-0.1-0.478-0.1c-0.32,0-0.622,0.125-0.848,0.351l-1.148,1.147
	c-0.351,0.351-0.45,0.872-0.252,1.327l1.639,3.771c0.091,0.209,0.239,0.387,0.428,0.516l2.939,1.986l6.645,6.59l-0.639,0.639
	c-0.03,0.03-0.059,0.063-0.086,0.097l-3.756,3.756l-2.373,2.373l-1.004,1.004c-0.924,0.923-1.433,2.151-1.433,3.458
	c0,1.306,0.509,2.533,1.432,3.456c0.923,0.923,2.15,1.432,3.456,1.432c1.305,0,2.533-0.508,3.456-1.432l0.318-0.318l6.06-6.06
	c2.914,2.914,6.216,6.216,6.38,6.379c0.922,0.922,2.149,1.43,3.455,1.43c1.305,0,2.533-0.508,3.456-1.432
	c0.923-0.923,1.431-2.15,1.431-3.456c0-1.306-0.509-2.534-1.431-3.457c-0.159-0.159-3.274-3.273-6.121-6.121l-0.257-0.257l1.81-1.81
	c0.512,0.093,1.031,0.14,1.546,0.14c0.292,0,0.588-0.015,0.879-0.045c3.731-0.384,6.825-3.243,7.524-6.952
	C3394.477-6150.646,3394.444-6151.857,3394.153-6153.042z"/>
<path class="st1" d="M3393.57-6152.898c-0.123-0.499-0.571-0.847-1.09-0.847c-0.302,0-0.586,0.118-0.8,0.332l-1.588,1.588
	l-1.067,1.066c-0.463,0.463-1.078,0.718-1.733,0.718s-1.27-0.254-1.732-0.717c-0.463-0.462-0.718-1.078-0.718-1.732
	c0-0.655,0.255-1.27,0.718-1.732l2.655-2.655c0.288-0.288,0.399-0.711,0.289-1.106c-0.11-0.394-0.41-0.687-0.803-0.783
	c-0.617-0.152-1.249-0.229-1.877-0.229c-0.488,0-0.981,0.046-1.468,0.138c-3.451,0.65-6.11,3.528-6.466,6.997
	c-0.088,0.856-0.037,1.716,0.15,2.559c-0.451,0.451-1.488,1.488-2.823,2.823c-0.024,0.017-0.046,0.037-0.068,0.058l-1.007,1.007
	l-7.114-7.057l-2.016-2.983c-0.064-0.094-0.153-0.169-0.258-0.214l-3.77-1.639c-0.077-0.034-0.158-0.05-0.239-0.05
	c-0.156,0-0.31,0.061-0.425,0.176l-1.147,1.147c-0.174,0.174-0.224,0.438-0.126,0.664l1.639,3.77
	c0.045,0.104,0.12,0.194,0.214,0.258l2.985,2.017l7.113,7.054l-1.065,1.065c-0.021,0.021-0.042,0.045-0.059,0.069l-3.783,3.783
	c-1.909,1.909-3.292,3.292-3.378,3.378c-0.811,0.81-1.256,1.887-1.256,3.033s0.446,2.222,1.256,3.032
	c0.809,0.81,1.886,1.256,3.032,1.256c1.145,0,2.222-0.446,3.032-1.256l0.318-0.318l6.484-6.484c3.008,3.008,6.631,6.631,6.803,6.802
	c0.809,0.809,1.886,1.255,3.031,1.255c1.145,0,2.222-0.446,3.032-1.256s1.256-1.886,1.256-3.032s-0.446-2.223-1.256-3.032
	c-0.172-0.171-3.795-3.794-6.802-6.802c1.16-1.16,2.053-2.053,2.461-2.461c0.575,0.127,1.16,0.192,1.743,0.192
	c0.271,0,0.547-0.014,0.818-0.042c3.469-0.357,6.345-3.016,6.996-6.466C3393.871-6150.672,3393.841-6151.797,3393.57-6152.898z"/>
<radialGradient id="SVGID_1_" cx="3386.364" cy="6653.5703" r="10.8461" gradientTransform="matrix(1 0 0 -1 0 502.1098)" gradientUnits="userSpaceOnUse">
	<stop  offset="0" style="stop-color:#8C8C8C"/>
	<stop  offset="1" style="stop-color:#B9B9B9"/>
</radialGradient>
<path class="st4" d="M3378.708-6149.12c-0.289,0.289-15.282,15.282-15.571,15.57c-1.44,1.44-1.44,3.775,0,5.215
	c1.44,1.44,3.775,1.44,5.215,0c0.289-0.289,15.282-15.282,15.571-15.57L3378.708-6149.12z"/>
<circle class="st10" cx="3366.155" cy="-6131.352" r="1.639"/>
<linearGradient id="SVGID_2_" gradientUnits="userSpaceOnUse" x1="3380.1936" y1="6658.0454" x2="3390.4619" y2="6647.7769" gradientTransform="matrix(1 0 0 -1 0 502.1098)">
	<stop  offset="0" style="stop-color:#B9B9B9"/>
	<stop  offset="1" style="stop-color:#8C8C8C"/>
</linearGradient>
<path class="st7" d="M3389.449-6150.333c-1.191,1.191-3.122,1.191-4.313,0c-1.191-1.191-1.191-3.122,0-4.313
	c0.291-0.291,1.462-1.462,2.655-2.655c0.286-0.286,0.159-0.786-0.234-0.882c-0.967-0.238-2.008-0.288-3.09-0.084
	c-3.175,0.599-5.651,3.255-5.98,6.469c-0.48,4.686,3.43,8.596,8.116,8.114c3.213-0.33,5.869-2.806,6.468-5.98
	c0.204-1.083,0.154-2.123-0.083-3.089c-0.097-0.394-0.597-0.521-0.883-0.234C3390.911-6151.795,3389.74-6150.623,3389.449-6150.333z
	"/>
<linearGradient id="SVGID_3_" gradientUnits="userSpaceOnUse" x1="3359.5984" y1="6645.4263" x2="3386.6418" y2="6645.4263" gradientTransform="matrix(1 0 0 -1 0 502.1098)">
	<stop  offset="0" style="stop-color:#B9B9B9"/>
	<stop  offset="1" style="stop-color:#8C8C8C"/>
</linearGradient>
<path class="st8" d="M3386.642-6132.171l-20.078-19.914l-2.049-3.032l-3.77-1.639l-1.147,1.147l1.639,3.77l3.032,2.049
	l20.078,19.914L3386.642-6132.171z"/>
<path class="st23" d="M3371.998-6139.142c0.442,0.443,10.519,10.519,10.807,10.808c1.44,1.44,3.775,1.44,5.215,0s1.44-3.775,0-5.215
	c-0.289-0.288-10.365-10.365-10.808-10.808L3371.998-6139.142z"/>
<path class="st24" d="M3375.574-6145.996l-5.215,5.215c0.07,0.069,0.709,0.708,1.639,1.639l5.215-5.215
	C3376.283-6145.287,3375.643-6145.927,3375.574-6145.996z"/>
</svg>
