<?xml version="1.0" encoding="UTF-8" standalone="no"?>
<!-- Created with Inkscape (http://www.inkscape.org/) -->

<svg
   version="1.1"
   id="svg2"
   width="1751.6151"
   height="254.87999"
   viewBox="0 0 1751.6151 254.88"
   sodipodi:docname="vendor.svg"
   xml:space="preserve"
   inkscape:export-filename="mini-logotype-openbosniana.svg"
   inkscape:export-xdpi="26.780001"
   inkscape:export-ydpi="26.780001"
   inkscape:version="1.2.2 (b0a8486541, 2022-12-01)"
   xmlns:inkscape="http://www.inkscape.org/namespaces/inkscape"
   xmlns:sodipodi="http://sodipodi.sourceforge.net/DTD/sodipodi-0.dtd"
   xmlns="http://www.w3.org/2000/svg"
   xmlns:svg="http://www.w3.org/2000/svg"><defs
     id="defs6"><linearGradient
       id="linearGradient8856"
       inkscape:swatch="solid"><stop
         style="stop-color:#000000;stop-opacity:1;"
         offset="0"
         id="stop8854" /></linearGradient><linearGradient
       id="h-6"
       gradientUnits="userSpaceOnUse"
       x1="25.636999"
       x2="57.998001"
       y1="40.675999"
       y2="40.675999"
       gradientTransform="matrix(3.3400036,0,0,3.3400036,-1.0227687,4.5486979)"><stop
         offset="0"
         stop-color="#292c2f"
         id="stop9-7" /><stop
         offset="1"
         stop-color="#292c2f"
         stop-opacity="0"
         id="stop11-5" /></linearGradient><linearGradient
       x1="0.71004629"
       y1="1"
       x2="0"
       y2="1"
       id="linearGradient-1"><stop
         stop-color="#394A9F"
         offset="0%"
         id="stop5195" /><stop
         stop-color="#6176B9"
         offset="100%"
         id="stop5197" /></linearGradient></defs><sodipodi:namedview
     id="namedview4"
     pagecolor="#ffffff"
     bordercolor="#000000"
     borderopacity="0.25"
     inkscape:showpageshadow="2"
     inkscape:pageopacity="0.0"
     inkscape:pagecheckerboard="0"
     inkscape:deskcolor="#d1d1d1"
     showgrid="false"
     inkscape:zoom="0.25"
     inkscape:cx="598"
     inkscape:cy="-78"
     inkscape:window-width="1366"
     inkscape:window-height="706"
     inkscape:window-x="0"
     inkscape:window-y="0"
     inkscape:window-maximized="1"
     inkscape:current-layer="svgGroup-3" /><style
     type="text/css"
     id="style183">
	.st0{fill:#15E0ED;}
	.st1{fill:url(#SVGID_1_);}
</style><style
     type="text/css"
     id="style183-2">
	.st0{fill:#15E0ED;}
	.st1{fill:url(#SVGID_1_);}
</style><g
     id="g4571-2-5-0"
     transform="matrix(0.48016243,-0.09442418,0.07207723,0.61693578,289.1961,319.61612)"
     style="clip-rule:evenodd;fill:#666666;fill-opacity:1;fill-rule:evenodd;stroke:none;stroke-linejoin:round;stroke-miterlimit:1.41421;stroke-opacity:0"><g
       id="g3914-1-3-2"
       style="mix-blend-mode:normal;fill:#666666;fill-opacity:1;stroke:none;stroke-opacity:0"
       transform="matrix(1.1722401,-0.16856947,-6.1285058e-4,1.4013685,890.42688,-502.66385)"><path
         class="cls-1"
         d="m -995.71689,78.114226 a 37.879052,26.445532 8.1509219 0 0 6.68815,0.603161 68.058957,47.515845 8.15093 0 0 22.81736,-2.031347 89.771834,62.674848 8.1509276 0 0 20.42775,-6.97306 120.62296,84.213776 8.1509296 0 0 20.55465,-12.941459 146.9438,102.58986 8.1509238 0 0 15.02807,-15.311815 c 1.74976,-2.228314 3.40083,-4.501954 4.83487,-6.859264 0.70221,-1.154387 1.32661,-2.338841 1.92006,-3.530303 0.59392,-1.192034 1.10763,-2.409112 1.65161,-3.616599 a 9.0317102,6.3055531 8.1509273 0 0 0.29201,-0.734031 c 0.51289,-2.016763 1.2606,-3.983186 1.58024,-6.043089 a 66.15177,46.184331 8.150927 0 0 0.39649,-6.215391 55.367563,38.65526 8.1509309 0 0 -4.12,-13.84893351 75.939446,53.017663 8.1509287 0 0 -8.53058,-11.40012349 133.18955,92.987236 8.1509191 0 0 -16.85361,-14.715927 c -4.27279,-3.203243 -8.72707,-6.277493 -13.31803,-9.248384 -2.75337,-1.781453 -5.57368,-3.509304 -8.37557,-5.251264 -7.29818,-4.537198 -14.5367,-9.12169 -21.66622,-13.79596 -5.64857,-3.703157 -11.18978,-7.483578 -16.58031,-11.375224 -5.12024,-3.69663 -10.06763,-7.504206 -14.73305,-11.487967 a 138.68297,96.822502 8.1509314 0 1 -12.1233,-11.675462 85.230533,59.504307 8.1509296 0 1 -9.528,-13.575694 60.47525,42.221228 8.1509283 0 1 -3.8088,-16.07658 65.223669,45.53637 8.1509295 0 1 0.6742,-5.24559 c 0.3376,-1.63483 0.8612,-3.21952 1.4295,-4.79961 a 65.075993,45.43327 8.1509293 0 1 2.8385,-5.7197 c 0.037,-0.06 0,-0.14885 -0.015,-0.22438 a 1.7828507,1.2447101 8.15092 0 0 -0.3658,0.13377 6.0690943,4.2371815 8.1509266 0 0 -0.5739,0.42882 99.972914,69.796814 8.1509272 0 0 -9.4487,10.43532 c -1.0516,1.47932 -2.0338,2.98602 -2.8703,4.53842 a 76.57162,53.459025 8.1509255 0 0 -3.3206,7.71161 78.755906,54.984 8.150928 0 0 1.3776,25.822518 104.48412,72.946323 8.1509269 0 0 7.2298,13.807714 148.71678,103.82769 8.1509169 0 0 10.8957,13.699585 213.82117,149.28075 8.1509323 0 0 20.711,19.26811 360.24028,251.50433 8.1509245 0 0 30.72849,22.358018 c 5.16931,3.41936 10.44512,6.752199 15.75866,10.0546083 a 4.6897474,3.274181 8.1509255 0 1 0.60358,0.4834142 0.26535135,0.18525696 8.1509258 0 1 0.0125,0.1521587 c -0.008,0.021818 -0.11217,0.037891 -0.15694,0.023556 -1.18253,-0.3814875 -2.37973,-0.7387123 -3.54016,-1.1573075 -4.17591,-1.5066017 -8.31028,-3.0738053 -12.34533,-4.7962757 a 179.31591,125.19068 8.1509404 0 1 -41.1488,-23.277214 164.69002,114.97951 8.1509281 0 1 -16.9224,-14.057957 124.67956,87.045931 8.1509113 0 1 -12.18,-13.769684 77.927427,54.405591 8.1509272 0 1 -6.6438,-11.736688 c -0.5182,-1.342672 -0.9031,-2.702134 -1.3517,-4.053687 -0.086,-0.259316 -0.1784,-0.518404 -0.2824,-0.775284 -0.012,-0.02508 -0.1296,-0.04714 -0.1972,-0.05049 -0.054,-0.0024 -0.1466,0.0163 -0.1544,0.04102 -0.3113,0.996163 -0.6285,1.991081 -0.9178,2.992012 -0.1047,0.348995 -0.1047,0.720002 -0.1996,1.071363 -0.4604,1.712025 -0.7094,3.458133 -1.0032,5.198313 -0.4152,2.459351 -0.6318,4.940574 -0.7151,7.437457 a 96.945568,67.683247 8.1509272 0 0 1.7156,15.068434 78.699082,54.944327 8.1509264 0 0 6.4002,13.938504 82.594539,57.663969 8.1509259 0 0 13.1404,14.470396 120.02546,83.796628 8.150918 0 0 15.0399,10.8122549 250.36402,174.7934 8.1509246 0 0 20.99971,11.7380996 q 9.66957,4.9960092 19.34656,9.9846615 c 2.0655,1.066642 4.13731,2.12766 6.18413,3.213266 a 57.006045,39.799173 8.1509297 0 1 11.94779,8.061595 43.331374,30.252108 8.1509303 0 1 9.74467,13.906385 42.044493,29.353662 8.1509326 0 1 0.83845,10.012708 39.430322,27.528559 8.150931 0 1 -1.62416,5.710913 56.270906,39.285936 8.1509235 0 1 -4.5908,7.114439 54.458856,38.020839 8.1509261 0 1 -18.87266,12.2587 52.641797,36.752248 8.1509267 0 1 -17.70871,3.544626 c -1.81358,0.110621 -3.66025,0.0971 -5.49384,0.130359 a 4.0289371,2.812831 8.1509271 0 0 -1.5229,0.146129 z"
         id="path5388-2-8-5-3"
         style="clip-rule:evenodd;display:inline;fill:#666666;fill-opacity:1;stroke:none;stroke-width:1.84162;stroke-miterlimit:10;stroke-opacity:0;enable-background:new" /><path
         class="cls-1"
         d="m -997.69867,-101.49471 a 41.848467,37.718675 35.975775 0 0 1.38823,6.542946 46.199798,41.640598 35.975843 0 0 2.15935,5.596589 44.474986,40.085996 35.975805 0 0 9.58749,13.400332 68.155247,61.429385 35.975793 0 0 11.04433,9.015632 138.53591,124.86458 35.975819 0 0 16.05798,9.38717 c 5.31856,2.756166 10.72681,5.310546 16.11061,7.920338 4.70287,2.279682 9.4087,4.555749 14.07103,6.924219 a 148.52267,133.86578 35.975839 0 1 14.55387,8.271103 84.898438,76.520286 35.975797 0 1 12.23725,9.186545 56.47955,50.9059 35.975778 0 1 9.67674,10.904089 46.761782,42.147121 35.975783 0 1 5.52435,10.5427783 q 0.41608,1.1237625 0.822,2.2502211 c 0.0573,0.1577787 0.14495,0.2137183 0.30442,0.1425641 a 0.31029395,0.27967276 35.975789 0 0 0.13863,-0.1118995 c 0.10972,-0.2899959 0.22258,-0.579998 0.30694,-0.8796454 a 41.290982,37.216204 35.975789 0 1 8.12378,-13.9283116 45.78665,41.268222 35.975803 0 1 9.16059,-7.14483 33.427612,30.128829 35.975772 0 1 9.35242,-3.413823 18.777706,16.924638 35.975791 0 1 9.88515,0.686108 16.539225,14.907063 35.975829 0 1 3.69075,1.818865 0.48924123,0.44096074 35.975817 0 0 0.68548,-0.10245 7.5312504,6.7880333 35.975798 0 0 0.84185,-3.061686 5.1707746,4.6604996 35.975791 0 0 -1.75074,-3.911527 10.799001,9.7333099 35.975755 0 0 -2.69342,-1.907159 27.278415,24.586462 35.97578 0 0 -5.93504,-2.26379 69.555323,62.691297 35.975788 0 0 -9.74033,-1.939892 c -1.5321,-0.205996 -3.06644,-0.35591 -4.5995,-0.541617 -0.39969,-0.0486 -0.79815,-0.134523 -1.19696,-0.205657 a 0.9003822,0.8115285 35.975809 0 1 -0.64381,-0.465821 14.570397,13.132526 35.975804 0 1 -1.61476,-3.245198 2.993153,2.6977755 35.975819 0 1 -0.13397,-0.768812 1.0354928,0.93330575 35.97579 0 1 0.94857,-0.941197 4.5068409,4.0620858 35.975764 0 1 0.98674,0.181002 8.9484483,8.0653759 35.975808 0 1 2.39913,1.173238 42.245535,38.076557 35.97578 0 0 5.55957,3.178043 11.6157,10.46941 35.975824 0 0 3.09641,1.036329 4.087927,3.6845122 35.975803 0 0 0.79308,0.02943 0.78251596,0.70529383 35.975813 0 0 0.531,-0.670751 13.720274,12.366297 35.975846 0 0 -1.09725,-3.198761 16.906715,15.238285 35.975802 0 0 -9.95689,-9.610955 25.719256,23.181164 35.975736 0 0 -7.06983,-1.890966 41.138319,37.078609 35.975815 0 0 -6.98914,-0.378919 44.53087,40.13637 35.975821 0 0 -4.95234,0.203627 c -2.71423,0.412526 -5.47189,0.633712 -8.16819,1.138129 -2.49778,0.467135 -4.98695,0.960931 -7.45092,1.524551 -3.09623,0.708212 -6.15561,1.527539 -9.21664,2.337027 -2.18617,0.578121 -4.34861,1.219884 -6.52256,1.830976 a 1.243037,1.1203688 35.975757 0 1 -1.15268,-0.09656 61.100291,55.070643 35.975784 0 0 -10.84106,-5.977439 c -5.40145,-2.568287 -10.83449,-5.062527 -16.23561,-7.631516 -7.20485,-3.42698 -14.31681,-7.049507 -21.21096,-11.122997 a 119.99948,108.15741 35.975807 0 1 -12.4113,-8.238817 69.03986,62.226699 35.975806 0 1 -9.44573,-8.340705 39.055696,35.201506 35.975784 0 1 -8.58412,-12.79895 1.5535357,1.4002259 35.975846 0 0 -0.18358,-0.34246 c -0.0308,-0.0434 -0.12413,-0.0477 -0.24474,-0.0881 z"
         id="path5390-7-6-7"
         style="clip-rule:evenodd;display:inline;fill:#666666;fill-opacity:1;stroke:none;stroke-width:1.94203;stroke-miterlimit:10;stroke-opacity:0;enable-background:new" /><path
         class="cls-1"
         d="m -1103.6918,-23.695126 a 0.7571163,0.71145131 3.4150368 0 0 -0.025,0.596559 c 0.2241,0.585124 0.436,1.174809 0.6754,1.754566 a 106.25651,99.847724 3.4149763 0 0 7.2278,14.3255947 71.714857,67.389423 3.4150387 0 0 13.3912,15.9569265 56.795951,53.370342 3.4150421 0 0 15.8417,9.7777968 66.226832,62.232404 3.4150371 0 0 6.3509,2.215386 c 2.1062,0.643365 4.2791,0.993378 6.4093,1.521886 a 27.06364,25.431312 3.4150178 0 0 2.9328,0.449628 c 0.599,0.08388 1.2032,0.133538 1.8019,0.220492 a 59.412377,55.828959 3.4150308 0 0 6.412,0.501933 c 2.3658,0.100455 4.7263,0.06156 7.0887,-0.0054 a 1.3471588,1.2659056 3.4150482 0 1 0.4164,0.123288 1.7699317,1.6631794 3.4150268 0 1 -0.2899,0.361269 30.64302,28.794805 3.4150636 0 1 -12.492,5.305615 38.306347,35.995926 3.4150382 0 1 -9.0211,0.59202 c -1.6022,-0.0594 -3.1751,-0.296995 -4.7612,-0.455851 -0.2189,-0.02162 0.069,-0.041 -0.089,0.102047 a 0.1520528,0.14288181 3.415022 0 0 0,0.136793 0.7865385,0.73909893 3.4150402 0 0 0.2096,0.228765 48.286946,45.374554 3.4150416 0 0 9.4627,4.420906 40.754425,38.296348 3.4150355 0 0 7.3699,1.72197 32.859665,30.877756 3.4150048 0 0 16.1036,-1.229069 32.362699,30.410764 3.4150425 0 0 12.9164,-7.74169 34.149027,32.089349 3.4150529 0 0 7.2948,-10.921098 22.822161,21.445655 3.4150377 0 0 1.142,-3.552467 c 0.1987,-0.962117 0.4611,-1.912205 0.6744,-2.8719054 a 1.788753,1.6808655 3.4150973 0 0 -0.028,-0.6087951 c -0.019,-0.085159 -0.1286,-0.2198438 -0.1994,-0.2210386 a 9.5185418,8.9444373 3.4150431 0 0 -1.1515,0.03987 q -4.6738,0.4537839 -9.3718,0.6131621 c -2.9107,0.099083 -5.8222,0.1642591 -8.7366,0.042129 -2.0874,-0.08742 -4.1781,-0.1226359 -6.2626,-0.2560349 -1.8107,-0.115798 -3.6156,-0.3275413 -5.4214,-0.5142779 -1.2586,-0.1302534 -2.518,-0.2630842 -3.77,-0.4424341 a 63.759281,59.913682 3.4150408 0 1 -6.3336,-1.1152181 c -0.6942,-0.1678935 -1.3906,-0.3325009 -2.0943,-0.4553691 a 58.094184,54.590272 3.4150311 0 1 -6.0808,-1.4772475 97.567028,91.682343 3.4150193 0 1 -27.9468,-12.5415424 101.00073,94.908956 3.4150752 0 1 -17.0471,-14.013209 c -0.6356,-0.649495 -1.245,-1.321186 -1.8768,-1.974061 a 1.7010732,1.5984741 3.4150359 0 0 -0.7473,-0.589304 z"
         id="path5392-0-2-5"
         style="clip-rule:evenodd;display:inline;fill:#666666;fill-opacity:1;stroke:none;stroke-width:1.58099;stroke-miterlimit:10;stroke-opacity:0;enable-background:new" /><path
         class="cls-1"
         d="m -1117.5792,29.047663 a 1.9318712,0.86657904 7.7414014 0 0 0.1198,0.768763 105.31517,47.241201 7.7413978 0 0 7.3382,7.524765 107.78369,48.348506 7.7414006 0 0 10.4053,7.742312 74.915896,33.605007 7.7414008 0 0 6.5472,3.927005 c 2.3873,1.238821 4.7226,2.499855 7.1765,3.710141 a 95.812264,42.978487 7.7413979 0 0 35.8098,12.633077 73.419809,32.933906 7.7413995 0 0 27.6208,4.137797 64.23774,28.815109 7.7413982 0 0 21.4257,-0.4484 55.279062,24.796517 7.7413959 0 0 6.4525,-1.098133 65.969662,29.591997 7.7414015 0 0 16.37747,-5.551622 62.007658,27.814761 7.7414007 0 0 9.15689,-7.560394 75.003574,33.644336 7.7414025 0 0 3.0169,-10.66805 90.960533,40.802146 7.7413987 0 0 -6.09305,-13.949896 103.91477,46.613027 7.7413993 0 0 -11.04127,-10.739884 8.5900009,3.8532148 7.7413993 0 0 -0.90542,-0.567682 0.49421793,0.22169122 7.7414031 0 0 -0.30238,-0.0888 c -0.10904,0.05916 -0.28521,0.130613 -0.26448,0.198373 0.20363,0.536106 0.44035,1.073133 0.68374,1.610026 a 106.57062,47.80436 7.7413975 0 1 2.53108,11.320941 75.233814,33.747616 7.7413972 0 1 -4.32301,10.749759 61.862926,27.749839 7.7414013 0 1 -7.41839,5.713035 54.037281,24.239492 7.7414002 0 1 -6.11954,2.719828 59.64398,26.754488 7.7413992 0 1 -17.47094,3.596221 67.413618,30.239712 7.7413983 0 1 -30.184,-0.660956 84.569219,37.935197 7.7413988 0 1 -32.5393,-7.177181 104.64945,46.942579 7.741401 0 1 -12.3367,-4.441158 109.02064,48.903364 7.7414002 0 1 -14.033,-6.569066 121.91915,54.689242 7.7413999 0 1 -11.6308,-6.830975 z"
         id="path5396-93-9-9"
         style="clip-rule:evenodd;display:inline;fill:#666666;fill-opacity:1;stroke:none;stroke-width:2.29545;stroke-miterlimit:10;stroke-opacity:0;enable-background:new" /></g></g><g
     id="layer3-8-6-9"
     style="fill:#f2f2f2"
     transform="matrix(5.5792404,0,0,2.5402269,-2411.8853,-870.34349)" /><g
     id="g5240"
     transform="translate(-454.0915,76.211845)"
     style="fill:#666666;fill-opacity:1"><path
       d="m 581.53151,178.66815 c 70.383,0 127.44,-57.057 127.44,-127.440002 0,-70.38299 -57.057,-127.439993 -127.44,-127.439993 -70.383,0 -127.44001,57.057003 -127.44001,127.439993 0,70.383002 57.05701,127.440002 127.44001,127.440002 z m 0,-10.62 c -64.518,0 -116.82,-52.302 -116.82,-116.820002 0,-64.51799 52.302,-116.819993 116.82,-116.819993 64.518,0 116.82,52.302003 116.82,116.819993 0,64.518002 -52.302,116.820002 -116.82,116.820002 z"
       fill="#de5833"
       id="path5204"
       style="fill:#666666;fill-opacity:1" /></g><g
     id="svgGroup"
     stroke-linecap="round"
     fill-rule="evenodd"
     font-size="12px"
     stroke="#00a6ff00"
     stroke-width="0.25mm"
     fill="#00bfff"
     style="fill:#00bfff;stroke-width:0.25mm"
     transform="translate(-58.569325,494.20175)"><g
       id="svgGroup-3"
       stroke-linecap="round"
       fill-rule="nonzero"
       font-size="12px"
       stroke="#00a6ff00"
       stroke-width="0.25mm"
       fill="#00bfff"
       style="fill:#00bfff;stroke-width:0.25mm"
       transform="matrix(1,0,0,1.6121776,335.80256,-419.0917)"><path
         d="M 75.715191,73.7 H 56.440509 A 38.662616,35.504 0 0 1 45.1915,72.228 35.278113,32.396 0 0 1 41.14055,70.85 Q 34.116725,68 28.944141,63.05 A 38.103977,34.991 0 0 1 21.256047,52.143 43.599984,40.038 0 0 1 20.885799,51.3 Q 18.000042,44.5 18.000042,36.6 A 45.657039,41.927 0 0 1 19.018224,27.594 38.424133,35.285 0 0 1 20.885799,22 36.148196,33.195 0 0 1 26.645336,13.037 33.525968,30.787 0 0 1 28.944141,10.75 Q 34.116725,6.1 41.14055,3.55 A 40.134897,36.856 0 0 1 53.381606,1.09 47.344935,43.477 0 0 1 56.440509,1 h 19.274682 a 45.541608,41.821 0 0 1 9.698323,0.917 38.525406,35.378 0 0 1 6.037222,1.683 36.191754,33.235 0 0 1 10.603254,5.883 34.300222,31.498 0 0 1 1.6476,1.417 35.588468,32.681 0 0 1 7.72512,10.741 40.739272,37.411 0 0 1 0.22433,0.509 40.355957,37.059 0 0 1 2.63203,10.349 48.966404,44.966 0 0 1 0.19928,4.101 45.218186,41.524 0 0 1 -1.4908,10.788 40.802432,37.469 0 0 1 -1.39496,3.912 q -2.88576,6.8 -8.05834,11.75 -5.172586,4.95 -12.250859,7.8 A 37.267652,34.223 0 0 1 78.88299,73.598 44.419974,40.791 0 0 1 75.715191,73.7 Z M 56.440509,61 H 75.715191 A 26.433538,24.274 0 0 0 82.486376,60.225 23.378991,21.469 0 0 0 85.73367,59.2 q 4.573653,-1.8 7.894996,-4.95 a 23.867937,21.918 0 0 0 4.750066,-6.602 27.696738,25.434 0 0 0 0.422519,-0.948 q 1.851239,-4.4 1.851239,-9.5 A 29.249602,26.86 0 0 0 99.778052,30.542 25.96855,23.847 0 0 0 98.801251,27.75 Q 96.95001,23.4 93.628666,20.3 90.307323,17.2 85.73367,15.45 A 25.045108,22.999 0 0 0 77.809271,13.767 29.738547,27.309 0 0 0 75.715191,13.7 H 56.440509 a 26.159119,24.022 0 0 0 -6.950864,0.827 23.408393,21.496 0 0 0 -2.90427,0.923 q -4.519205,1.75 -7.7861,4.85 a 23.997523,22.037 0 0 0 -4.757689,6.604 27.686937,25.425 0 0 0 -0.360447,0.796 26.5261,24.359 0 0 0 -1.70423,6.646 32.295437,29.657 0 0 0 -0.147011,2.854 29.368299,26.969 0 0 0 0.998581,7.113 26.578371,24.407 0 0 0 0.85266,2.387 q 1.851241,4.4 5.118136,7.55 3.266895,3.15 7.7861,4.95 A 24.044349,22.08 0 0 0 54.95625,60.965 28.156281,25.856 0 0 0 56.440509,61 Z"
         id="0-6"
         style="fill:#00bcee;fill-opacity:1;stroke-width:0.260884mm" /><path
         d="M 213.36038,53.5 H 181.5626 V 41.2 h 31.79778 a 20.699048,19.008 0 0 0 4.63681,-0.449 q 4.06402,-0.857 6.74287,-3.351 a 13.943109,12.804 0 0 0 3.85603,-7.203 19.583948,17.984 0 0 0 0.22759,-2.797 18.63437,17.112 0 0 0 -0.54993,-4.276 13.198257,12.12 0 0 0 -3.53369,-5.724 13.407338,12.312 0 0 0 -6.16899,-3.135 q -2.06467,-0.494 -4.50504,-0.556 A 25.587412,23.497 0 0 0 213.36038,13.7 h -41.92516 v 60 H 157.71426 V 1 h 55.64612 q 6.86048,0 12.25085,1.85 a 27.09454,24.881 0 0 1 6.01109,2.855 23.45413,21.538 0 0 1 3.08177,2.345 23.898428,21.946 0 0 1 5.27168,7.245 27.900374,25.621 0 0 1 0.39094,0.905 q 1.96014,4.8 1.96014,10.8 a 36.612095,33.621 0 0 1 -0.61962,6.305 30.077215,27.62 0 0 1 -1.34052,4.445 26.029532,23.903 0 0 1 -4.54752,7.223 24.70644,22.688 0 0 1 -1.1151,1.127 24.943834,22.906 0 0 1 -7.42892,4.794 29.532733,27.12 0 0 1 -1.66394,0.656 29.970497,27.522 0 0 1 -6.91928,1.628 39.069889,35.878 0 0 1 -5.33157,0.322 z"
         id="2-7"
         style="fill:#00bcee;fill-opacity:1;stroke-width:0.260884mm" /><path
         d="M 354.92584,73.7 H 284.14311 V 1 h 70.67383 V 13.7 H 297.86407 V 61 h 57.06177 z M 351.87673,42.1 H 307.99144 V 31.4 h 43.88529 z"
         id="4-5"
         style="fill:#00bcee;fill-opacity:1;stroke-width:0.260884mm" /><path
         d="M 467.30703,71.9 411.66092,20.5 v 53.2 h -13.17648 v -66 a 12.332529,11.325 0 0 1 0.2363,-2.282 q 0.4345,-1.939 1.66939,-3.268 a 6.2506595,5.74 0 0 1 4.32972,-2.014 8.8217061,8.101 0 0 1 0.84286,-0.036 q 1.52455,0 2.94021,0.6 a 7.9429113,7.294 0 0 1 1.21419,0.649 q 0.57498,0.368 1.1652,0.86 a 15.766036,14.478 0 0 1 0.56081,0.491 l 55.86391,50.9 V 0.4 h 13.17648 V 67 a 13.006599,11.944 0 0 1 -0.20473,2.19 q -0.2559,1.259 -0.83088,2.25 a 6.6938683,6.147 0 0 1 -0.87008,1.16 6.203834,5.697 0 0 1 -4.53118,1.99 8.2129746,7.542 0 0 1 -0.42361,0.01 7.8928189,7.248 0 0 1 -4.24261,-1.163 11.7532,10.793 0 0 1 -2.07339,-1.537 z"
         id="6-3"
         style="fill:#00bcee;fill-opacity:1;stroke-width:0.260884mm" /><path
         d="M 585.35085,73.7 H 525.78446 V 1 h 57.93294 a 44.32959,40.708 0 0 1 5.84121,0.339 34.773922,31.933 0 0 1 4.6673,0.861 26.502143,24.337 0 0 1 4.64988,1.6 21.161858,19.433 0 0 1 3.46291,1.95 q 3.37579,2.35 5.22703,5.9 a 18.693174,17.166 0 0 1 1.62256,5.046 24.160868,22.187 0 0 1 0.22868,3.104 28.149747,25.85 0 0 1 -0.16661,2.89 q -0.17423,1.42 -0.53032,2.652 a 16.244092,14.917 0 0 1 -0.17424,0.558 17.455021,16.029 0 0 1 -1.10421,2.542 13.714426,12.594 0 0 1 -1.29151,1.908 q -1.52455,1.85 -3.53914,3.1 a 15.588535,14.315 0 0 1 -3.49884,1.641 14.351471,13.179 0 0 1 -0.69367,0.209 q 5.44482,1.6 8.92951,5.8 a 16.630675,15.272 0 0 1 3.03495,6.284 23.383347,21.473 0 0 1 0.44974,4.316 28.463369,26.138 0 0 1 -0.56408,5.307 23.295141,21.392 0 0 1 -1.23271,3.743 q -1.7968,4.05 -5.11814,6.95 a 21.834839,20.051 0 0 1 -6.33124,3.821 25.98924,23.866 0 0 1 -1.7271,0.629 28.982805,26.615 0 0 1 -6.66229,1.367 36.095925,33.147 0 0 1 -3.84622,0.183 z M 584.80636,42.1 H 549.63279 V 31.4 h 34.19351 a 25.408822,23.333 0 0 0 3.06761,-0.158 q 3.3845,-0.379 5.38493,-1.666 a 7.2710198,6.677 0 0 0 0.25918,-0.176 6.5904166,6.052 0 0 0 2.14635,-2.753 q 0.68495,-1.684 0.68495,-4.047 a 13.576128,12.467 0 0 0 -0.14047,-1.858 q -0.27115,-1.643 -1.05739,-2.792 a 7.6336452,7.01 0 0 0 -2.82259,-2.417 9.4239038,8.654 0 0 0 -0.60765,-0.283 q -2.0919,-0.89 -4.95043,-1.21 A 23.921296,21.967 0 0 0 585.40529,14 q -3.10355,-0.3 -6.91492,-0.3 h -38.87606 v 47.4 h 40.07392 a 44.184758,40.575 0 0 0 4.20558,-0.176 35.569955,32.664 0 0 0 2.6549,-0.324 20.706671,19.015 0 0 0 2.76924,-0.611 15.107212,13.873 0 0 0 2.67558,-1.039 10.394172,9.545 0 0 0 2.19209,-1.452 8.761813,8.046 0 0 0 1.34705,-1.498 q 1.20004,-1.725 1.25013,-4.276 a 13.521679,12.417 0 0 0 0.002,-0.224 12.616749,11.586 0 0 0 -0.35936,-2.851 8.5756,7.875 0 0 0 -2.68974,-4.099 9.7571271,8.96 0 0 0 -3.41173,-1.738 Q 587.97634,42.1 584.80636,42.1 Z"
         id="8-5"
         style="fill:#666666;stroke-width:0.260884mm" /><path
         d="M 710.36404,73.7 H 691.08936 A 38.662616,35.504 0 0 1 679.84035,72.228 35.278113,32.396 0 0 1 675.7894,70.85 Q 668.76557,68 663.59299,63.05 a 38.103977,34.991 0 0 1 -7.6881,-10.907 43.599984,40.038 0 0 1 -0.37024,-0.843 q -2.88576,-6.8 -2.88576,-14.7 a 45.657039,41.927 0 0 1 1.01818,-9.006 38.424133,35.285 0 0 1 1.86758,-5.594 36.148196,33.195 0 0 1 5.75953,-8.963 33.525968,30.787 0 0 1 2.29881,-2.287 Q 668.76557,6.1 675.7894,3.55 A 40.134897,36.856 0 0 1 688.03045,1.09 47.344935,43.477 0 0 1 691.08936,1 h 19.27468 a 45.541608,41.821 0 0 1 9.69832,0.917 38.525406,35.378 0 0 1 6.03722,1.683 36.191754,33.235 0 0 1 10.60326,5.883 34.300222,31.498 0 0 1 1.6476,1.417 35.588468,32.681 0 0 1 7.72512,10.741 40.739272,37.411 0 0 1 0.22432,0.509 40.355957,37.059 0 0 1 2.63203,10.349 48.966404,44.966 0 0 1 0.19928,4.101 45.218186,41.524 0 0 1 -1.49079,10.788 40.802432,37.469 0 0 1 -1.39496,3.912 q -2.88576,6.8 -8.05835,11.75 -5.17258,4.95 -12.25085,7.8 a 37.267652,34.223 0 0 1 -12.4044,2.748 44.419974,40.791 0 0 1 -3.1678,0.102 z M 691.08936,61 h 19.27468 a 26.433538,24.274 0 0 0 6.77118,-0.775 23.378991,21.469 0 0 0 3.2473,-1.025 q 4.57365,-1.8 7.89499,-4.95 a 23.867937,21.918 0 0 0 4.75007,-6.602 27.696738,25.434 0 0 0 0.42252,-0.948 q 1.85124,-4.4 1.85124,-9.5 a 29.249602,26.86 0 0 0 -0.87444,-6.658 25.96855,23.847 0 0 0 -0.9768,-2.792 q -1.85124,-4.35 -5.17259,-7.45 -3.32134,-3.1 -7.89499,-4.85 a 25.045108,22.999 0 0 0 -7.9244,-1.683 29.738547,27.309 0 0 0 -2.09408,-0.067 h -19.27468 a 26.159119,24.022 0 0 0 -6.95087,0.827 23.408393,21.496 0 0 0 -2.90427,0.923 q -4.5192,1.75 -7.7861,4.85 a 23.997523,22.037 0 0 0 -4.75769,6.604 27.686937,25.425 0 0 0 -0.36045,0.796 26.5261,24.359 0 0 0 -1.70423,6.646 32.295437,29.657 0 0 0 -0.14701,2.854 29.368299,26.969 0 0 0 0.99859,7.113 26.578371,24.407 0 0 0 0.85265,2.387 q 1.85125,4.4 5.11814,7.55 3.2669,3.15 7.7861,4.95 a 24.044349,22.08 0 0 0 8.37088,1.765 28.156281,25.856 0 0 0 1.48426,0.035 z"
         id="10-6"
         style="fill:#666666;stroke-width:0.260884mm" /><path
         d="M 851.7117,73.7 H 792.36311 V 61 h 59.34859 a 17.451754,16.026 0 0 0 3.36055,-0.278 q 1.934,-0.349 3.43786,-1.135 a 9.0601894,8.32 0 0 0 1.74997,-1.187 9.41737,8.648 0 0 0 2.89011,-5.347 13.161232,12.086 0 0 0 0.10454,-1.553 13.930041,12.792 0 0 0 -0.29184,-2.708 q -0.40727,-1.725 -1.38081,-3.006 a 7.7283851,7.097 0 0 0 -1.322,-1.336 9.7963298,8.996 0 0 0 -3.48469,-1.72 q -1.43634,-0.413 -3.1678,-0.555 A 21.320847,19.579 0 0 0 851.7117,42.1 h -36.37143 a 31.591966,29.011 0 0 1 -5.8423,-0.477 25.567811,23.479 0 0 1 -4.23063,-1.073 23.455219,21.539 0 0 1 -4.86658,-2.263 19.925883,18.298 0 0 1 -2.75617,-2.037 q -3.10355,-2.75 -4.79145,-6.55 -1.68789,-3.8 -1.68789,-8.3 0,-4.4 1.57899,-8.15 1.579,-3.75 4.68255,-6.45 A 20.797055,19.098 0 0 1 802.38921,3.631 25.875988,23.762 0 0 1 805.104,2.55 26.602328,24.429 0 0 1 810.66317,1.297 35.537286,32.634 0 0 1 815.55806,1 h 56.84398 v 12.7 h -56.84398 q -3.68397,0 -6.08078,1.39 a 7.9625126,7.312 0 0 0 -1.32418,0.96 8.3926538,7.707 0 0 0 -2.27594,3.77 q -0.32669,1.231 -0.33649,2.686 a 15.883645,14.586 0 0 0 -10e-4,0.094 12.560123,11.534 0 0 0 0.31254,2.649 q 0.53141,2.073 1.9732,3.498 a 7.918954,7.272 0 0 0 0.38223,0.353 8.918624,8.19 0 0 0 4.08035,1.977 q 1.44615,0.323 3.16127,0.323 h 36.26253 a 41.203172,37.837 0 0 1 6.9868,0.508 q 7.05759,1.117 11.36227,4.692 5.46442,4.538 6.16027,13.186 a 38.624502,35.469 0 0 1 0.10127,2.614 28.853219,26.496 0 0 1 -0.62506,5.607 24.839293,22.81 0 0 1 -0.89949,2.893 q -1.52455,3.9 -4.57365,6.75 -3.0491,2.85 -7.6772,4.45 a 26.03171,23.905 0 0 1 -5.19219,1.225 q -2.30643,0.328 -4.89708,0.369 A 43.215579,39.685 0 0 1 851.7117,73.7 Z"
         id="12"
         style="fill:#666666;stroke-width:0.260884mm" /><path
         d="M 988.70351,71.9 933.05739,20.5 v 53.2 h -13.17647 v -66 a 12.332529,11.325 0 0 1 0.2363,-2.282 q 0.4345,-1.939 1.66939,-3.268 a 6.2506595,5.74 0 0 1 4.32972,-2.014 8.8217061,8.101 0 0 1 0.84286,-0.036 q 1.52455,0 2.94021,0.6 a 7.9429113,7.294 0 0 1 1.21419,0.649 q 0.57498,0.368 1.16519,0.86 A 15.766036,14.478 0 0 1 932.8396,2.7 l 55.86391,50.9 V 0.4 H 1001.88 V 67 a 13.006599,11.944 0 0 1 -0.2047,2.19 q -0.2559,1.259 -0.8309,2.25 a 6.6938683,6.147 0 0 1 -0.8701,1.16 6.203834,5.697 0 0 1 -4.53118,1.99 8.2129746,7.542 0 0 1 -0.42361,0.01 7.8928189,7.248 0 0 1 -4.24261,-1.163 11.7532,10.793 0 0 1 -2.07339,-1.537 z"
         id="14"
         style="fill:#666666;stroke-width:0.260884mm" /><path
         d="m 1061.882,73.7 h -13.8299 V 1 h 13.8299 z"
         id="16"
         style="fill:#666666;stroke-width:0.260884mm" /><path
         d="m 1207.5855,73.7 h -16.6612 l -11.8697,-18.3 h -37.4604 l 6.5338,-10.3 h 24.2839 l -17.6412,-27.2 -35.9359,55.8 h -15.79 l 45.5188,-69.6 q 1.1978,-1.9 2.8313,-3 a 6.1624534,5.659 0 0 1 2.9511,-1.047 7.9853809,7.333 0 0 1 0.9692,-0.053 7.2405288,6.649 0 0 1 1.8969,0.218 5.6789529,5.215 0 0 1 1.9689,0.882 9.6264513,8.84 0 0 1 1.6988,1.539 12.91077,11.856 0 0 1 1.0781,1.461 z"
         id="18"
         style="fill:#666666;stroke-width:0.260884mm" /><path
         d="m 1316.5909,71.9 -55.6461,-51.4 v 53.2 h -13.1765 v -66 a 12.332529,11.325 0 0 1 0.2363,-2.282 q 0.4345,-1.939 1.6694,-3.268 a 6.2506595,5.74 0 0 1 4.3297,-2.014 8.8217061,8.101 0 0 1 0.8429,-0.036 q 1.5245,0 2.9402,0.6 a 7.9429113,7.294 0 0 1 1.2142,0.649 q 0.5749,0.368 1.1652,0.86 a 15.766036,14.478 0 0 1 0.5608,0.491 l 55.8639,50.9 V 0.4 h 13.1765 V 67 a 13.006599,11.944 0 0 1 -0.2048,2.19 q -0.2559,1.259 -0.8308,2.25 a 6.6938683,6.147 0 0 1 -0.8701,1.16 6.203834,5.697 0 0 1 -4.5312,1.99 8.2129746,7.542 0 0 1 -0.4236,0.01 7.8928189,7.248 0 0 1 -4.2426,-1.163 11.7532,10.793 0 0 1 -2.0734,-1.537 z"
         id="20"
         style="fill:#666666;stroke-width:0.260884mm" /><path
         d="m 1474.3819,73.7 h -16.6611 L 1445.851,55.4 h -37.4603 l 6.5337,-10.3 h 24.284 l -17.6413,-27.2 -35.9358,55.8 h -15.79 L 1415.36,4.1 q 1.1979,-1.9 2.8313,-3 a 6.1624534,5.659 0 0 1 2.9511,-1.047 7.9853809,7.333 0 0 1 0.9692,-0.053 7.2405288,6.649 0 0 1 1.897,0.218 5.6789529,5.215 0 0 1 1.9688,0.882 9.6264513,8.84 0 0 1 1.6988,1.539 12.91077,11.856 0 0 1 1.0781,1.461 z"
         id="22"
         style="fill:#666666;stroke-width:0.260884mm" /></g></g></svg>
