<svg width="1102.502" height="74.5" viewBox="0 0 1102.502 74.5" xmlns="http://www.w3.org/2000/svg"><g id="svgGroup" stroke-linecap="round" fill-rule="evenodd" font-size="9pt" stroke="#00000000" stroke-width="0.25mm" fill="#000" style="stroke:#00000000;stroke-width:0.25mm;fill:#000"><path d="M 73.402 63.9 L 73.402 73.6 L 34.702 73.6 A 34.753 34.753 0 0 1 21.379 71.113 A 32.5 32.5 0 0 1 9.852 63 A 36.528 36.528 0 0 1 0.156 40.392 A 48.318 48.318 0 0 1 0.002 36.5 A 42.18 42.18 0 0 1 1.55 24.79 A 32.367 32.367 0 0 1 9.752 10.75 A 32.841 32.841 0 0 1 31.328 1.026 A 44.216 44.216 0 0 1 34.702 0.9 L 73.402 0.9 L 73.402 10.6 L 34.702 10.6 A 26.24 26.24 0 0 0 25.614 12.119 A 23.107 23.107 0 0 0 16.752 18 A 25.249 25.249 0 0 0 9.971 32.629 A 34.486 34.486 0 0 0 9.702 37 A 31.153 31.153 0 0 0 11.061 46.394 A 25.63 25.63 0 0 0 16.802 56.25 A 23.234 23.234 0 0 0 33.697 63.883 A 29.779 29.779 0 0 0 34.702 63.9 L 73.402 63.9 Z" id="0" vector-effect="non-scaling-stroke"/><path d="M 134.702 73.6 L 117.302 73.6 A 34.753 34.753 0 0 1 103.979 71.113 A 32.5 32.5 0 0 1 92.452 63 A 36.528 36.528 0 0 1 82.756 40.392 A 48.318 48.318 0 0 1 82.602 36.5 A 42.18 42.18 0 0 1 84.15 24.79 A 32.367 32.367 0 0 1 92.352 10.75 A 32.841 32.841 0 0 1 113.928 1.026 A 44.216 44.216 0 0 1 117.302 0.9 L 134.702 0.9 A 39.608 39.608 0 0 1 146.338 2.534 A 31.696 31.696 0 0 1 159.902 10.8 A 33.493 33.493 0 0 1 169.202 30.325 A 46.162 46.162 0 0 1 169.602 36.5 Q 169.602 52.4 159.702 63 Q 149.802 73.6 134.702 73.6 Z M 117.302 63.9 L 134.702 63.9 A 25.821 25.821 0 0 0 144.014 62.275 A 23.245 23.245 0 0 0 152.802 56.25 A 26.337 26.337 0 0 0 159.728 40.529 A 35.102 35.102 0 0 0 159.902 37 A 31.191 31.191 0 0 0 158.693 28.114 A 24.563 24.563 0 0 0 152.852 18 A 23.52 23.52 0 0 0 136.747 10.665 A 31.675 31.675 0 0 0 134.702 10.6 L 117.302 10.6 A 26.24 26.24 0 0 0 108.214 12.119 A 23.107 23.107 0 0 0 99.352 18 A 25.249 25.249 0 0 0 92.571 32.629 A 34.486 34.486 0 0 0 92.302 37 A 31.153 31.153 0 0 0 93.661 46.394 A 25.63 25.63 0 0 0 99.402 56.25 A 23.234 23.234 0 0 0 116.297 63.883 A 29.779 29.779 0 0 0 117.302 63.9 Z" id="1" vector-effect="non-scaling-stroke"/><path d="M 244.802 72 L 190.002 15.5 L 190.002 73.6 L 180.702 73.6 L 180.702 6 A 9.029 9.029 0 0 1 180.867 4.217 Q 181.079 3.164 181.564 2.345 A 4.964 4.964 0 0 1 182.102 1.6 A 4.603 4.603 0 0 1 185.448 0.01 A 6.322 6.322 0 0 1 185.802 0 Q 187.706 0 189.611 1.577 A 11.44 11.44 0 0 1 190.402 2.3 L 245.402 58.6 L 245.402 0.5 L 254.702 0.5 L 254.702 68.6 Q 254.702 71.3 253.302 72.9 A 4.657 4.657 0 0 1 251.686 74.119 A 4.587 4.587 0 0 1 249.802 74.5 Q 247.162 74.5 244.905 72.111 A 11.435 11.435 0 0 1 244.802 72 Z" id="2" vector-effect="non-scaling-stroke"/><path d="M 301.902 10.6 L 301.902 73.6 L 292.202 73.6 L 292.202 10.6 L 263.702 10.6 L 263.702 0.9 L 330.402 0.9 L 330.402 10.6 L 301.902 10.6 Z" id="3" vector-effect="non-scaling-stroke"/><path d="M 401.702 51.3 L 423.802 73.6 L 410.002 73.6 L 390.802 53 L 358.902 53 L 358.902 44 L 391.402 44 A 21.408 21.408 0 0 0 397.927 43.092 Q 407.402 40.059 407.402 26.9 A 24.015 24.015 0 0 0 406.636 20.549 Q 404.639 13.281 397.431 11.323 A 23.025 23.025 0 0 0 391.402 10.6 L 349.502 10.6 L 349.502 73.6 L 339.802 73.6 L 339.802 0.9 L 391.402 0.9 A 33.117 33.117 0 0 1 399.197 1.765 A 22.281 22.281 0 0 1 410.202 7.9 A 23.326 23.326 0 0 1 416.198 19.241 A 34.522 34.522 0 0 1 417.002 26.9 A 34.841 34.841 0 0 1 416.299 34.08 A 25.035 25.035 0 0 1 413.052 42.3 A 21.652 21.652 0 0 1 402.161 51.128 A 26.869 26.869 0 0 1 401.702 51.3 Z" id="4" vector-effect="non-scaling-stroke"/><path d="M 479.702 73.6 L 462.302 73.6 A 34.753 34.753 0 0 1 448.979 71.113 A 32.5 32.5 0 0 1 437.452 63 A 36.528 36.528 0 0 1 427.756 40.392 A 48.318 48.318 0 0 1 427.602 36.5 A 42.18 42.18 0 0 1 429.15 24.79 A 32.367 32.367 0 0 1 437.352 10.75 A 32.841 32.841 0 0 1 458.928 1.026 A 44.216 44.216 0 0 1 462.302 0.9 L 479.702 0.9 A 39.608 39.608 0 0 1 491.338 2.534 A 31.696 31.696 0 0 1 504.902 10.8 A 33.493 33.493 0 0 1 514.202 30.325 A 46.162 46.162 0 0 1 514.602 36.5 Q 514.602 52.4 504.702 63 Q 494.802 73.6 479.702 73.6 Z M 462.302 63.9 L 479.702 63.9 A 25.821 25.821 0 0 0 489.014 62.275 A 23.245 23.245 0 0 0 497.802 56.25 A 26.337 26.337 0 0 0 504.728 40.529 A 35.102 35.102 0 0 0 504.902 37 A 31.191 31.191 0 0 0 503.693 28.114 A 24.563 24.563 0 0 0 497.852 18 A 23.52 23.52 0 0 0 481.747 10.665 A 31.675 31.675 0 0 0 479.702 10.6 L 462.302 10.6 A 26.24 26.24 0 0 0 453.214 12.119 A 23.107 23.107 0 0 0 444.352 18 A 25.249 25.249 0 0 0 437.571 32.629 A 34.486 34.486 0 0 0 437.302 37 A 31.153 31.153 0 0 0 438.661 46.394 A 25.63 25.63 0 0 0 444.402 56.25 A 23.234 23.234 0 0 0 461.297 63.883 A 29.779 29.779 0 0 0 462.302 63.9 Z" id="5" vector-effect="non-scaling-stroke"/><path d="M 586.502 63.9 L 586.502 73.6 L 526.002 73.6 L 526.002 0.9 L 535.702 0.9 L 535.702 63.9 L 586.502 63.9 Z" id="6" vector-effect="non-scaling-stroke"/><path d="M 696.802 63.9 L 696.802 73.6 L 658.102 73.6 A 34.753 34.753 0 0 1 644.779 71.113 A 32.5 32.5 0 0 1 633.252 63 A 36.528 36.528 0 0 1 623.556 40.392 A 48.318 48.318 0 0 1 623.402 36.5 A 42.18 42.18 0 0 1 624.95 24.79 A 32.367 32.367 0 0 1 633.152 10.75 A 32.841 32.841 0 0 1 654.728 1.026 A 44.216 44.216 0 0 1 658.102 0.9 L 696.802 0.9 L 696.802 10.6 L 658.102 10.6 A 26.24 26.24 0 0 0 649.014 12.119 A 23.107 23.107 0 0 0 640.152 18 A 25.249 25.249 0 0 0 633.371 32.629 A 34.486 34.486 0 0 0 633.102 37 A 31.153 31.153 0 0 0 634.461 46.394 A 25.63 25.63 0 0 0 640.202 56.25 A 23.234 23.234 0 0 0 657.097 63.883 A 29.779 29.779 0 0 0 658.102 63.9 L 696.802 63.9 Z" id="8" vector-effect="non-scaling-stroke"/><path d="M 772.002 63.9 L 772.002 73.6 L 708.102 73.6 L 708.102 0.9 L 771.902 0.9 L 771.902 10.6 L 717.802 10.6 L 717.802 63.9 L 772.002 63.9 Z M 769.202 32.1 L 769.202 41.1 L 727.202 41.1 L 727.202 32.1 L 769.202 32.1 Z" id="9" vector-effect="non-scaling-stroke"/><path d="M 847.702 72 L 792.902 15.5 L 792.902 73.6 L 783.602 73.6 L 783.602 6 A 9.029 9.029 0 0 1 783.767 4.217 Q 783.979 3.164 784.464 2.345 A 4.964 4.964 0 0 1 785.002 1.6 A 4.603 4.603 0 0 1 788.348 0.01 A 6.322 6.322 0 0 1 788.702 0 Q 790.606 0 792.511 1.577 A 11.44 11.44 0 0 1 793.302 2.3 L 848.302 58.6 L 848.302 0.5 L 857.602 0.5 L 857.602 68.6 Q 857.602 71.3 856.202 72.9 A 4.657 4.657 0 0 1 854.586 74.119 A 4.587 4.587 0 0 1 852.702 74.5 Q 850.062 74.5 847.805 72.111 A 11.435 11.435 0 0 1 847.702 72 Z" id="10" vector-effect="non-scaling-stroke"/><path d="M 904.802 10.6 L 904.802 73.6 L 895.102 73.6 L 895.102 10.6 L 866.602 10.6 L 866.602 0.9 L 933.302 0.9 L 933.302 10.6 L 904.802 10.6 Z" id="11" vector-effect="non-scaling-stroke"/><path d="M 1006.602 63.9 L 1006.602 73.6 L 942.702 73.6 L 942.702 0.9 L 1006.502 0.9 L 1006.502 10.6 L 952.402 10.6 L 952.402 63.9 L 1006.602 63.9 Z M 1003.802 32.1 L 1003.802 41.1 L 961.802 41.1 L 961.802 32.1 L 1003.802 32.1 Z" id="12" vector-effect="non-scaling-stroke"/><path d="M 1080.402 51.3 L 1102.502 73.6 L 1088.702 73.6 L 1069.502 53 L 1037.602 53 L 1037.602 44 L 1070.102 44 A 21.408 21.408 0 0 0 1076.627 43.092 Q 1086.102 40.059 1086.102 26.9 A 24.015 24.015 0 0 0 1085.336 20.549 Q 1083.339 13.281 1076.131 11.323 A 23.025 23.025 0 0 0 1070.102 10.6 L 1028.202 10.6 L 1028.202 73.6 L 1018.502 73.6 L 1018.502 0.9 L 1070.102 0.9 A 33.117 33.117 0 0 1 1077.897 1.765 A 22.281 22.281 0 0 1 1088.902 7.9 A 23.326 23.326 0 0 1 1094.898 19.241 A 34.522 34.522 0 0 1 1095.702 26.9 A 34.841 34.841 0 0 1 1094.999 34.08 A 25.035 25.035 0 0 1 1091.752 42.3 A 21.652 21.652 0 0 1 1080.861 51.128 A 26.869 26.869 0 0 1 1080.402 51.3 Z" id="13" vector-effect="non-scaling-stroke"/></g></svg>